G04 #@! TF.GenerationSoftware,KiCad,Pcbnew,(5.1.5)-3*
G04 #@! TF.CreationDate,2020-01-27T17:01:51-05:00*
G04 #@! TF.ProjectId,IW_board_V1,49575f62-6f61-4726-945f-56312e6b6963,rev?*
G04 #@! TF.SameCoordinates,Original*
G04 #@! TF.FileFunction,Soldermask,Top*
G04 #@! TF.FilePolarity,Negative*
%FSLAX46Y46*%
G04 Gerber Fmt 4.6, Leading zero omitted, Abs format (unit mm)*
G04 Created by KiCad (PCBNEW (5.1.5)-3) date 2020-01-27 17:01:51*
%MOMM*%
%LPD*%
G04 APERTURE LIST*
%ADD10C,0.100000*%
G04 APERTURE END LIST*
D10*
G36*
X148981000Y-76401000D02*
G01*
X147179000Y-76401000D01*
X147179000Y-74599000D01*
X148981000Y-74599000D01*
X148981000Y-76401000D01*
G37*
G36*
X145653512Y-74603927D02*
G01*
X145802812Y-74633624D01*
X145966784Y-74701544D01*
X146114354Y-74800147D01*
X146239853Y-74925646D01*
X146338456Y-75073216D01*
X146406376Y-75237188D01*
X146441000Y-75411259D01*
X146441000Y-75588741D01*
X146406376Y-75762812D01*
X146338456Y-75926784D01*
X146239853Y-76074354D01*
X146114354Y-76199853D01*
X145966784Y-76298456D01*
X145802812Y-76366376D01*
X145653512Y-76396073D01*
X145628742Y-76401000D01*
X145451258Y-76401000D01*
X145426488Y-76396073D01*
X145277188Y-76366376D01*
X145113216Y-76298456D01*
X144965646Y-76199853D01*
X144840147Y-76074354D01*
X144741544Y-75926784D01*
X144673624Y-75762812D01*
X144639000Y-75588741D01*
X144639000Y-75411259D01*
X144673624Y-75237188D01*
X144741544Y-75073216D01*
X144840147Y-74925646D01*
X144965646Y-74800147D01*
X145113216Y-74701544D01*
X145277188Y-74633624D01*
X145426488Y-74603927D01*
X145451258Y-74599000D01*
X145628742Y-74599000D01*
X145653512Y-74603927D01*
G37*
G36*
X135493512Y-74603927D02*
G01*
X135642812Y-74633624D01*
X135806784Y-74701544D01*
X135954354Y-74800147D01*
X136079853Y-74925646D01*
X136178456Y-75073216D01*
X136246376Y-75237188D01*
X136281000Y-75411259D01*
X136281000Y-75588741D01*
X136246376Y-75762812D01*
X136178456Y-75926784D01*
X136079853Y-76074354D01*
X135954354Y-76199853D01*
X135806784Y-76298456D01*
X135642812Y-76366376D01*
X135493512Y-76396073D01*
X135468742Y-76401000D01*
X135291258Y-76401000D01*
X135266488Y-76396073D01*
X135117188Y-76366376D01*
X134953216Y-76298456D01*
X134805646Y-76199853D01*
X134680147Y-76074354D01*
X134581544Y-75926784D01*
X134513624Y-75762812D01*
X134479000Y-75588741D01*
X134479000Y-75411259D01*
X134513624Y-75237188D01*
X134581544Y-75073216D01*
X134680147Y-74925646D01*
X134805646Y-74800147D01*
X134953216Y-74701544D01*
X135117188Y-74633624D01*
X135266488Y-74603927D01*
X135291258Y-74599000D01*
X135468742Y-74599000D01*
X135493512Y-74603927D01*
G37*
G36*
X138033512Y-74603927D02*
G01*
X138182812Y-74633624D01*
X138346784Y-74701544D01*
X138494354Y-74800147D01*
X138619853Y-74925646D01*
X138718456Y-75073216D01*
X138786376Y-75237188D01*
X138821000Y-75411259D01*
X138821000Y-75588741D01*
X138786376Y-75762812D01*
X138718456Y-75926784D01*
X138619853Y-76074354D01*
X138494354Y-76199853D01*
X138346784Y-76298456D01*
X138182812Y-76366376D01*
X138033512Y-76396073D01*
X138008742Y-76401000D01*
X137831258Y-76401000D01*
X137806488Y-76396073D01*
X137657188Y-76366376D01*
X137493216Y-76298456D01*
X137345646Y-76199853D01*
X137220147Y-76074354D01*
X137121544Y-75926784D01*
X137053624Y-75762812D01*
X137019000Y-75588741D01*
X137019000Y-75411259D01*
X137053624Y-75237188D01*
X137121544Y-75073216D01*
X137220147Y-74925646D01*
X137345646Y-74800147D01*
X137493216Y-74701544D01*
X137657188Y-74633624D01*
X137806488Y-74603927D01*
X137831258Y-74599000D01*
X138008742Y-74599000D01*
X138033512Y-74603927D01*
G37*
G36*
X140573512Y-74603927D02*
G01*
X140722812Y-74633624D01*
X140886784Y-74701544D01*
X141034354Y-74800147D01*
X141159853Y-74925646D01*
X141258456Y-75073216D01*
X141326376Y-75237188D01*
X141361000Y-75411259D01*
X141361000Y-75588741D01*
X141326376Y-75762812D01*
X141258456Y-75926784D01*
X141159853Y-76074354D01*
X141034354Y-76199853D01*
X140886784Y-76298456D01*
X140722812Y-76366376D01*
X140573512Y-76396073D01*
X140548742Y-76401000D01*
X140371258Y-76401000D01*
X140346488Y-76396073D01*
X140197188Y-76366376D01*
X140033216Y-76298456D01*
X139885646Y-76199853D01*
X139760147Y-76074354D01*
X139661544Y-75926784D01*
X139593624Y-75762812D01*
X139559000Y-75588741D01*
X139559000Y-75411259D01*
X139593624Y-75237188D01*
X139661544Y-75073216D01*
X139760147Y-74925646D01*
X139885646Y-74800147D01*
X140033216Y-74701544D01*
X140197188Y-74633624D01*
X140346488Y-74603927D01*
X140371258Y-74599000D01*
X140548742Y-74599000D01*
X140573512Y-74603927D01*
G37*
G36*
X143113512Y-74603927D02*
G01*
X143262812Y-74633624D01*
X143426784Y-74701544D01*
X143574354Y-74800147D01*
X143699853Y-74925646D01*
X143798456Y-75073216D01*
X143866376Y-75237188D01*
X143901000Y-75411259D01*
X143901000Y-75588741D01*
X143866376Y-75762812D01*
X143798456Y-75926784D01*
X143699853Y-76074354D01*
X143574354Y-76199853D01*
X143426784Y-76298456D01*
X143262812Y-76366376D01*
X143113512Y-76396073D01*
X143088742Y-76401000D01*
X142911258Y-76401000D01*
X142886488Y-76396073D01*
X142737188Y-76366376D01*
X142573216Y-76298456D01*
X142425646Y-76199853D01*
X142300147Y-76074354D01*
X142201544Y-75926784D01*
X142133624Y-75762812D01*
X142099000Y-75588741D01*
X142099000Y-75411259D01*
X142133624Y-75237188D01*
X142201544Y-75073216D01*
X142300147Y-74925646D01*
X142425646Y-74800147D01*
X142573216Y-74701544D01*
X142737188Y-74633624D01*
X142886488Y-74603927D01*
X142911258Y-74599000D01*
X143088742Y-74599000D01*
X143113512Y-74603927D01*
G37*
G36*
X119401000Y-76401000D02*
G01*
X117599000Y-76401000D01*
X117599000Y-74599000D01*
X119401000Y-74599000D01*
X119401000Y-76401000D01*
G37*
G36*
X116073512Y-74603927D02*
G01*
X116222812Y-74633624D01*
X116386784Y-74701544D01*
X116534354Y-74800147D01*
X116659853Y-74925646D01*
X116758456Y-75073216D01*
X116826376Y-75237188D01*
X116861000Y-75411259D01*
X116861000Y-75588741D01*
X116826376Y-75762812D01*
X116758456Y-75926784D01*
X116659853Y-76074354D01*
X116534354Y-76199853D01*
X116386784Y-76298456D01*
X116222812Y-76366376D01*
X116073512Y-76396073D01*
X116048742Y-76401000D01*
X115871258Y-76401000D01*
X115846488Y-76396073D01*
X115697188Y-76366376D01*
X115533216Y-76298456D01*
X115385646Y-76199853D01*
X115260147Y-76074354D01*
X115161544Y-75926784D01*
X115093624Y-75762812D01*
X115059000Y-75588741D01*
X115059000Y-75411259D01*
X115093624Y-75237188D01*
X115161544Y-75073216D01*
X115260147Y-74925646D01*
X115385646Y-74800147D01*
X115533216Y-74701544D01*
X115697188Y-74633624D01*
X115846488Y-74603927D01*
X115871258Y-74599000D01*
X116048742Y-74599000D01*
X116073512Y-74603927D01*
G37*
G36*
X110993512Y-74603927D02*
G01*
X111142812Y-74633624D01*
X111306784Y-74701544D01*
X111454354Y-74800147D01*
X111579853Y-74925646D01*
X111678456Y-75073216D01*
X111746376Y-75237188D01*
X111781000Y-75411259D01*
X111781000Y-75588741D01*
X111746376Y-75762812D01*
X111678456Y-75926784D01*
X111579853Y-76074354D01*
X111454354Y-76199853D01*
X111306784Y-76298456D01*
X111142812Y-76366376D01*
X110993512Y-76396073D01*
X110968742Y-76401000D01*
X110791258Y-76401000D01*
X110766488Y-76396073D01*
X110617188Y-76366376D01*
X110453216Y-76298456D01*
X110305646Y-76199853D01*
X110180147Y-76074354D01*
X110081544Y-75926784D01*
X110013624Y-75762812D01*
X109979000Y-75588741D01*
X109979000Y-75411259D01*
X110013624Y-75237188D01*
X110081544Y-75073216D01*
X110180147Y-74925646D01*
X110305646Y-74800147D01*
X110453216Y-74701544D01*
X110617188Y-74633624D01*
X110766488Y-74603927D01*
X110791258Y-74599000D01*
X110968742Y-74599000D01*
X110993512Y-74603927D01*
G37*
G36*
X131191000Y-76401000D02*
G01*
X129389000Y-76401000D01*
X129389000Y-74599000D01*
X131191000Y-74599000D01*
X131191000Y-76401000D01*
G37*
G36*
X127863512Y-74603927D02*
G01*
X128012812Y-74633624D01*
X128176784Y-74701544D01*
X128324354Y-74800147D01*
X128449853Y-74925646D01*
X128548456Y-75073216D01*
X128616376Y-75237188D01*
X128651000Y-75411259D01*
X128651000Y-75588741D01*
X128616376Y-75762812D01*
X128548456Y-75926784D01*
X128449853Y-76074354D01*
X128324354Y-76199853D01*
X128176784Y-76298456D01*
X128012812Y-76366376D01*
X127863512Y-76396073D01*
X127838742Y-76401000D01*
X127661258Y-76401000D01*
X127636488Y-76396073D01*
X127487188Y-76366376D01*
X127323216Y-76298456D01*
X127175646Y-76199853D01*
X127050147Y-76074354D01*
X126951544Y-75926784D01*
X126883624Y-75762812D01*
X126849000Y-75588741D01*
X126849000Y-75411259D01*
X126883624Y-75237188D01*
X126951544Y-75073216D01*
X127050147Y-74925646D01*
X127175646Y-74800147D01*
X127323216Y-74701544D01*
X127487188Y-74633624D01*
X127636488Y-74603927D01*
X127661258Y-74599000D01*
X127838742Y-74599000D01*
X127863512Y-74603927D01*
G37*
G36*
X125323512Y-74603927D02*
G01*
X125472812Y-74633624D01*
X125636784Y-74701544D01*
X125784354Y-74800147D01*
X125909853Y-74925646D01*
X126008456Y-75073216D01*
X126076376Y-75237188D01*
X126111000Y-75411259D01*
X126111000Y-75588741D01*
X126076376Y-75762812D01*
X126008456Y-75926784D01*
X125909853Y-76074354D01*
X125784354Y-76199853D01*
X125636784Y-76298456D01*
X125472812Y-76366376D01*
X125323512Y-76396073D01*
X125298742Y-76401000D01*
X125121258Y-76401000D01*
X125096488Y-76396073D01*
X124947188Y-76366376D01*
X124783216Y-76298456D01*
X124635646Y-76199853D01*
X124510147Y-76074354D01*
X124411544Y-75926784D01*
X124343624Y-75762812D01*
X124309000Y-75588741D01*
X124309000Y-75411259D01*
X124343624Y-75237188D01*
X124411544Y-75073216D01*
X124510147Y-74925646D01*
X124635646Y-74800147D01*
X124783216Y-74701544D01*
X124947188Y-74633624D01*
X125096488Y-74603927D01*
X125121258Y-74599000D01*
X125298742Y-74599000D01*
X125323512Y-74603927D01*
G37*
G36*
X122783512Y-74603927D02*
G01*
X122932812Y-74633624D01*
X123096784Y-74701544D01*
X123244354Y-74800147D01*
X123369853Y-74925646D01*
X123468456Y-75073216D01*
X123536376Y-75237188D01*
X123571000Y-75411259D01*
X123571000Y-75588741D01*
X123536376Y-75762812D01*
X123468456Y-75926784D01*
X123369853Y-76074354D01*
X123244354Y-76199853D01*
X123096784Y-76298456D01*
X122932812Y-76366376D01*
X122783512Y-76396073D01*
X122758742Y-76401000D01*
X122581258Y-76401000D01*
X122556488Y-76396073D01*
X122407188Y-76366376D01*
X122243216Y-76298456D01*
X122095646Y-76199853D01*
X121970147Y-76074354D01*
X121871544Y-75926784D01*
X121803624Y-75762812D01*
X121769000Y-75588741D01*
X121769000Y-75411259D01*
X121803624Y-75237188D01*
X121871544Y-75073216D01*
X121970147Y-74925646D01*
X122095646Y-74800147D01*
X122243216Y-74701544D01*
X122407188Y-74633624D01*
X122556488Y-74603927D01*
X122581258Y-74599000D01*
X122758742Y-74599000D01*
X122783512Y-74603927D01*
G37*
G36*
X113533512Y-74603927D02*
G01*
X113682812Y-74633624D01*
X113846784Y-74701544D01*
X113994354Y-74800147D01*
X114119853Y-74925646D01*
X114218456Y-75073216D01*
X114286376Y-75237188D01*
X114321000Y-75411259D01*
X114321000Y-75588741D01*
X114286376Y-75762812D01*
X114218456Y-75926784D01*
X114119853Y-76074354D01*
X113994354Y-76199853D01*
X113846784Y-76298456D01*
X113682812Y-76366376D01*
X113533512Y-76396073D01*
X113508742Y-76401000D01*
X113331258Y-76401000D01*
X113306488Y-76396073D01*
X113157188Y-76366376D01*
X112993216Y-76298456D01*
X112845646Y-76199853D01*
X112720147Y-76074354D01*
X112621544Y-75926784D01*
X112553624Y-75762812D01*
X112519000Y-75588741D01*
X112519000Y-75411259D01*
X112553624Y-75237188D01*
X112621544Y-75073216D01*
X112720147Y-74925646D01*
X112845646Y-74800147D01*
X112993216Y-74701544D01*
X113157188Y-74633624D01*
X113306488Y-74603927D01*
X113331258Y-74599000D01*
X113508742Y-74599000D01*
X113533512Y-74603927D01*
G37*
G36*
X83998228Y-74681703D02*
G01*
X84153100Y-74745853D01*
X84292481Y-74838985D01*
X84411015Y-74957519D01*
X84504147Y-75096900D01*
X84568297Y-75251772D01*
X84601000Y-75416184D01*
X84601000Y-75583816D01*
X84568297Y-75748228D01*
X84504147Y-75903100D01*
X84411015Y-76042481D01*
X84292481Y-76161015D01*
X84153100Y-76254147D01*
X83998228Y-76318297D01*
X83833816Y-76351000D01*
X83666184Y-76351000D01*
X83501772Y-76318297D01*
X83346900Y-76254147D01*
X83207519Y-76161015D01*
X83088985Y-76042481D01*
X82995853Y-75903100D01*
X82931703Y-75748228D01*
X82899000Y-75583816D01*
X82899000Y-75416184D01*
X82931703Y-75251772D01*
X82995853Y-75096900D01*
X83088985Y-74957519D01*
X83207519Y-74838985D01*
X83346900Y-74745853D01*
X83501772Y-74681703D01*
X83666184Y-74649000D01*
X83833816Y-74649000D01*
X83998228Y-74681703D01*
G37*
G36*
X79138204Y-71401200D02*
G01*
X79271096Y-71441513D01*
X79393570Y-71506977D01*
X79500923Y-71595078D01*
X79589023Y-71702429D01*
X79654487Y-71824903D01*
X79694800Y-71957795D01*
X79705000Y-72061364D01*
X79705000Y-73438636D01*
X79694800Y-73542205D01*
X79654487Y-73675097D01*
X79589023Y-73797571D01*
X79500923Y-73904923D01*
X79393571Y-73993023D01*
X79271097Y-74058487D01*
X79138205Y-74098800D01*
X79000000Y-74112411D01*
X78861796Y-74098800D01*
X78728904Y-74058487D01*
X78606430Y-73993023D01*
X78499078Y-73904923D01*
X78410978Y-73797571D01*
X78345514Y-73675097D01*
X78305201Y-73542205D01*
X78295001Y-73438636D01*
X78295000Y-72061365D01*
X78305200Y-71957796D01*
X78345513Y-71824904D01*
X78410977Y-71702430D01*
X78499078Y-71595077D01*
X78606429Y-71506977D01*
X78728903Y-71441513D01*
X78861795Y-71401200D01*
X79000000Y-71387589D01*
X79138204Y-71401200D01*
G37*
G36*
X88638204Y-71401200D02*
G01*
X88771096Y-71441513D01*
X88893570Y-71506977D01*
X89000923Y-71595078D01*
X89089023Y-71702429D01*
X89154487Y-71824903D01*
X89194800Y-71957795D01*
X89205000Y-72061364D01*
X89205000Y-73438636D01*
X89194800Y-73542205D01*
X89154487Y-73675097D01*
X89089023Y-73797571D01*
X89000923Y-73904923D01*
X88893571Y-73993023D01*
X88771097Y-74058487D01*
X88638205Y-74098800D01*
X88500000Y-74112411D01*
X88361796Y-74098800D01*
X88228904Y-74058487D01*
X88106430Y-73993023D01*
X87999078Y-73904923D01*
X87910978Y-73797571D01*
X87845514Y-73675097D01*
X87805201Y-73542205D01*
X87795001Y-73438636D01*
X87795000Y-72061365D01*
X87805200Y-71957796D01*
X87845513Y-71824904D01*
X87910977Y-71702430D01*
X87999078Y-71595077D01*
X88106429Y-71506977D01*
X88228903Y-71441513D01*
X88361795Y-71401200D01*
X88500000Y-71387589D01*
X88638204Y-71401200D01*
G37*
G36*
X84896228Y-71263483D02*
G01*
X85084922Y-71320723D01*
X85258815Y-71413671D01*
X85411239Y-71538761D01*
X85536329Y-71691185D01*
X85629277Y-71865078D01*
X85686517Y-72053772D01*
X85705843Y-72250000D01*
X85686517Y-72446228D01*
X85629277Y-72634922D01*
X85536329Y-72808815D01*
X85411239Y-72961239D01*
X85258815Y-73086329D01*
X85084922Y-73179277D01*
X84896228Y-73236517D01*
X84749175Y-73251000D01*
X82750825Y-73251000D01*
X82603772Y-73236517D01*
X82415078Y-73179277D01*
X82241185Y-73086329D01*
X82088761Y-72961239D01*
X81963671Y-72808815D01*
X81870723Y-72634922D01*
X81813483Y-72446228D01*
X81794157Y-72250000D01*
X81813483Y-72053772D01*
X81870723Y-71865078D01*
X81963671Y-71691185D01*
X82088761Y-71538761D01*
X82241185Y-71413671D01*
X82415078Y-71320723D01*
X82603772Y-71263483D01*
X82750825Y-71249000D01*
X84749175Y-71249000D01*
X84896228Y-71263483D01*
G37*
G36*
X150901000Y-71731000D02*
G01*
X149099000Y-71731000D01*
X149099000Y-69929000D01*
X150901000Y-69929000D01*
X150901000Y-71731000D01*
G37*
G36*
X112694182Y-70295900D02*
G01*
X112821573Y-70348667D01*
X112821574Y-70348668D01*
X112936224Y-70425274D01*
X113033726Y-70522776D01*
X113033727Y-70522778D01*
X113110333Y-70637427D01*
X113163100Y-70764818D01*
X113190000Y-70900055D01*
X113190000Y-71037945D01*
X113163100Y-71173182D01*
X113110333Y-71300573D01*
X113110332Y-71300574D01*
X113033726Y-71415224D01*
X112936224Y-71512726D01*
X112897258Y-71538762D01*
X112821573Y-71589333D01*
X112694182Y-71642100D01*
X112558945Y-71669000D01*
X112421055Y-71669000D01*
X112285818Y-71642100D01*
X112158427Y-71589333D01*
X112082742Y-71538762D01*
X112043776Y-71512726D01*
X111946274Y-71415224D01*
X111869668Y-71300574D01*
X111869667Y-71300573D01*
X111816900Y-71173182D01*
X111790000Y-71037945D01*
X111790000Y-70900055D01*
X111816900Y-70764818D01*
X111869667Y-70637427D01*
X111946273Y-70522778D01*
X111946274Y-70522776D01*
X112043776Y-70425274D01*
X112158426Y-70348668D01*
X112158427Y-70348667D01*
X112285818Y-70295900D01*
X112421055Y-70269000D01*
X112558945Y-70269000D01*
X112694182Y-70295900D01*
G37*
G36*
X115234182Y-70295900D02*
G01*
X115361573Y-70348667D01*
X115361574Y-70348668D01*
X115476224Y-70425274D01*
X115573726Y-70522776D01*
X115573727Y-70522778D01*
X115650333Y-70637427D01*
X115703100Y-70764818D01*
X115730000Y-70900055D01*
X115730000Y-71037945D01*
X115703100Y-71173182D01*
X115650333Y-71300573D01*
X115650332Y-71300574D01*
X115573726Y-71415224D01*
X115476224Y-71512726D01*
X115437258Y-71538762D01*
X115361573Y-71589333D01*
X115234182Y-71642100D01*
X115098945Y-71669000D01*
X114961055Y-71669000D01*
X114825818Y-71642100D01*
X114698427Y-71589333D01*
X114622742Y-71538762D01*
X114583776Y-71512726D01*
X114486274Y-71415224D01*
X114409668Y-71300574D01*
X114409667Y-71300573D01*
X114356900Y-71173182D01*
X114330000Y-71037945D01*
X114330000Y-70900055D01*
X114356900Y-70764818D01*
X114409667Y-70637427D01*
X114486273Y-70522778D01*
X114486274Y-70522776D01*
X114583776Y-70425274D01*
X114698426Y-70348668D01*
X114698427Y-70348667D01*
X114825818Y-70295900D01*
X114961055Y-70269000D01*
X115098945Y-70269000D01*
X115234182Y-70295900D01*
G37*
G36*
X117774182Y-70295900D02*
G01*
X117901573Y-70348667D01*
X117901574Y-70348668D01*
X118016224Y-70425274D01*
X118113726Y-70522776D01*
X118113727Y-70522778D01*
X118190333Y-70637427D01*
X118243100Y-70764818D01*
X118270000Y-70900055D01*
X118270000Y-71037945D01*
X118243100Y-71173182D01*
X118190333Y-71300573D01*
X118190332Y-71300574D01*
X118113726Y-71415224D01*
X118016224Y-71512726D01*
X117977258Y-71538762D01*
X117901573Y-71589333D01*
X117774182Y-71642100D01*
X117638945Y-71669000D01*
X117501055Y-71669000D01*
X117365818Y-71642100D01*
X117238427Y-71589333D01*
X117162742Y-71538762D01*
X117123776Y-71512726D01*
X117026274Y-71415224D01*
X116949668Y-71300574D01*
X116949667Y-71300573D01*
X116896900Y-71173182D01*
X116870000Y-71037945D01*
X116870000Y-70900055D01*
X116896900Y-70764818D01*
X116949667Y-70637427D01*
X117026273Y-70522778D01*
X117026274Y-70522776D01*
X117123776Y-70425274D01*
X117238426Y-70348668D01*
X117238427Y-70348667D01*
X117365818Y-70295900D01*
X117501055Y-70269000D01*
X117638945Y-70269000D01*
X117774182Y-70295900D01*
G37*
G36*
X140634182Y-70295900D02*
G01*
X140761573Y-70348667D01*
X140761574Y-70348668D01*
X140876224Y-70425274D01*
X140973726Y-70522776D01*
X140973727Y-70522778D01*
X141050333Y-70637427D01*
X141103100Y-70764818D01*
X141130000Y-70900055D01*
X141130000Y-71037945D01*
X141103100Y-71173182D01*
X141050333Y-71300573D01*
X141050332Y-71300574D01*
X140973726Y-71415224D01*
X140876224Y-71512726D01*
X140837258Y-71538762D01*
X140761573Y-71589333D01*
X140634182Y-71642100D01*
X140498945Y-71669000D01*
X140361055Y-71669000D01*
X140225818Y-71642100D01*
X140098427Y-71589333D01*
X140022742Y-71538762D01*
X139983776Y-71512726D01*
X139886274Y-71415224D01*
X139809668Y-71300574D01*
X139809667Y-71300573D01*
X139756900Y-71173182D01*
X139730000Y-71037945D01*
X139730000Y-70900055D01*
X139756900Y-70764818D01*
X139809667Y-70637427D01*
X139886273Y-70522778D01*
X139886274Y-70522776D01*
X139983776Y-70425274D01*
X140098426Y-70348668D01*
X140098427Y-70348667D01*
X140225818Y-70295900D01*
X140361055Y-70269000D01*
X140498945Y-70269000D01*
X140634182Y-70295900D01*
G37*
G36*
X120314182Y-70295900D02*
G01*
X120441573Y-70348667D01*
X120441574Y-70348668D01*
X120556224Y-70425274D01*
X120653726Y-70522776D01*
X120653727Y-70522778D01*
X120730333Y-70637427D01*
X120783100Y-70764818D01*
X120810000Y-70900055D01*
X120810000Y-71037945D01*
X120783100Y-71173182D01*
X120730333Y-71300573D01*
X120730332Y-71300574D01*
X120653726Y-71415224D01*
X120556224Y-71512726D01*
X120517258Y-71538762D01*
X120441573Y-71589333D01*
X120314182Y-71642100D01*
X120178945Y-71669000D01*
X120041055Y-71669000D01*
X119905818Y-71642100D01*
X119778427Y-71589333D01*
X119702742Y-71538762D01*
X119663776Y-71512726D01*
X119566274Y-71415224D01*
X119489668Y-71300574D01*
X119489667Y-71300573D01*
X119436900Y-71173182D01*
X119410000Y-71037945D01*
X119410000Y-70900055D01*
X119436900Y-70764818D01*
X119489667Y-70637427D01*
X119566273Y-70522778D01*
X119566274Y-70522776D01*
X119663776Y-70425274D01*
X119778426Y-70348668D01*
X119778427Y-70348667D01*
X119905818Y-70295900D01*
X120041055Y-70269000D01*
X120178945Y-70269000D01*
X120314182Y-70295900D01*
G37*
G36*
X122854182Y-70295900D02*
G01*
X122981573Y-70348667D01*
X122981574Y-70348668D01*
X123096224Y-70425274D01*
X123193726Y-70522776D01*
X123193727Y-70522778D01*
X123270333Y-70637427D01*
X123323100Y-70764818D01*
X123350000Y-70900055D01*
X123350000Y-71037945D01*
X123323100Y-71173182D01*
X123270333Y-71300573D01*
X123270332Y-71300574D01*
X123193726Y-71415224D01*
X123096224Y-71512726D01*
X123057258Y-71538762D01*
X122981573Y-71589333D01*
X122854182Y-71642100D01*
X122718945Y-71669000D01*
X122581055Y-71669000D01*
X122445818Y-71642100D01*
X122318427Y-71589333D01*
X122242742Y-71538762D01*
X122203776Y-71512726D01*
X122106274Y-71415224D01*
X122029668Y-71300574D01*
X122029667Y-71300573D01*
X121976900Y-71173182D01*
X121950000Y-71037945D01*
X121950000Y-70900055D01*
X121976900Y-70764818D01*
X122029667Y-70637427D01*
X122106273Y-70522778D01*
X122106274Y-70522776D01*
X122203776Y-70425274D01*
X122318426Y-70348668D01*
X122318427Y-70348667D01*
X122445818Y-70295900D01*
X122581055Y-70269000D01*
X122718945Y-70269000D01*
X122854182Y-70295900D01*
G37*
G36*
X125394182Y-70295900D02*
G01*
X125521573Y-70348667D01*
X125521574Y-70348668D01*
X125636224Y-70425274D01*
X125733726Y-70522776D01*
X125733727Y-70522778D01*
X125810333Y-70637427D01*
X125863100Y-70764818D01*
X125890000Y-70900055D01*
X125890000Y-71037945D01*
X125863100Y-71173182D01*
X125810333Y-71300573D01*
X125810332Y-71300574D01*
X125733726Y-71415224D01*
X125636224Y-71512726D01*
X125597258Y-71538762D01*
X125521573Y-71589333D01*
X125394182Y-71642100D01*
X125258945Y-71669000D01*
X125121055Y-71669000D01*
X124985818Y-71642100D01*
X124858427Y-71589333D01*
X124782742Y-71538762D01*
X124743776Y-71512726D01*
X124646274Y-71415224D01*
X124569668Y-71300574D01*
X124569667Y-71300573D01*
X124516900Y-71173182D01*
X124490000Y-71037945D01*
X124490000Y-70900055D01*
X124516900Y-70764818D01*
X124569667Y-70637427D01*
X124646273Y-70522778D01*
X124646274Y-70522776D01*
X124743776Y-70425274D01*
X124858426Y-70348668D01*
X124858427Y-70348667D01*
X124985818Y-70295900D01*
X125121055Y-70269000D01*
X125258945Y-70269000D01*
X125394182Y-70295900D01*
G37*
G36*
X127934182Y-70295900D02*
G01*
X128061573Y-70348667D01*
X128061574Y-70348668D01*
X128176224Y-70425274D01*
X128273726Y-70522776D01*
X128273727Y-70522778D01*
X128350333Y-70637427D01*
X128403100Y-70764818D01*
X128430000Y-70900055D01*
X128430000Y-71037945D01*
X128403100Y-71173182D01*
X128350333Y-71300573D01*
X128350332Y-71300574D01*
X128273726Y-71415224D01*
X128176224Y-71512726D01*
X128137258Y-71538762D01*
X128061573Y-71589333D01*
X127934182Y-71642100D01*
X127798945Y-71669000D01*
X127661055Y-71669000D01*
X127525818Y-71642100D01*
X127398427Y-71589333D01*
X127322742Y-71538762D01*
X127283776Y-71512726D01*
X127186274Y-71415224D01*
X127109668Y-71300574D01*
X127109667Y-71300573D01*
X127056900Y-71173182D01*
X127030000Y-71037945D01*
X127030000Y-70900055D01*
X127056900Y-70764818D01*
X127109667Y-70637427D01*
X127186273Y-70522778D01*
X127186274Y-70522776D01*
X127283776Y-70425274D01*
X127398426Y-70348668D01*
X127398427Y-70348667D01*
X127525818Y-70295900D01*
X127661055Y-70269000D01*
X127798945Y-70269000D01*
X127934182Y-70295900D01*
G37*
G36*
X130474182Y-70295900D02*
G01*
X130601573Y-70348667D01*
X130601574Y-70348668D01*
X130716224Y-70425274D01*
X130813726Y-70522776D01*
X130813727Y-70522778D01*
X130890333Y-70637427D01*
X130943100Y-70764818D01*
X130970000Y-70900055D01*
X130970000Y-71037945D01*
X130943100Y-71173182D01*
X130890333Y-71300573D01*
X130890332Y-71300574D01*
X130813726Y-71415224D01*
X130716224Y-71512726D01*
X130677258Y-71538762D01*
X130601573Y-71589333D01*
X130474182Y-71642100D01*
X130338945Y-71669000D01*
X130201055Y-71669000D01*
X130065818Y-71642100D01*
X129938427Y-71589333D01*
X129862742Y-71538762D01*
X129823776Y-71512726D01*
X129726274Y-71415224D01*
X129649668Y-71300574D01*
X129649667Y-71300573D01*
X129596900Y-71173182D01*
X129570000Y-71037945D01*
X129570000Y-70900055D01*
X129596900Y-70764818D01*
X129649667Y-70637427D01*
X129726273Y-70522778D01*
X129726274Y-70522776D01*
X129823776Y-70425274D01*
X129938426Y-70348668D01*
X129938427Y-70348667D01*
X130065818Y-70295900D01*
X130201055Y-70269000D01*
X130338945Y-70269000D01*
X130474182Y-70295900D01*
G37*
G36*
X133014182Y-70295900D02*
G01*
X133141573Y-70348667D01*
X133141574Y-70348668D01*
X133256224Y-70425274D01*
X133353726Y-70522776D01*
X133353727Y-70522778D01*
X133430333Y-70637427D01*
X133483100Y-70764818D01*
X133510000Y-70900055D01*
X133510000Y-71037945D01*
X133483100Y-71173182D01*
X133430333Y-71300573D01*
X133430332Y-71300574D01*
X133353726Y-71415224D01*
X133256224Y-71512726D01*
X133217258Y-71538762D01*
X133141573Y-71589333D01*
X133014182Y-71642100D01*
X132878945Y-71669000D01*
X132741055Y-71669000D01*
X132605818Y-71642100D01*
X132478427Y-71589333D01*
X132402742Y-71538762D01*
X132363776Y-71512726D01*
X132266274Y-71415224D01*
X132189668Y-71300574D01*
X132189667Y-71300573D01*
X132136900Y-71173182D01*
X132110000Y-71037945D01*
X132110000Y-70900055D01*
X132136900Y-70764818D01*
X132189667Y-70637427D01*
X132266273Y-70522778D01*
X132266274Y-70522776D01*
X132363776Y-70425274D01*
X132478426Y-70348668D01*
X132478427Y-70348667D01*
X132605818Y-70295900D01*
X132741055Y-70269000D01*
X132878945Y-70269000D01*
X133014182Y-70295900D01*
G37*
G36*
X138094182Y-70295900D02*
G01*
X138221573Y-70348667D01*
X138221574Y-70348668D01*
X138336224Y-70425274D01*
X138433726Y-70522776D01*
X138433727Y-70522778D01*
X138510333Y-70637427D01*
X138563100Y-70764818D01*
X138590000Y-70900055D01*
X138590000Y-71037945D01*
X138563100Y-71173182D01*
X138510333Y-71300573D01*
X138510332Y-71300574D01*
X138433726Y-71415224D01*
X138336224Y-71512726D01*
X138297258Y-71538762D01*
X138221573Y-71589333D01*
X138094182Y-71642100D01*
X137958945Y-71669000D01*
X137821055Y-71669000D01*
X137685818Y-71642100D01*
X137558427Y-71589333D01*
X137482742Y-71538762D01*
X137443776Y-71512726D01*
X137346274Y-71415224D01*
X137269668Y-71300574D01*
X137269667Y-71300573D01*
X137216900Y-71173182D01*
X137190000Y-71037945D01*
X137190000Y-70900055D01*
X137216900Y-70764818D01*
X137269667Y-70637427D01*
X137346273Y-70522778D01*
X137346274Y-70522776D01*
X137443776Y-70425274D01*
X137558426Y-70348668D01*
X137558427Y-70348667D01*
X137685818Y-70295900D01*
X137821055Y-70269000D01*
X137958945Y-70269000D01*
X138094182Y-70295900D01*
G37*
G36*
X143174182Y-70295900D02*
G01*
X143301573Y-70348667D01*
X143301574Y-70348668D01*
X143416224Y-70425274D01*
X143513726Y-70522776D01*
X143513727Y-70522778D01*
X143590333Y-70637427D01*
X143643100Y-70764818D01*
X143670000Y-70900055D01*
X143670000Y-71037945D01*
X143643100Y-71173182D01*
X143590333Y-71300573D01*
X143590332Y-71300574D01*
X143513726Y-71415224D01*
X143416224Y-71512726D01*
X143377258Y-71538762D01*
X143301573Y-71589333D01*
X143174182Y-71642100D01*
X143038945Y-71669000D01*
X142901055Y-71669000D01*
X142765818Y-71642100D01*
X142638427Y-71589333D01*
X142562742Y-71538762D01*
X142523776Y-71512726D01*
X142426274Y-71415224D01*
X142349668Y-71300574D01*
X142349667Y-71300573D01*
X142296900Y-71173182D01*
X142270000Y-71037945D01*
X142270000Y-70900055D01*
X142296900Y-70764818D01*
X142349667Y-70637427D01*
X142426273Y-70522778D01*
X142426274Y-70522776D01*
X142523776Y-70425274D01*
X142638426Y-70348668D01*
X142638427Y-70348667D01*
X142765818Y-70295900D01*
X142901055Y-70269000D01*
X143038945Y-70269000D01*
X143174182Y-70295900D01*
G37*
G36*
X145714182Y-70295900D02*
G01*
X145841573Y-70348667D01*
X145841574Y-70348668D01*
X145956224Y-70425274D01*
X146053726Y-70522776D01*
X146053727Y-70522778D01*
X146130333Y-70637427D01*
X146183100Y-70764818D01*
X146210000Y-70900055D01*
X146210000Y-71037945D01*
X146183100Y-71173182D01*
X146130333Y-71300573D01*
X146130332Y-71300574D01*
X146053726Y-71415224D01*
X145956224Y-71512726D01*
X145917258Y-71538762D01*
X145841573Y-71589333D01*
X145714182Y-71642100D01*
X145578945Y-71669000D01*
X145441055Y-71669000D01*
X145305818Y-71642100D01*
X145178427Y-71589333D01*
X145102742Y-71538762D01*
X145063776Y-71512726D01*
X144966274Y-71415224D01*
X144889668Y-71300574D01*
X144889667Y-71300573D01*
X144836900Y-71173182D01*
X144810000Y-71037945D01*
X144810000Y-70900055D01*
X144836900Y-70764818D01*
X144889667Y-70637427D01*
X144966273Y-70522778D01*
X144966274Y-70522776D01*
X145063776Y-70425274D01*
X145178426Y-70348668D01*
X145178427Y-70348667D01*
X145305818Y-70295900D01*
X145441055Y-70269000D01*
X145578945Y-70269000D01*
X145714182Y-70295900D01*
G37*
G36*
X135554182Y-70295900D02*
G01*
X135681573Y-70348667D01*
X135681574Y-70348668D01*
X135796224Y-70425274D01*
X135893726Y-70522776D01*
X135893727Y-70522778D01*
X135970333Y-70637427D01*
X136023100Y-70764818D01*
X136050000Y-70900055D01*
X136050000Y-71037945D01*
X136023100Y-71173182D01*
X135970333Y-71300573D01*
X135970332Y-71300574D01*
X135893726Y-71415224D01*
X135796224Y-71512726D01*
X135757258Y-71538762D01*
X135681573Y-71589333D01*
X135554182Y-71642100D01*
X135418945Y-71669000D01*
X135281055Y-71669000D01*
X135145818Y-71642100D01*
X135018427Y-71589333D01*
X134942742Y-71538762D01*
X134903776Y-71512726D01*
X134806274Y-71415224D01*
X134729668Y-71300574D01*
X134729667Y-71300573D01*
X134676900Y-71173182D01*
X134650000Y-71037945D01*
X134650000Y-70900055D01*
X134676900Y-70764818D01*
X134729667Y-70637427D01*
X134806273Y-70522778D01*
X134806274Y-70522776D01*
X134903776Y-70425274D01*
X135018426Y-70348668D01*
X135018427Y-70348667D01*
X135145818Y-70295900D01*
X135281055Y-70269000D01*
X135418945Y-70269000D01*
X135554182Y-70295900D01*
G37*
G36*
X93505331Y-66478211D02*
G01*
X93833092Y-66613974D01*
X94128070Y-66811072D01*
X94378928Y-67061930D01*
X94576026Y-67356908D01*
X94711789Y-67684669D01*
X94781000Y-68032616D01*
X94781000Y-68387384D01*
X94711789Y-68735331D01*
X94576026Y-69063092D01*
X94378928Y-69358070D01*
X94128070Y-69608928D01*
X93833092Y-69806026D01*
X93505331Y-69941789D01*
X93157384Y-70011000D01*
X92802616Y-70011000D01*
X92454669Y-69941789D01*
X92126908Y-69806026D01*
X91831930Y-69608928D01*
X91581072Y-69358070D01*
X91383974Y-69063092D01*
X91248211Y-68735331D01*
X91179000Y-68387384D01*
X91179000Y-68032616D01*
X91248211Y-67684669D01*
X91383974Y-67356908D01*
X91581072Y-67061930D01*
X91831930Y-66811072D01*
X92126908Y-66613974D01*
X92454669Y-66478211D01*
X92802616Y-66409000D01*
X93157384Y-66409000D01*
X93505331Y-66478211D01*
G37*
G36*
X105545331Y-66478211D02*
G01*
X105873092Y-66613974D01*
X106168070Y-66811072D01*
X106418928Y-67061930D01*
X106616026Y-67356908D01*
X106751789Y-67684669D01*
X106821000Y-68032616D01*
X106821000Y-68387384D01*
X106751789Y-68735331D01*
X106616026Y-69063092D01*
X106418928Y-69358070D01*
X106168070Y-69608928D01*
X105873092Y-69806026D01*
X105545331Y-69941789D01*
X105197384Y-70011000D01*
X104842616Y-70011000D01*
X104494669Y-69941789D01*
X104166908Y-69806026D01*
X103871930Y-69608928D01*
X103621072Y-69358070D01*
X103423974Y-69063092D01*
X103288211Y-68735331D01*
X103219000Y-68387384D01*
X103219000Y-68032616D01*
X103288211Y-67684669D01*
X103423974Y-67356908D01*
X103621072Y-67061930D01*
X103871930Y-66811072D01*
X104166908Y-66613974D01*
X104494669Y-66478211D01*
X104842616Y-66409000D01*
X105197384Y-66409000D01*
X105545331Y-66478211D01*
G37*
G36*
X88638204Y-66701200D02*
G01*
X88771096Y-66741513D01*
X88893570Y-66806977D01*
X89000923Y-66895078D01*
X89089023Y-67002429D01*
X89154487Y-67124903D01*
X89194800Y-67257795D01*
X89205000Y-67361364D01*
X89205000Y-68738636D01*
X89194800Y-68842205D01*
X89154487Y-68975097D01*
X89089023Y-69097571D01*
X89000923Y-69204923D01*
X88893571Y-69293023D01*
X88771097Y-69358487D01*
X88638205Y-69398800D01*
X88500000Y-69412411D01*
X88361796Y-69398800D01*
X88228904Y-69358487D01*
X88106430Y-69293023D01*
X87999078Y-69204923D01*
X87910978Y-69097571D01*
X87845514Y-68975097D01*
X87805201Y-68842205D01*
X87795001Y-68738636D01*
X87795000Y-67361365D01*
X87805200Y-67257796D01*
X87845513Y-67124904D01*
X87910977Y-67002430D01*
X87999078Y-66895077D01*
X88106429Y-66806977D01*
X88228903Y-66741513D01*
X88361795Y-66701200D01*
X88500000Y-66687589D01*
X88638204Y-66701200D01*
G37*
G36*
X79138204Y-66701200D02*
G01*
X79271096Y-66741513D01*
X79393570Y-66806977D01*
X79500923Y-66895078D01*
X79589023Y-67002429D01*
X79654487Y-67124903D01*
X79694800Y-67257795D01*
X79705000Y-67361364D01*
X79705000Y-68738636D01*
X79694800Y-68842205D01*
X79654487Y-68975097D01*
X79589023Y-69097571D01*
X79500923Y-69204923D01*
X79393571Y-69293023D01*
X79271097Y-69358487D01*
X79138205Y-69398800D01*
X79000000Y-69412411D01*
X78861796Y-69398800D01*
X78728904Y-69358487D01*
X78606430Y-69293023D01*
X78499078Y-69204923D01*
X78410978Y-69097571D01*
X78345514Y-68975097D01*
X78305201Y-68842205D01*
X78295001Y-68738636D01*
X78295000Y-67361365D01*
X78305200Y-67257796D01*
X78345513Y-67124904D01*
X78410977Y-67002430D01*
X78499078Y-66895077D01*
X78606429Y-66806977D01*
X78728903Y-66741513D01*
X78861795Y-66701200D01*
X79000000Y-66687589D01*
X79138204Y-66701200D01*
G37*
G36*
X150113512Y-67393927D02*
G01*
X150262812Y-67423624D01*
X150426784Y-67491544D01*
X150574354Y-67590147D01*
X150699853Y-67715646D01*
X150798456Y-67863216D01*
X150866376Y-68027188D01*
X150901000Y-68201259D01*
X150901000Y-68378741D01*
X150866376Y-68552812D01*
X150798456Y-68716784D01*
X150699853Y-68864354D01*
X150574354Y-68989853D01*
X150426784Y-69088456D01*
X150262812Y-69156376D01*
X150113512Y-69186073D01*
X150088742Y-69191000D01*
X149911258Y-69191000D01*
X149886488Y-69186073D01*
X149737188Y-69156376D01*
X149573216Y-69088456D01*
X149425646Y-68989853D01*
X149300147Y-68864354D01*
X149201544Y-68716784D01*
X149133624Y-68552812D01*
X149099000Y-68378741D01*
X149099000Y-68201259D01*
X149133624Y-68027188D01*
X149201544Y-67863216D01*
X149300147Y-67715646D01*
X149425646Y-67590147D01*
X149573216Y-67491544D01*
X149737188Y-67423624D01*
X149886488Y-67393927D01*
X149911258Y-67389000D01*
X150088742Y-67389000D01*
X150113512Y-67393927D01*
G37*
G36*
X83964795Y-65170156D02*
G01*
X84071150Y-65191311D01*
X84271520Y-65274307D01*
X84451844Y-65394795D01*
X84605205Y-65548156D01*
X84725693Y-65728480D01*
X84808689Y-65928851D01*
X84851000Y-66141560D01*
X84851000Y-66358440D01*
X84849421Y-66366376D01*
X84808689Y-66571150D01*
X84775614Y-66651000D01*
X84725693Y-66771520D01*
X84605205Y-66951844D01*
X84451844Y-67105205D01*
X84271520Y-67225693D01*
X84194016Y-67257796D01*
X84071150Y-67308689D01*
X83964794Y-67329845D01*
X83858440Y-67351000D01*
X83641560Y-67351000D01*
X83535206Y-67329845D01*
X83428850Y-67308689D01*
X83305984Y-67257796D01*
X83228480Y-67225693D01*
X83048156Y-67105205D01*
X82894795Y-66951844D01*
X82774307Y-66771520D01*
X82724386Y-66651000D01*
X82691311Y-66571150D01*
X82650579Y-66366376D01*
X82649000Y-66358440D01*
X82649000Y-66141560D01*
X82691311Y-65928851D01*
X82774307Y-65728480D01*
X82894795Y-65548156D01*
X83048156Y-65394795D01*
X83228480Y-65274307D01*
X83428850Y-65191311D01*
X83535205Y-65170156D01*
X83641560Y-65149000D01*
X83858440Y-65149000D01*
X83964795Y-65170156D01*
G37*
G36*
X150113512Y-64853927D02*
G01*
X150262812Y-64883624D01*
X150426784Y-64951544D01*
X150574354Y-65050147D01*
X150699853Y-65175646D01*
X150798456Y-65323216D01*
X150866376Y-65487188D01*
X150901000Y-65661259D01*
X150901000Y-65838741D01*
X150866376Y-66012812D01*
X150798456Y-66176784D01*
X150699853Y-66324354D01*
X150574354Y-66449853D01*
X150426784Y-66548456D01*
X150262812Y-66616376D01*
X150113512Y-66646073D01*
X150088742Y-66651000D01*
X149911258Y-66651000D01*
X149886488Y-66646073D01*
X149737188Y-66616376D01*
X149573216Y-66548456D01*
X149425646Y-66449853D01*
X149300147Y-66324354D01*
X149201544Y-66176784D01*
X149133624Y-66012812D01*
X149099000Y-65838741D01*
X149099000Y-65661259D01*
X149133624Y-65487188D01*
X149201544Y-65323216D01*
X149300147Y-65175646D01*
X149425646Y-65050147D01*
X149573216Y-64951544D01*
X149737188Y-64883624D01*
X149886488Y-64853927D01*
X149911258Y-64849000D01*
X150088742Y-64849000D01*
X150113512Y-64853927D01*
G37*
G36*
X101151000Y-64401000D02*
G01*
X100579617Y-64401000D01*
X100555231Y-64403402D01*
X100531782Y-64410515D01*
X100510171Y-64422066D01*
X100491229Y-64437611D01*
X100475684Y-64456553D01*
X100464133Y-64478164D01*
X100457020Y-64501613D01*
X100454618Y-64525999D01*
X100457020Y-64550385D01*
X100464133Y-64573834D01*
X100475684Y-64595445D01*
X100491229Y-64614387D01*
X100510171Y-64629932D01*
X100531771Y-64641477D01*
X100676784Y-64701544D01*
X100824354Y-64800147D01*
X100949853Y-64925646D01*
X101048456Y-65073216D01*
X101116376Y-65237188D01*
X101151000Y-65411259D01*
X101151000Y-65588741D01*
X101116376Y-65762812D01*
X101048456Y-65926784D01*
X100949853Y-66074354D01*
X100824354Y-66199853D01*
X100676784Y-66298456D01*
X100512812Y-66366376D01*
X100363512Y-66396073D01*
X100338742Y-66401000D01*
X100161258Y-66401000D01*
X100136488Y-66396073D01*
X99987188Y-66366376D01*
X99823216Y-66298456D01*
X99675646Y-66199853D01*
X99550147Y-66074354D01*
X99451544Y-65926784D01*
X99383624Y-65762812D01*
X99349000Y-65588741D01*
X99349000Y-65411259D01*
X99383624Y-65237188D01*
X99451544Y-65073216D01*
X99550147Y-64925646D01*
X99675646Y-64800147D01*
X99823216Y-64701544D01*
X99968229Y-64641477D01*
X99989829Y-64629932D01*
X100008771Y-64614387D01*
X100024316Y-64595445D01*
X100035867Y-64573834D01*
X100042980Y-64550385D01*
X100045382Y-64525999D01*
X100042980Y-64501613D01*
X100035867Y-64478164D01*
X100024316Y-64456553D01*
X100008771Y-64437611D01*
X99989829Y-64422066D01*
X99968218Y-64410515D01*
X99944769Y-64403402D01*
X99920383Y-64401000D01*
X99349000Y-64401000D01*
X99349000Y-62599000D01*
X101151000Y-62599000D01*
X101151000Y-64401000D01*
G37*
G36*
X97863512Y-62603927D02*
G01*
X98012812Y-62633624D01*
X98176784Y-62701544D01*
X98324354Y-62800147D01*
X98449853Y-62925646D01*
X98548456Y-63073216D01*
X98616376Y-63237188D01*
X98651000Y-63411259D01*
X98651000Y-63588741D01*
X98616376Y-63762812D01*
X98548456Y-63926784D01*
X98449853Y-64074354D01*
X98324354Y-64199853D01*
X98176784Y-64298456D01*
X98012812Y-64366376D01*
X97957362Y-64377405D01*
X97933922Y-64384516D01*
X97912311Y-64396067D01*
X97893369Y-64411613D01*
X97877824Y-64430555D01*
X97866273Y-64452165D01*
X97859160Y-64475614D01*
X97856758Y-64500000D01*
X97859160Y-64524387D01*
X97866273Y-64547835D01*
X97877824Y-64569446D01*
X97893370Y-64588388D01*
X97912312Y-64603933D01*
X97933922Y-64615484D01*
X97957362Y-64622595D01*
X98012812Y-64633624D01*
X98176784Y-64701544D01*
X98324354Y-64800147D01*
X98449853Y-64925646D01*
X98548456Y-65073216D01*
X98616376Y-65237188D01*
X98651000Y-65411259D01*
X98651000Y-65588741D01*
X98616376Y-65762812D01*
X98548456Y-65926784D01*
X98449853Y-66074354D01*
X98324354Y-66199853D01*
X98176784Y-66298456D01*
X98012812Y-66366376D01*
X97863512Y-66396073D01*
X97838742Y-66401000D01*
X97661258Y-66401000D01*
X97636488Y-66396073D01*
X97487188Y-66366376D01*
X97323216Y-66298456D01*
X97175646Y-66199853D01*
X97050147Y-66074354D01*
X96951544Y-65926784D01*
X96883624Y-65762812D01*
X96849000Y-65588741D01*
X96849000Y-65411259D01*
X96883624Y-65237188D01*
X96951544Y-65073216D01*
X97050147Y-64925646D01*
X97175646Y-64800147D01*
X97323216Y-64701544D01*
X97487188Y-64633624D01*
X97542638Y-64622595D01*
X97566078Y-64615484D01*
X97587689Y-64603933D01*
X97606631Y-64588387D01*
X97622176Y-64569445D01*
X97633727Y-64547835D01*
X97640840Y-64524386D01*
X97643242Y-64500000D01*
X97640840Y-64475613D01*
X97633727Y-64452165D01*
X97622176Y-64430554D01*
X97606630Y-64411612D01*
X97587688Y-64396067D01*
X97566078Y-64384516D01*
X97542638Y-64377405D01*
X97487188Y-64366376D01*
X97323216Y-64298456D01*
X97175646Y-64199853D01*
X97050147Y-64074354D01*
X96951544Y-63926784D01*
X96883624Y-63762812D01*
X96849000Y-63588741D01*
X96849000Y-63411259D01*
X96883624Y-63237188D01*
X96951544Y-63073216D01*
X97050147Y-62925646D01*
X97175646Y-62800147D01*
X97323216Y-62701544D01*
X97487188Y-62633624D01*
X97636488Y-62603927D01*
X97661258Y-62599000D01*
X97838742Y-62599000D01*
X97863512Y-62603927D01*
G37*
G36*
X150113512Y-62313927D02*
G01*
X150262812Y-62343624D01*
X150426784Y-62411544D01*
X150574354Y-62510147D01*
X150699853Y-62635646D01*
X150798456Y-62783216D01*
X150866376Y-62947188D01*
X150891444Y-63073216D01*
X150896761Y-63099945D01*
X150901000Y-63121259D01*
X150901000Y-63298741D01*
X150866376Y-63472812D01*
X150798456Y-63636784D01*
X150699853Y-63784354D01*
X150574354Y-63909853D01*
X150426784Y-64008456D01*
X150262812Y-64076376D01*
X150113512Y-64106073D01*
X150088742Y-64111000D01*
X149911258Y-64111000D01*
X149886488Y-64106073D01*
X149737188Y-64076376D01*
X149573216Y-64008456D01*
X149425646Y-63909853D01*
X149300147Y-63784354D01*
X149201544Y-63636784D01*
X149133624Y-63472812D01*
X149099000Y-63298741D01*
X149099000Y-63121259D01*
X149103240Y-63099945D01*
X149108556Y-63073216D01*
X149133624Y-62947188D01*
X149201544Y-62783216D01*
X149300147Y-62635646D01*
X149425646Y-62510147D01*
X149573216Y-62411544D01*
X149737188Y-62343624D01*
X149886488Y-62313927D01*
X149911258Y-62309000D01*
X150088742Y-62309000D01*
X150113512Y-62313927D01*
G37*
G36*
X117774182Y-62357900D02*
G01*
X117901573Y-62410667D01*
X117958510Y-62448711D01*
X118016224Y-62487274D01*
X118113726Y-62584776D01*
X118113727Y-62584778D01*
X118190333Y-62699427D01*
X118243100Y-62826818D01*
X118270000Y-62962055D01*
X118270000Y-63099945D01*
X118243100Y-63235182D01*
X118190333Y-63362573D01*
X118190332Y-63362574D01*
X118113726Y-63477224D01*
X118016224Y-63574726D01*
X117995249Y-63588741D01*
X117901573Y-63651333D01*
X117774182Y-63704100D01*
X117638945Y-63731000D01*
X117501055Y-63731000D01*
X117365818Y-63704100D01*
X117238427Y-63651333D01*
X117144751Y-63588741D01*
X117123776Y-63574726D01*
X117026274Y-63477224D01*
X116949668Y-63362574D01*
X116949667Y-63362573D01*
X116896900Y-63235182D01*
X116870000Y-63099945D01*
X116870000Y-62962055D01*
X116896900Y-62826818D01*
X116949667Y-62699427D01*
X117026273Y-62584778D01*
X117026274Y-62584776D01*
X117123776Y-62487274D01*
X117181490Y-62448711D01*
X117238427Y-62410667D01*
X117365818Y-62357900D01*
X117501055Y-62331000D01*
X117638945Y-62331000D01*
X117774182Y-62357900D01*
G37*
G36*
X122854182Y-62357900D02*
G01*
X122981573Y-62410667D01*
X123038510Y-62448711D01*
X123096224Y-62487274D01*
X123193726Y-62584776D01*
X123193727Y-62584778D01*
X123270333Y-62699427D01*
X123323100Y-62826818D01*
X123350000Y-62962055D01*
X123350000Y-63099945D01*
X123323100Y-63235182D01*
X123270333Y-63362573D01*
X123270332Y-63362574D01*
X123193726Y-63477224D01*
X123096224Y-63574726D01*
X123075249Y-63588741D01*
X122981573Y-63651333D01*
X122854182Y-63704100D01*
X122718945Y-63731000D01*
X122581055Y-63731000D01*
X122445818Y-63704100D01*
X122318427Y-63651333D01*
X122224751Y-63588741D01*
X122203776Y-63574726D01*
X122106274Y-63477224D01*
X122029668Y-63362574D01*
X122029667Y-63362573D01*
X121976900Y-63235182D01*
X121950000Y-63099945D01*
X121950000Y-62962055D01*
X121976900Y-62826818D01*
X122029667Y-62699427D01*
X122106273Y-62584778D01*
X122106274Y-62584776D01*
X122203776Y-62487274D01*
X122261490Y-62448711D01*
X122318427Y-62410667D01*
X122445818Y-62357900D01*
X122581055Y-62331000D01*
X122718945Y-62331000D01*
X122854182Y-62357900D01*
G37*
G36*
X120314182Y-62357900D02*
G01*
X120441573Y-62410667D01*
X120498510Y-62448711D01*
X120556224Y-62487274D01*
X120653726Y-62584776D01*
X120653727Y-62584778D01*
X120730333Y-62699427D01*
X120783100Y-62826818D01*
X120810000Y-62962055D01*
X120810000Y-63099945D01*
X120783100Y-63235182D01*
X120730333Y-63362573D01*
X120730332Y-63362574D01*
X120653726Y-63477224D01*
X120556224Y-63574726D01*
X120535249Y-63588741D01*
X120441573Y-63651333D01*
X120314182Y-63704100D01*
X120178945Y-63731000D01*
X120041055Y-63731000D01*
X119905818Y-63704100D01*
X119778427Y-63651333D01*
X119684751Y-63588741D01*
X119663776Y-63574726D01*
X119566274Y-63477224D01*
X119489668Y-63362574D01*
X119489667Y-63362573D01*
X119436900Y-63235182D01*
X119410000Y-63099945D01*
X119410000Y-62962055D01*
X119436900Y-62826818D01*
X119489667Y-62699427D01*
X119566273Y-62584778D01*
X119566274Y-62584776D01*
X119663776Y-62487274D01*
X119721490Y-62448711D01*
X119778427Y-62410667D01*
X119905818Y-62357900D01*
X120041055Y-62331000D01*
X120178945Y-62331000D01*
X120314182Y-62357900D01*
G37*
G36*
X115234182Y-62357900D02*
G01*
X115361573Y-62410667D01*
X115418510Y-62448711D01*
X115476224Y-62487274D01*
X115573726Y-62584776D01*
X115573727Y-62584778D01*
X115650333Y-62699427D01*
X115703100Y-62826818D01*
X115730000Y-62962055D01*
X115730000Y-63099945D01*
X115703100Y-63235182D01*
X115650333Y-63362573D01*
X115650332Y-63362574D01*
X115573726Y-63477224D01*
X115476224Y-63574726D01*
X115455249Y-63588741D01*
X115361573Y-63651333D01*
X115234182Y-63704100D01*
X115098945Y-63731000D01*
X114961055Y-63731000D01*
X114825818Y-63704100D01*
X114698427Y-63651333D01*
X114604751Y-63588741D01*
X114583776Y-63574726D01*
X114486274Y-63477224D01*
X114409668Y-63362574D01*
X114409667Y-63362573D01*
X114356900Y-63235182D01*
X114330000Y-63099945D01*
X114330000Y-62962055D01*
X114356900Y-62826818D01*
X114409667Y-62699427D01*
X114486273Y-62584778D01*
X114486274Y-62584776D01*
X114583776Y-62487274D01*
X114641490Y-62448711D01*
X114698427Y-62410667D01*
X114825818Y-62357900D01*
X114961055Y-62331000D01*
X115098945Y-62331000D01*
X115234182Y-62357900D01*
G37*
G36*
X112694182Y-62357900D02*
G01*
X112821573Y-62410667D01*
X112878510Y-62448711D01*
X112936224Y-62487274D01*
X113033726Y-62584776D01*
X113033727Y-62584778D01*
X113110333Y-62699427D01*
X113163100Y-62826818D01*
X113190000Y-62962055D01*
X113190000Y-63099945D01*
X113163100Y-63235182D01*
X113110333Y-63362573D01*
X113110332Y-63362574D01*
X113033726Y-63477224D01*
X112936224Y-63574726D01*
X112915249Y-63588741D01*
X112821573Y-63651333D01*
X112694182Y-63704100D01*
X112558945Y-63731000D01*
X112421055Y-63731000D01*
X112285818Y-63704100D01*
X112158427Y-63651333D01*
X112064751Y-63588741D01*
X112043776Y-63574726D01*
X111946274Y-63477224D01*
X111869668Y-63362574D01*
X111869667Y-63362573D01*
X111816900Y-63235182D01*
X111790000Y-63099945D01*
X111790000Y-62962055D01*
X111816900Y-62826818D01*
X111869667Y-62699427D01*
X111946273Y-62584778D01*
X111946274Y-62584776D01*
X112043776Y-62487274D01*
X112101490Y-62448711D01*
X112158427Y-62410667D01*
X112285818Y-62357900D01*
X112421055Y-62331000D01*
X112558945Y-62331000D01*
X112694182Y-62357900D01*
G37*
G36*
X130474182Y-62357900D02*
G01*
X130601573Y-62410667D01*
X130658510Y-62448711D01*
X130716224Y-62487274D01*
X130813726Y-62584776D01*
X130813727Y-62584778D01*
X130890333Y-62699427D01*
X130943100Y-62826818D01*
X130970000Y-62962055D01*
X130970000Y-63099945D01*
X130943100Y-63235182D01*
X130890333Y-63362573D01*
X130890332Y-63362574D01*
X130813726Y-63477224D01*
X130716224Y-63574726D01*
X130695249Y-63588741D01*
X130601573Y-63651333D01*
X130474182Y-63704100D01*
X130338945Y-63731000D01*
X130201055Y-63731000D01*
X130065818Y-63704100D01*
X129938427Y-63651333D01*
X129844751Y-63588741D01*
X129823776Y-63574726D01*
X129726274Y-63477224D01*
X129649668Y-63362574D01*
X129649667Y-63362573D01*
X129596900Y-63235182D01*
X129570000Y-63099945D01*
X129570000Y-62962055D01*
X129596900Y-62826818D01*
X129649667Y-62699427D01*
X129726273Y-62584778D01*
X129726274Y-62584776D01*
X129823776Y-62487274D01*
X129881490Y-62448711D01*
X129938427Y-62410667D01*
X130065818Y-62357900D01*
X130201055Y-62331000D01*
X130338945Y-62331000D01*
X130474182Y-62357900D01*
G37*
G36*
X127934182Y-62357900D02*
G01*
X128061573Y-62410667D01*
X128118510Y-62448711D01*
X128176224Y-62487274D01*
X128273726Y-62584776D01*
X128273727Y-62584778D01*
X128350333Y-62699427D01*
X128403100Y-62826818D01*
X128430000Y-62962055D01*
X128430000Y-63099945D01*
X128403100Y-63235182D01*
X128350333Y-63362573D01*
X128350332Y-63362574D01*
X128273726Y-63477224D01*
X128176224Y-63574726D01*
X128155249Y-63588741D01*
X128061573Y-63651333D01*
X127934182Y-63704100D01*
X127798945Y-63731000D01*
X127661055Y-63731000D01*
X127525818Y-63704100D01*
X127398427Y-63651333D01*
X127304751Y-63588741D01*
X127283776Y-63574726D01*
X127186274Y-63477224D01*
X127109668Y-63362574D01*
X127109667Y-63362573D01*
X127056900Y-63235182D01*
X127030000Y-63099945D01*
X127030000Y-62962055D01*
X127056900Y-62826818D01*
X127109667Y-62699427D01*
X127186273Y-62584778D01*
X127186274Y-62584776D01*
X127283776Y-62487274D01*
X127341490Y-62448711D01*
X127398427Y-62410667D01*
X127525818Y-62357900D01*
X127661055Y-62331000D01*
X127798945Y-62331000D01*
X127934182Y-62357900D01*
G37*
G36*
X138094182Y-62357900D02*
G01*
X138221573Y-62410667D01*
X138278510Y-62448711D01*
X138336224Y-62487274D01*
X138433726Y-62584776D01*
X138433727Y-62584778D01*
X138510333Y-62699427D01*
X138563100Y-62826818D01*
X138590000Y-62962055D01*
X138590000Y-63099945D01*
X138563100Y-63235182D01*
X138510333Y-63362573D01*
X138510332Y-63362574D01*
X138433726Y-63477224D01*
X138336224Y-63574726D01*
X138315249Y-63588741D01*
X138221573Y-63651333D01*
X138094182Y-63704100D01*
X137958945Y-63731000D01*
X137821055Y-63731000D01*
X137685818Y-63704100D01*
X137558427Y-63651333D01*
X137464751Y-63588741D01*
X137443776Y-63574726D01*
X137346274Y-63477224D01*
X137269668Y-63362574D01*
X137269667Y-63362573D01*
X137216900Y-63235182D01*
X137190000Y-63099945D01*
X137190000Y-62962055D01*
X137216900Y-62826818D01*
X137269667Y-62699427D01*
X137346273Y-62584778D01*
X137346274Y-62584776D01*
X137443776Y-62487274D01*
X137501490Y-62448711D01*
X137558427Y-62410667D01*
X137685818Y-62357900D01*
X137821055Y-62331000D01*
X137958945Y-62331000D01*
X138094182Y-62357900D01*
G37*
G36*
X140634182Y-62357900D02*
G01*
X140761573Y-62410667D01*
X140818510Y-62448711D01*
X140876224Y-62487274D01*
X140973726Y-62584776D01*
X140973727Y-62584778D01*
X141050333Y-62699427D01*
X141103100Y-62826818D01*
X141130000Y-62962055D01*
X141130000Y-63099945D01*
X141103100Y-63235182D01*
X141050333Y-63362573D01*
X141050332Y-63362574D01*
X140973726Y-63477224D01*
X140876224Y-63574726D01*
X140855249Y-63588741D01*
X140761573Y-63651333D01*
X140634182Y-63704100D01*
X140498945Y-63731000D01*
X140361055Y-63731000D01*
X140225818Y-63704100D01*
X140098427Y-63651333D01*
X140004751Y-63588741D01*
X139983776Y-63574726D01*
X139886274Y-63477224D01*
X139809668Y-63362574D01*
X139809667Y-63362573D01*
X139756900Y-63235182D01*
X139730000Y-63099945D01*
X139730000Y-62962055D01*
X139756900Y-62826818D01*
X139809667Y-62699427D01*
X139886273Y-62584778D01*
X139886274Y-62584776D01*
X139983776Y-62487274D01*
X140041490Y-62448711D01*
X140098427Y-62410667D01*
X140225818Y-62357900D01*
X140361055Y-62331000D01*
X140498945Y-62331000D01*
X140634182Y-62357900D01*
G37*
G36*
X143174182Y-62357900D02*
G01*
X143301573Y-62410667D01*
X143358510Y-62448711D01*
X143416224Y-62487274D01*
X143513726Y-62584776D01*
X143513727Y-62584778D01*
X143590333Y-62699427D01*
X143643100Y-62826818D01*
X143670000Y-62962055D01*
X143670000Y-63099945D01*
X143643100Y-63235182D01*
X143590333Y-63362573D01*
X143590332Y-63362574D01*
X143513726Y-63477224D01*
X143416224Y-63574726D01*
X143395249Y-63588741D01*
X143301573Y-63651333D01*
X143174182Y-63704100D01*
X143038945Y-63731000D01*
X142901055Y-63731000D01*
X142765818Y-63704100D01*
X142638427Y-63651333D01*
X142544751Y-63588741D01*
X142523776Y-63574726D01*
X142426274Y-63477224D01*
X142349668Y-63362574D01*
X142349667Y-63362573D01*
X142296900Y-63235182D01*
X142270000Y-63099945D01*
X142270000Y-62962055D01*
X142296900Y-62826818D01*
X142349667Y-62699427D01*
X142426273Y-62584778D01*
X142426274Y-62584776D01*
X142523776Y-62487274D01*
X142581490Y-62448711D01*
X142638427Y-62410667D01*
X142765818Y-62357900D01*
X142901055Y-62331000D01*
X143038945Y-62331000D01*
X143174182Y-62357900D01*
G37*
G36*
X135554182Y-62357900D02*
G01*
X135681573Y-62410667D01*
X135738510Y-62448711D01*
X135796224Y-62487274D01*
X135893726Y-62584776D01*
X135893727Y-62584778D01*
X135970333Y-62699427D01*
X136023100Y-62826818D01*
X136050000Y-62962055D01*
X136050000Y-63099945D01*
X136023100Y-63235182D01*
X135970333Y-63362573D01*
X135970332Y-63362574D01*
X135893726Y-63477224D01*
X135796224Y-63574726D01*
X135775249Y-63588741D01*
X135681573Y-63651333D01*
X135554182Y-63704100D01*
X135418945Y-63731000D01*
X135281055Y-63731000D01*
X135145818Y-63704100D01*
X135018427Y-63651333D01*
X134924751Y-63588741D01*
X134903776Y-63574726D01*
X134806274Y-63477224D01*
X134729668Y-63362574D01*
X134729667Y-63362573D01*
X134676900Y-63235182D01*
X134650000Y-63099945D01*
X134650000Y-62962055D01*
X134676900Y-62826818D01*
X134729667Y-62699427D01*
X134806273Y-62584778D01*
X134806274Y-62584776D01*
X134903776Y-62487274D01*
X134961490Y-62448711D01*
X135018427Y-62410667D01*
X135145818Y-62357900D01*
X135281055Y-62331000D01*
X135418945Y-62331000D01*
X135554182Y-62357900D01*
G37*
G36*
X146210000Y-63731000D02*
G01*
X144810000Y-63731000D01*
X144810000Y-62331000D01*
X146210000Y-62331000D01*
X146210000Y-63731000D01*
G37*
G36*
X133014182Y-62357900D02*
G01*
X133141573Y-62410667D01*
X133198510Y-62448711D01*
X133256224Y-62487274D01*
X133353726Y-62584776D01*
X133353727Y-62584778D01*
X133430333Y-62699427D01*
X133483100Y-62826818D01*
X133510000Y-62962055D01*
X133510000Y-63099945D01*
X133483100Y-63235182D01*
X133430333Y-63362573D01*
X133430332Y-63362574D01*
X133353726Y-63477224D01*
X133256224Y-63574726D01*
X133235249Y-63588741D01*
X133141573Y-63651333D01*
X133014182Y-63704100D01*
X132878945Y-63731000D01*
X132741055Y-63731000D01*
X132605818Y-63704100D01*
X132478427Y-63651333D01*
X132384751Y-63588741D01*
X132363776Y-63574726D01*
X132266274Y-63477224D01*
X132189668Y-63362574D01*
X132189667Y-63362573D01*
X132136900Y-63235182D01*
X132110000Y-63099945D01*
X132110000Y-62962055D01*
X132136900Y-62826818D01*
X132189667Y-62699427D01*
X132266273Y-62584778D01*
X132266274Y-62584776D01*
X132363776Y-62487274D01*
X132421490Y-62448711D01*
X132478427Y-62410667D01*
X132605818Y-62357900D01*
X132741055Y-62331000D01*
X132878945Y-62331000D01*
X133014182Y-62357900D01*
G37*
G36*
X125394182Y-62357900D02*
G01*
X125521573Y-62410667D01*
X125578510Y-62448711D01*
X125636224Y-62487274D01*
X125733726Y-62584776D01*
X125733727Y-62584778D01*
X125810333Y-62699427D01*
X125863100Y-62826818D01*
X125890000Y-62962055D01*
X125890000Y-63099945D01*
X125863100Y-63235182D01*
X125810333Y-63362573D01*
X125810332Y-63362574D01*
X125733726Y-63477224D01*
X125636224Y-63574726D01*
X125615249Y-63588741D01*
X125521573Y-63651333D01*
X125394182Y-63704100D01*
X125258945Y-63731000D01*
X125121055Y-63731000D01*
X124985818Y-63704100D01*
X124858427Y-63651333D01*
X124764751Y-63588741D01*
X124743776Y-63574726D01*
X124646274Y-63477224D01*
X124569668Y-63362574D01*
X124569667Y-63362573D01*
X124516900Y-63235182D01*
X124490000Y-63099945D01*
X124490000Y-62962055D01*
X124516900Y-62826818D01*
X124569667Y-62699427D01*
X124646273Y-62584778D01*
X124646274Y-62584776D01*
X124743776Y-62487274D01*
X124801490Y-62448711D01*
X124858427Y-62410667D01*
X124985818Y-62357900D01*
X125121055Y-62331000D01*
X125258945Y-62331000D01*
X125394182Y-62357900D01*
G37*
G36*
X147806564Y-58489389D02*
G01*
X147993866Y-58566972D01*
X147997835Y-58568616D01*
X148169973Y-58683635D01*
X148316365Y-58830027D01*
X148430606Y-59001000D01*
X148431385Y-59002167D01*
X148510611Y-59193436D01*
X148551000Y-59396484D01*
X148551000Y-59603516D01*
X148510611Y-59806564D01*
X148471943Y-59899917D01*
X148431384Y-59997835D01*
X148316365Y-60169973D01*
X148169973Y-60316365D01*
X147997835Y-60431384D01*
X147997834Y-60431385D01*
X147997833Y-60431385D01*
X147806564Y-60510611D01*
X147603516Y-60551000D01*
X147396484Y-60551000D01*
X147193436Y-60510611D01*
X147002167Y-60431385D01*
X147002166Y-60431385D01*
X147002165Y-60431384D01*
X146830027Y-60316365D01*
X146683635Y-60169973D01*
X146568616Y-59997835D01*
X146528057Y-59899917D01*
X146489389Y-59806564D01*
X146449000Y-59603516D01*
X146449000Y-59396484D01*
X146489389Y-59193436D01*
X146568615Y-59002167D01*
X146569395Y-59001000D01*
X146683635Y-58830027D01*
X146830027Y-58683635D01*
X147002165Y-58568616D01*
X147006134Y-58566972D01*
X147193436Y-58489389D01*
X147396484Y-58449000D01*
X147603516Y-58449000D01*
X147806564Y-58489389D01*
G37*
G36*
X143306564Y-58489389D02*
G01*
X143493866Y-58566972D01*
X143497835Y-58568616D01*
X143669973Y-58683635D01*
X143816365Y-58830027D01*
X143930606Y-59001000D01*
X143931385Y-59002167D01*
X144010611Y-59193436D01*
X144051000Y-59396484D01*
X144051000Y-59603516D01*
X144010611Y-59806564D01*
X143971943Y-59899917D01*
X143931384Y-59997835D01*
X143816365Y-60169973D01*
X143669973Y-60316365D01*
X143497835Y-60431384D01*
X143497834Y-60431385D01*
X143497833Y-60431385D01*
X143306564Y-60510611D01*
X143103516Y-60551000D01*
X142896484Y-60551000D01*
X142693436Y-60510611D01*
X142502167Y-60431385D01*
X142502166Y-60431385D01*
X142502165Y-60431384D01*
X142330027Y-60316365D01*
X142183635Y-60169973D01*
X142068616Y-59997835D01*
X142028057Y-59899917D01*
X141989389Y-59806564D01*
X141949000Y-59603516D01*
X141949000Y-59396484D01*
X141989389Y-59193436D01*
X142068615Y-59002167D01*
X142069395Y-59001000D01*
X142183635Y-58830027D01*
X142330027Y-58683635D01*
X142502165Y-58568616D01*
X142506134Y-58566972D01*
X142693436Y-58489389D01*
X142896484Y-58449000D01*
X143103516Y-58449000D01*
X143306564Y-58489389D01*
G37*
G36*
X135405355Y-59000083D02*
G01*
X135410029Y-59001501D01*
X135414330Y-59003800D01*
X135420702Y-59009029D01*
X135441076Y-59022643D01*
X135463715Y-59032020D01*
X135487749Y-59036800D01*
X135512253Y-59036800D01*
X135536286Y-59032019D01*
X135558925Y-59022642D01*
X135579298Y-59009029D01*
X135585670Y-59003800D01*
X135589971Y-59001501D01*
X135594645Y-59000083D01*
X135605641Y-58999000D01*
X135894359Y-58999000D01*
X135905355Y-59000083D01*
X135910029Y-59001501D01*
X135914330Y-59003800D01*
X135920702Y-59009029D01*
X135941076Y-59022643D01*
X135963715Y-59032020D01*
X135987749Y-59036800D01*
X136012253Y-59036800D01*
X136036286Y-59032019D01*
X136058925Y-59022642D01*
X136079298Y-59009029D01*
X136085670Y-59003800D01*
X136089971Y-59001501D01*
X136094645Y-59000083D01*
X136105641Y-58999000D01*
X136394359Y-58999000D01*
X136405355Y-59000083D01*
X136410029Y-59001501D01*
X136414330Y-59003800D01*
X136420702Y-59009029D01*
X136441076Y-59022643D01*
X136463715Y-59032020D01*
X136487749Y-59036800D01*
X136512253Y-59036800D01*
X136536286Y-59032019D01*
X136558925Y-59022642D01*
X136579298Y-59009029D01*
X136585670Y-59003800D01*
X136589971Y-59001501D01*
X136594645Y-59000083D01*
X136605641Y-58999000D01*
X136894359Y-58999000D01*
X136905355Y-59000083D01*
X136910029Y-59001501D01*
X136914330Y-59003800D01*
X136920702Y-59009029D01*
X136941076Y-59022643D01*
X136963715Y-59032020D01*
X136987749Y-59036800D01*
X137012253Y-59036800D01*
X137036286Y-59032019D01*
X137058925Y-59022642D01*
X137079298Y-59009029D01*
X137085670Y-59003800D01*
X137089971Y-59001501D01*
X137094645Y-59000083D01*
X137105641Y-58999000D01*
X137394359Y-58999000D01*
X137405355Y-59000083D01*
X137410029Y-59001501D01*
X137414330Y-59003800D01*
X137420702Y-59009029D01*
X137441076Y-59022643D01*
X137463715Y-59032020D01*
X137487749Y-59036800D01*
X137512253Y-59036800D01*
X137536286Y-59032019D01*
X137558925Y-59022642D01*
X137579298Y-59009029D01*
X137585670Y-59003800D01*
X137589971Y-59001501D01*
X137594645Y-59000083D01*
X137605641Y-58999000D01*
X137894359Y-58999000D01*
X137905355Y-59000083D01*
X137910029Y-59001501D01*
X137914330Y-59003800D01*
X137920702Y-59009029D01*
X137941076Y-59022643D01*
X137963715Y-59032020D01*
X137987749Y-59036800D01*
X138012253Y-59036800D01*
X138036286Y-59032019D01*
X138058925Y-59022642D01*
X138079298Y-59009029D01*
X138085670Y-59003800D01*
X138089971Y-59001501D01*
X138094645Y-59000083D01*
X138105641Y-58999000D01*
X138394359Y-58999000D01*
X138405355Y-59000083D01*
X138410029Y-59001501D01*
X138414331Y-59003800D01*
X138418104Y-59006896D01*
X138421200Y-59010669D01*
X138423499Y-59014971D01*
X138424917Y-59019645D01*
X138426000Y-59030641D01*
X138426000Y-59869359D01*
X138424917Y-59880355D01*
X138423499Y-59885029D01*
X138421200Y-59889331D01*
X138418104Y-59893104D01*
X138414331Y-59896200D01*
X138410029Y-59898499D01*
X138405355Y-59899917D01*
X138394359Y-59901000D01*
X138105641Y-59901000D01*
X138094645Y-59899917D01*
X138089971Y-59898499D01*
X138085670Y-59896200D01*
X138079298Y-59890971D01*
X138058924Y-59877357D01*
X138036285Y-59867980D01*
X138012251Y-59863200D01*
X137987747Y-59863200D01*
X137963714Y-59867981D01*
X137941075Y-59877358D01*
X137920702Y-59890971D01*
X137914330Y-59896200D01*
X137910029Y-59898499D01*
X137905355Y-59899917D01*
X137894359Y-59901000D01*
X137605641Y-59901000D01*
X137594645Y-59899917D01*
X137589971Y-59898499D01*
X137585670Y-59896200D01*
X137579298Y-59890971D01*
X137558924Y-59877357D01*
X137536285Y-59867980D01*
X137512251Y-59863200D01*
X137487747Y-59863200D01*
X137463714Y-59867981D01*
X137441075Y-59877358D01*
X137420702Y-59890971D01*
X137414330Y-59896200D01*
X137410029Y-59898499D01*
X137405355Y-59899917D01*
X137394359Y-59901000D01*
X137105641Y-59901000D01*
X137094645Y-59899917D01*
X137089971Y-59898499D01*
X137085670Y-59896200D01*
X137079298Y-59890971D01*
X137058924Y-59877357D01*
X137036285Y-59867980D01*
X137012251Y-59863200D01*
X136987747Y-59863200D01*
X136963714Y-59867981D01*
X136941075Y-59877358D01*
X136920702Y-59890971D01*
X136914330Y-59896200D01*
X136910029Y-59898499D01*
X136905355Y-59899917D01*
X136894359Y-59901000D01*
X136605641Y-59901000D01*
X136594645Y-59899917D01*
X136589971Y-59898499D01*
X136585670Y-59896200D01*
X136579298Y-59890971D01*
X136558924Y-59877357D01*
X136536285Y-59867980D01*
X136512251Y-59863200D01*
X136487747Y-59863200D01*
X136463714Y-59867981D01*
X136441075Y-59877358D01*
X136420702Y-59890971D01*
X136414330Y-59896200D01*
X136410029Y-59898499D01*
X136405355Y-59899917D01*
X136394359Y-59901000D01*
X136105641Y-59901000D01*
X136094645Y-59899917D01*
X136089971Y-59898499D01*
X136085670Y-59896200D01*
X136079298Y-59890971D01*
X136058924Y-59877357D01*
X136036285Y-59867980D01*
X136012251Y-59863200D01*
X135987747Y-59863200D01*
X135963714Y-59867981D01*
X135941075Y-59877358D01*
X135920702Y-59890971D01*
X135914330Y-59896200D01*
X135910029Y-59898499D01*
X135905355Y-59899917D01*
X135894359Y-59901000D01*
X135605641Y-59901000D01*
X135594645Y-59899917D01*
X135589971Y-59898499D01*
X135585670Y-59896200D01*
X135579298Y-59890971D01*
X135558924Y-59877357D01*
X135536285Y-59867980D01*
X135512251Y-59863200D01*
X135487747Y-59863200D01*
X135463714Y-59867981D01*
X135441075Y-59877358D01*
X135420702Y-59890971D01*
X135414330Y-59896200D01*
X135410029Y-59898499D01*
X135405355Y-59899917D01*
X135394359Y-59901000D01*
X135105641Y-59901000D01*
X135094645Y-59899917D01*
X135089971Y-59898499D01*
X135085669Y-59896200D01*
X135081896Y-59893104D01*
X135078800Y-59889331D01*
X135076501Y-59885029D01*
X135075083Y-59880355D01*
X135074000Y-59869359D01*
X135074000Y-59030641D01*
X135075083Y-59019645D01*
X135076501Y-59014971D01*
X135078800Y-59010669D01*
X135081896Y-59006896D01*
X135085669Y-59003800D01*
X135089971Y-59001501D01*
X135094645Y-59000083D01*
X135105641Y-58999000D01*
X135394359Y-58999000D01*
X135405355Y-59000083D01*
G37*
G36*
X83401000Y-59651000D02*
G01*
X81599000Y-59651000D01*
X81599000Y-57849000D01*
X83401000Y-57849000D01*
X83401000Y-59651000D01*
G37*
G36*
X111651000Y-59651000D02*
G01*
X109849000Y-59651000D01*
X109849000Y-57849000D01*
X111651000Y-57849000D01*
X111651000Y-59651000D01*
G37*
G36*
X113403512Y-57853927D02*
G01*
X113552812Y-57883624D01*
X113716784Y-57951544D01*
X113864354Y-58050147D01*
X113989853Y-58175646D01*
X114088456Y-58323216D01*
X114156376Y-58487188D01*
X114183127Y-58621676D01*
X114190756Y-58660029D01*
X114191000Y-58661259D01*
X114191000Y-58838741D01*
X114156376Y-59012812D01*
X114088456Y-59176784D01*
X113989853Y-59324354D01*
X113864354Y-59449853D01*
X113716784Y-59548456D01*
X113552812Y-59616376D01*
X113403512Y-59646073D01*
X113378742Y-59651000D01*
X113201258Y-59651000D01*
X113176488Y-59646073D01*
X113027188Y-59616376D01*
X112863216Y-59548456D01*
X112715646Y-59449853D01*
X112590147Y-59324354D01*
X112491544Y-59176784D01*
X112423624Y-59012812D01*
X112389000Y-58838741D01*
X112389000Y-58661259D01*
X112389245Y-58660029D01*
X112396873Y-58621676D01*
X112423624Y-58487188D01*
X112491544Y-58323216D01*
X112590147Y-58175646D01*
X112715646Y-58050147D01*
X112863216Y-57951544D01*
X113027188Y-57883624D01*
X113176488Y-57853927D01*
X113201258Y-57849000D01*
X113378742Y-57849000D01*
X113403512Y-57853927D01*
G37*
G36*
X115943512Y-57853927D02*
G01*
X116092812Y-57883624D01*
X116256784Y-57951544D01*
X116404354Y-58050147D01*
X116529853Y-58175646D01*
X116628456Y-58323216D01*
X116696376Y-58487188D01*
X116723127Y-58621676D01*
X116730756Y-58660029D01*
X116731000Y-58661259D01*
X116731000Y-58838741D01*
X116696376Y-59012812D01*
X116628456Y-59176784D01*
X116529853Y-59324354D01*
X116404354Y-59449853D01*
X116256784Y-59548456D01*
X116092812Y-59616376D01*
X115943512Y-59646073D01*
X115918742Y-59651000D01*
X115741258Y-59651000D01*
X115716488Y-59646073D01*
X115567188Y-59616376D01*
X115403216Y-59548456D01*
X115255646Y-59449853D01*
X115130147Y-59324354D01*
X115031544Y-59176784D01*
X114963624Y-59012812D01*
X114929000Y-58838741D01*
X114929000Y-58661259D01*
X114929245Y-58660029D01*
X114936873Y-58621676D01*
X114963624Y-58487188D01*
X115031544Y-58323216D01*
X115130147Y-58175646D01*
X115255646Y-58050147D01*
X115403216Y-57951544D01*
X115567188Y-57883624D01*
X115716488Y-57853927D01*
X115741258Y-57849000D01*
X115918742Y-57849000D01*
X115943512Y-57853927D01*
G37*
G36*
X87151000Y-59651000D02*
G01*
X85349000Y-59651000D01*
X85349000Y-57849000D01*
X87151000Y-57849000D01*
X87151000Y-59651000D01*
G37*
G36*
X79651000Y-59651000D02*
G01*
X77849000Y-59651000D01*
X77849000Y-57849000D01*
X79651000Y-57849000D01*
X79651000Y-59651000D01*
G37*
G36*
X106496968Y-57503565D02*
G01*
X106535638Y-57515296D01*
X106571277Y-57534346D01*
X106602517Y-57559983D01*
X106628154Y-57591223D01*
X106647204Y-57626862D01*
X106658935Y-57665532D01*
X106663500Y-57711888D01*
X106663500Y-58788112D01*
X106658935Y-58834468D01*
X106647204Y-58873138D01*
X106628154Y-58908777D01*
X106602517Y-58940017D01*
X106571277Y-58965654D01*
X106535638Y-58984704D01*
X106496968Y-58996435D01*
X106450612Y-59001000D01*
X105799388Y-59001000D01*
X105753032Y-58996435D01*
X105714362Y-58984704D01*
X105678723Y-58965654D01*
X105647483Y-58940017D01*
X105621846Y-58908777D01*
X105602796Y-58873138D01*
X105591065Y-58834468D01*
X105586500Y-58788112D01*
X105586500Y-57711888D01*
X105591065Y-57665532D01*
X105602796Y-57626862D01*
X105621846Y-57591223D01*
X105647483Y-57559983D01*
X105678723Y-57534346D01*
X105714362Y-57515296D01*
X105753032Y-57503565D01*
X105799388Y-57499000D01*
X106450612Y-57499000D01*
X106496968Y-57503565D01*
G37*
G36*
X104621968Y-57503565D02*
G01*
X104660638Y-57515296D01*
X104696277Y-57534346D01*
X104727517Y-57559983D01*
X104753154Y-57591223D01*
X104772204Y-57626862D01*
X104783935Y-57665532D01*
X104788500Y-57711888D01*
X104788500Y-58788112D01*
X104783935Y-58834468D01*
X104772204Y-58873138D01*
X104753154Y-58908777D01*
X104727517Y-58940017D01*
X104696277Y-58965654D01*
X104660638Y-58984704D01*
X104621968Y-58996435D01*
X104575612Y-59001000D01*
X103924388Y-59001000D01*
X103878032Y-58996435D01*
X103839362Y-58984704D01*
X103803723Y-58965654D01*
X103772483Y-58940017D01*
X103746846Y-58908777D01*
X103727796Y-58873138D01*
X103716065Y-58834468D01*
X103711500Y-58788112D01*
X103711500Y-57711888D01*
X103716065Y-57665532D01*
X103727796Y-57626862D01*
X103746846Y-57591223D01*
X103772483Y-57559983D01*
X103803723Y-57534346D01*
X103839362Y-57515296D01*
X103878032Y-57503565D01*
X103924388Y-57499000D01*
X104575612Y-57499000D01*
X104621968Y-57503565D01*
G37*
G36*
X100163674Y-57503465D02*
G01*
X100201367Y-57514899D01*
X100236103Y-57533466D01*
X100266548Y-57558452D01*
X100291534Y-57588897D01*
X100310101Y-57623633D01*
X100321535Y-57661326D01*
X100326000Y-57706661D01*
X100326000Y-58793339D01*
X100321535Y-58838674D01*
X100310101Y-58876367D01*
X100291534Y-58911103D01*
X100266548Y-58941548D01*
X100236103Y-58966534D01*
X100201367Y-58985101D01*
X100163674Y-58996535D01*
X100118339Y-59001000D01*
X99281661Y-59001000D01*
X99236326Y-58996535D01*
X99198633Y-58985101D01*
X99163897Y-58966534D01*
X99133452Y-58941548D01*
X99108466Y-58911103D01*
X99089899Y-58876367D01*
X99078465Y-58838674D01*
X99074000Y-58793339D01*
X99074000Y-57706661D01*
X99078465Y-57661326D01*
X99089899Y-57623633D01*
X99108466Y-57588897D01*
X99133452Y-57558452D01*
X99163897Y-57533466D01*
X99198633Y-57514899D01*
X99236326Y-57503465D01*
X99281661Y-57499000D01*
X100118339Y-57499000D01*
X100163674Y-57503465D01*
G37*
G36*
X102213674Y-57503465D02*
G01*
X102251367Y-57514899D01*
X102286103Y-57533466D01*
X102316548Y-57558452D01*
X102341534Y-57588897D01*
X102360101Y-57623633D01*
X102371535Y-57661326D01*
X102376000Y-57706661D01*
X102376000Y-58793339D01*
X102371535Y-58838674D01*
X102360101Y-58876367D01*
X102341534Y-58911103D01*
X102316548Y-58941548D01*
X102286103Y-58966534D01*
X102251367Y-58985101D01*
X102213674Y-58996535D01*
X102168339Y-59001000D01*
X101331661Y-59001000D01*
X101286326Y-58996535D01*
X101248633Y-58985101D01*
X101213897Y-58966534D01*
X101183452Y-58941548D01*
X101158466Y-58911103D01*
X101139899Y-58876367D01*
X101128465Y-58838674D01*
X101124000Y-58793339D01*
X101124000Y-57706661D01*
X101128465Y-57661326D01*
X101139899Y-57623633D01*
X101158466Y-57588897D01*
X101183452Y-57558452D01*
X101213897Y-57533466D01*
X101248633Y-57514899D01*
X101286326Y-57503465D01*
X101331661Y-57499000D01*
X102168339Y-57499000D01*
X102213674Y-57503465D01*
G37*
G36*
X138354124Y-55277499D02*
G01*
X138382387Y-55286073D01*
X138408434Y-55299996D01*
X138431267Y-55318733D01*
X138450004Y-55341566D01*
X138463927Y-55367613D01*
X138472501Y-55395876D01*
X138476000Y-55431408D01*
X138476000Y-58568592D01*
X138472501Y-58604124D01*
X138463927Y-58632387D01*
X138450004Y-58658434D01*
X138431267Y-58681267D01*
X138408434Y-58700004D01*
X138382387Y-58713927D01*
X138354124Y-58722501D01*
X138318592Y-58726000D01*
X135181408Y-58726000D01*
X135145876Y-58722501D01*
X135117613Y-58713927D01*
X135091566Y-58700004D01*
X135068733Y-58681267D01*
X135049996Y-58658434D01*
X135036073Y-58632387D01*
X135027499Y-58604124D01*
X135024000Y-58568592D01*
X135024000Y-55431408D01*
X135027499Y-55395876D01*
X135036073Y-55367613D01*
X135049996Y-55341566D01*
X135068733Y-55318733D01*
X135091566Y-55299996D01*
X135117613Y-55286073D01*
X135145876Y-55277499D01*
X135181408Y-55274000D01*
X138318592Y-55274000D01*
X138354124Y-55277499D01*
G37*
G36*
X139630355Y-55325083D02*
G01*
X139635029Y-55326501D01*
X139639331Y-55328800D01*
X139643104Y-55331896D01*
X139646200Y-55335669D01*
X139648499Y-55339971D01*
X139649917Y-55344645D01*
X139651000Y-55355641D01*
X139651000Y-55644359D01*
X139649917Y-55655355D01*
X139648499Y-55660029D01*
X139646200Y-55664330D01*
X139640971Y-55670702D01*
X139627357Y-55691076D01*
X139617980Y-55713715D01*
X139613200Y-55737749D01*
X139613200Y-55762253D01*
X139617981Y-55786286D01*
X139627358Y-55808925D01*
X139640971Y-55829298D01*
X139646200Y-55835670D01*
X139648499Y-55839971D01*
X139649917Y-55844645D01*
X139651000Y-55855641D01*
X139651000Y-56144359D01*
X139649917Y-56155355D01*
X139648499Y-56160029D01*
X139646200Y-56164330D01*
X139640971Y-56170702D01*
X139627357Y-56191076D01*
X139617980Y-56213715D01*
X139613200Y-56237749D01*
X139613200Y-56262253D01*
X139617981Y-56286286D01*
X139627358Y-56308925D01*
X139640971Y-56329298D01*
X139646200Y-56335670D01*
X139648499Y-56339971D01*
X139649917Y-56344645D01*
X139651000Y-56355641D01*
X139651000Y-56644359D01*
X139649917Y-56655355D01*
X139648499Y-56660029D01*
X139646200Y-56664330D01*
X139640971Y-56670702D01*
X139627357Y-56691076D01*
X139617980Y-56713715D01*
X139613200Y-56737749D01*
X139613200Y-56762253D01*
X139617981Y-56786286D01*
X139627358Y-56808925D01*
X139640971Y-56829298D01*
X139646200Y-56835670D01*
X139648499Y-56839971D01*
X139649917Y-56844645D01*
X139651000Y-56855641D01*
X139651000Y-57144359D01*
X139649917Y-57155355D01*
X139648499Y-57160029D01*
X139646200Y-57164330D01*
X139640971Y-57170702D01*
X139627357Y-57191076D01*
X139617980Y-57213715D01*
X139613200Y-57237749D01*
X139613200Y-57262253D01*
X139617981Y-57286286D01*
X139627358Y-57308925D01*
X139640971Y-57329298D01*
X139646200Y-57335670D01*
X139648499Y-57339971D01*
X139649917Y-57344645D01*
X139651000Y-57355641D01*
X139651000Y-57644359D01*
X139649917Y-57655355D01*
X139648499Y-57660029D01*
X139646200Y-57664330D01*
X139640971Y-57670702D01*
X139627357Y-57691076D01*
X139617980Y-57713715D01*
X139613200Y-57737749D01*
X139613200Y-57762253D01*
X139617981Y-57786286D01*
X139627358Y-57808925D01*
X139640971Y-57829298D01*
X139646200Y-57835670D01*
X139648499Y-57839971D01*
X139649917Y-57844645D01*
X139651000Y-57855641D01*
X139651000Y-58144359D01*
X139649917Y-58155355D01*
X139648499Y-58160029D01*
X139646200Y-58164330D01*
X139640971Y-58170702D01*
X139627357Y-58191076D01*
X139617980Y-58213715D01*
X139613200Y-58237749D01*
X139613200Y-58262253D01*
X139617981Y-58286286D01*
X139627358Y-58308925D01*
X139640971Y-58329298D01*
X139646200Y-58335670D01*
X139648499Y-58339971D01*
X139649917Y-58344645D01*
X139651000Y-58355641D01*
X139651000Y-58644359D01*
X139649917Y-58655355D01*
X139648499Y-58660029D01*
X139646200Y-58664331D01*
X139643104Y-58668104D01*
X139639331Y-58671200D01*
X139635029Y-58673499D01*
X139630355Y-58674917D01*
X139619359Y-58676000D01*
X138780641Y-58676000D01*
X138769645Y-58674917D01*
X138764971Y-58673499D01*
X138760669Y-58671200D01*
X138756896Y-58668104D01*
X138753800Y-58664331D01*
X138751501Y-58660029D01*
X138750083Y-58655355D01*
X138749000Y-58644359D01*
X138749000Y-58355641D01*
X138750083Y-58344645D01*
X138751501Y-58339971D01*
X138753800Y-58335670D01*
X138759029Y-58329298D01*
X138772643Y-58308924D01*
X138782020Y-58286285D01*
X138786800Y-58262251D01*
X138786800Y-58237747D01*
X138782019Y-58213714D01*
X138772642Y-58191075D01*
X138759029Y-58170702D01*
X138753800Y-58164330D01*
X138751501Y-58160029D01*
X138750083Y-58155355D01*
X138749000Y-58144359D01*
X138749000Y-57855641D01*
X138750083Y-57844645D01*
X138751501Y-57839971D01*
X138753800Y-57835670D01*
X138759029Y-57829298D01*
X138772643Y-57808924D01*
X138782020Y-57786285D01*
X138786800Y-57762251D01*
X138786800Y-57737747D01*
X138782019Y-57713714D01*
X138772642Y-57691075D01*
X138759029Y-57670702D01*
X138753800Y-57664330D01*
X138751501Y-57660029D01*
X138750083Y-57655355D01*
X138749000Y-57644359D01*
X138749000Y-57355641D01*
X138750083Y-57344645D01*
X138751501Y-57339971D01*
X138753800Y-57335670D01*
X138759029Y-57329298D01*
X138772643Y-57308924D01*
X138782020Y-57286285D01*
X138786800Y-57262251D01*
X138786800Y-57237747D01*
X138782019Y-57213714D01*
X138772642Y-57191075D01*
X138759029Y-57170702D01*
X138753800Y-57164330D01*
X138751501Y-57160029D01*
X138750083Y-57155355D01*
X138749000Y-57144359D01*
X138749000Y-56855641D01*
X138750083Y-56844645D01*
X138751501Y-56839971D01*
X138753800Y-56835670D01*
X138759029Y-56829298D01*
X138772643Y-56808924D01*
X138782020Y-56786285D01*
X138786800Y-56762251D01*
X138786800Y-56737747D01*
X138782019Y-56713714D01*
X138772642Y-56691075D01*
X138759029Y-56670702D01*
X138753800Y-56664330D01*
X138751501Y-56660029D01*
X138750083Y-56655355D01*
X138749000Y-56644359D01*
X138749000Y-56355641D01*
X138750083Y-56344645D01*
X138751501Y-56339971D01*
X138753800Y-56335670D01*
X138759029Y-56329298D01*
X138772643Y-56308924D01*
X138782020Y-56286285D01*
X138786800Y-56262251D01*
X138786800Y-56237747D01*
X138782019Y-56213714D01*
X138772642Y-56191075D01*
X138759029Y-56170702D01*
X138753800Y-56164330D01*
X138751501Y-56160029D01*
X138750083Y-56155355D01*
X138749000Y-56144359D01*
X138749000Y-55855641D01*
X138750083Y-55844645D01*
X138751501Y-55839971D01*
X138753800Y-55835670D01*
X138759029Y-55829298D01*
X138772643Y-55808924D01*
X138782020Y-55786285D01*
X138786800Y-55762251D01*
X138786800Y-55737747D01*
X138782019Y-55713714D01*
X138772642Y-55691075D01*
X138759029Y-55670702D01*
X138753800Y-55664330D01*
X138751501Y-55660029D01*
X138750083Y-55655355D01*
X138749000Y-55644359D01*
X138749000Y-55355641D01*
X138750083Y-55344645D01*
X138751501Y-55339971D01*
X138753800Y-55335669D01*
X138756896Y-55331896D01*
X138760669Y-55328800D01*
X138764971Y-55326501D01*
X138769645Y-55325083D01*
X138780641Y-55324000D01*
X139619359Y-55324000D01*
X139630355Y-55325083D01*
G37*
G36*
X134730355Y-55325083D02*
G01*
X134735029Y-55326501D01*
X134739331Y-55328800D01*
X134743104Y-55331896D01*
X134746200Y-55335669D01*
X134748499Y-55339971D01*
X134749917Y-55344645D01*
X134751000Y-55355641D01*
X134751000Y-55644359D01*
X134749917Y-55655355D01*
X134748499Y-55660029D01*
X134746200Y-55664330D01*
X134740971Y-55670702D01*
X134727357Y-55691076D01*
X134717980Y-55713715D01*
X134713200Y-55737749D01*
X134713200Y-55762253D01*
X134717981Y-55786286D01*
X134727358Y-55808925D01*
X134740971Y-55829298D01*
X134746200Y-55835670D01*
X134748499Y-55839971D01*
X134749917Y-55844645D01*
X134751000Y-55855641D01*
X134751000Y-56144359D01*
X134749917Y-56155355D01*
X134748499Y-56160029D01*
X134746200Y-56164330D01*
X134740971Y-56170702D01*
X134727357Y-56191076D01*
X134717980Y-56213715D01*
X134713200Y-56237749D01*
X134713200Y-56262253D01*
X134717981Y-56286286D01*
X134727358Y-56308925D01*
X134740971Y-56329298D01*
X134746200Y-56335670D01*
X134748499Y-56339971D01*
X134749917Y-56344645D01*
X134751000Y-56355641D01*
X134751000Y-56644359D01*
X134749917Y-56655355D01*
X134748499Y-56660029D01*
X134746200Y-56664330D01*
X134740971Y-56670702D01*
X134727357Y-56691076D01*
X134717980Y-56713715D01*
X134713200Y-56737749D01*
X134713200Y-56762253D01*
X134717981Y-56786286D01*
X134727358Y-56808925D01*
X134740971Y-56829298D01*
X134746200Y-56835670D01*
X134748499Y-56839971D01*
X134749917Y-56844645D01*
X134751000Y-56855641D01*
X134751000Y-57144359D01*
X134749917Y-57155355D01*
X134748499Y-57160029D01*
X134746200Y-57164330D01*
X134740971Y-57170702D01*
X134727357Y-57191076D01*
X134717980Y-57213715D01*
X134713200Y-57237749D01*
X134713200Y-57262253D01*
X134717981Y-57286286D01*
X134727358Y-57308925D01*
X134740971Y-57329298D01*
X134746200Y-57335670D01*
X134748499Y-57339971D01*
X134749917Y-57344645D01*
X134751000Y-57355641D01*
X134751000Y-57644359D01*
X134749917Y-57655355D01*
X134748499Y-57660029D01*
X134746200Y-57664330D01*
X134740971Y-57670702D01*
X134727357Y-57691076D01*
X134717980Y-57713715D01*
X134713200Y-57737749D01*
X134713200Y-57762253D01*
X134717981Y-57786286D01*
X134727358Y-57808925D01*
X134740971Y-57829298D01*
X134746200Y-57835670D01*
X134748499Y-57839971D01*
X134749917Y-57844645D01*
X134751000Y-57855641D01*
X134751000Y-58144359D01*
X134749917Y-58155355D01*
X134748499Y-58160029D01*
X134746200Y-58164330D01*
X134740971Y-58170702D01*
X134727357Y-58191076D01*
X134717980Y-58213715D01*
X134713200Y-58237749D01*
X134713200Y-58262253D01*
X134717981Y-58286286D01*
X134727358Y-58308925D01*
X134740971Y-58329298D01*
X134746200Y-58335670D01*
X134748499Y-58339971D01*
X134749917Y-58344645D01*
X134751000Y-58355641D01*
X134751000Y-58644359D01*
X134749917Y-58655355D01*
X134748499Y-58660029D01*
X134746200Y-58664331D01*
X134743104Y-58668104D01*
X134739331Y-58671200D01*
X134735029Y-58673499D01*
X134730355Y-58674917D01*
X134719359Y-58676000D01*
X133880641Y-58676000D01*
X133869645Y-58674917D01*
X133864971Y-58673499D01*
X133860669Y-58671200D01*
X133856896Y-58668104D01*
X133853800Y-58664331D01*
X133851501Y-58660029D01*
X133850083Y-58655355D01*
X133849000Y-58644359D01*
X133849000Y-58355641D01*
X133850083Y-58344645D01*
X133851501Y-58339971D01*
X133853800Y-58335670D01*
X133859029Y-58329298D01*
X133872643Y-58308924D01*
X133882020Y-58286285D01*
X133886800Y-58262251D01*
X133886800Y-58237747D01*
X133882019Y-58213714D01*
X133872642Y-58191075D01*
X133859029Y-58170702D01*
X133853800Y-58164330D01*
X133851501Y-58160029D01*
X133850083Y-58155355D01*
X133849000Y-58144359D01*
X133849000Y-57855641D01*
X133850083Y-57844645D01*
X133851501Y-57839971D01*
X133853800Y-57835670D01*
X133859029Y-57829298D01*
X133872643Y-57808924D01*
X133882020Y-57786285D01*
X133886800Y-57762251D01*
X133886800Y-57737747D01*
X133882019Y-57713714D01*
X133872642Y-57691075D01*
X133859029Y-57670702D01*
X133853800Y-57664330D01*
X133851501Y-57660029D01*
X133850083Y-57655355D01*
X133849000Y-57644359D01*
X133849000Y-57355641D01*
X133850083Y-57344645D01*
X133851501Y-57339971D01*
X133853800Y-57335670D01*
X133859029Y-57329298D01*
X133872643Y-57308924D01*
X133882020Y-57286285D01*
X133886800Y-57262251D01*
X133886800Y-57237747D01*
X133882019Y-57213714D01*
X133872642Y-57191075D01*
X133859029Y-57170702D01*
X133853800Y-57164330D01*
X133851501Y-57160029D01*
X133850083Y-57155355D01*
X133849000Y-57144359D01*
X133849000Y-56855641D01*
X133850083Y-56844645D01*
X133851501Y-56839971D01*
X133853800Y-56835670D01*
X133859029Y-56829298D01*
X133872643Y-56808924D01*
X133882020Y-56786285D01*
X133886800Y-56762251D01*
X133886800Y-56737747D01*
X133882019Y-56713714D01*
X133872642Y-56691075D01*
X133859029Y-56670702D01*
X133853800Y-56664330D01*
X133851501Y-56660029D01*
X133850083Y-56655355D01*
X133849000Y-56644359D01*
X133849000Y-56355641D01*
X133850083Y-56344645D01*
X133851501Y-56339971D01*
X133853800Y-56335670D01*
X133859029Y-56329298D01*
X133872643Y-56308924D01*
X133882020Y-56286285D01*
X133886800Y-56262251D01*
X133886800Y-56237747D01*
X133882019Y-56213714D01*
X133872642Y-56191075D01*
X133859029Y-56170702D01*
X133853800Y-56164330D01*
X133851501Y-56160029D01*
X133850083Y-56155355D01*
X133849000Y-56144359D01*
X133849000Y-55855641D01*
X133850083Y-55844645D01*
X133851501Y-55839971D01*
X133853800Y-55835670D01*
X133859029Y-55829298D01*
X133872643Y-55808924D01*
X133882020Y-55786285D01*
X133886800Y-55762251D01*
X133886800Y-55737747D01*
X133882019Y-55713714D01*
X133872642Y-55691075D01*
X133859029Y-55670702D01*
X133853800Y-55664330D01*
X133851501Y-55660029D01*
X133850083Y-55655355D01*
X133849000Y-55644359D01*
X133849000Y-55355641D01*
X133850083Y-55344645D01*
X133851501Y-55339971D01*
X133853800Y-55335669D01*
X133856896Y-55331896D01*
X133860669Y-55328800D01*
X133864971Y-55326501D01*
X133869645Y-55325083D01*
X133880641Y-55324000D01*
X134719359Y-55324000D01*
X134730355Y-55325083D01*
G37*
G36*
X123603642Y-56229781D02*
G01*
X123749414Y-56290162D01*
X123749416Y-56290163D01*
X123880608Y-56377822D01*
X123992178Y-56489392D01*
X124058065Y-56588000D01*
X124079838Y-56620586D01*
X124140219Y-56766358D01*
X124171000Y-56921107D01*
X124171000Y-57078893D01*
X124140219Y-57233642D01*
X124097957Y-57335670D01*
X124079837Y-57379416D01*
X123992178Y-57510608D01*
X123880608Y-57622178D01*
X123749416Y-57709837D01*
X123749415Y-57709838D01*
X123749414Y-57709838D01*
X123603642Y-57770219D01*
X123448893Y-57801000D01*
X123291107Y-57801000D01*
X123136358Y-57770219D01*
X122990586Y-57709838D01*
X122990585Y-57709838D01*
X122990584Y-57709837D01*
X122859392Y-57622178D01*
X122747822Y-57510608D01*
X122660163Y-57379416D01*
X122642043Y-57335670D01*
X122599781Y-57233642D01*
X122569000Y-57078893D01*
X122569000Y-56921107D01*
X122599781Y-56766358D01*
X122660162Y-56620586D01*
X122681935Y-56588000D01*
X122747822Y-56489392D01*
X122859392Y-56377822D01*
X122990584Y-56290163D01*
X122990586Y-56290162D01*
X123136358Y-56229781D01*
X123291107Y-56199000D01*
X123448893Y-56199000D01*
X123603642Y-56229781D01*
G37*
G36*
X128483642Y-56229781D02*
G01*
X128629414Y-56290162D01*
X128629416Y-56290163D01*
X128760608Y-56377822D01*
X128872178Y-56489392D01*
X128938065Y-56588000D01*
X128959838Y-56620586D01*
X129020219Y-56766358D01*
X129051000Y-56921107D01*
X129051000Y-57078893D01*
X129020219Y-57233642D01*
X128977957Y-57335670D01*
X128959837Y-57379416D01*
X128872178Y-57510608D01*
X128760608Y-57622178D01*
X128629416Y-57709837D01*
X128629415Y-57709838D01*
X128629414Y-57709838D01*
X128483642Y-57770219D01*
X128328893Y-57801000D01*
X128171107Y-57801000D01*
X128016358Y-57770219D01*
X127870586Y-57709838D01*
X127870585Y-57709838D01*
X127870584Y-57709837D01*
X127739392Y-57622178D01*
X127627822Y-57510608D01*
X127540163Y-57379416D01*
X127522043Y-57335670D01*
X127479781Y-57233642D01*
X127449000Y-57078893D01*
X127449000Y-56921107D01*
X127479781Y-56766358D01*
X127540162Y-56620586D01*
X127561935Y-56588000D01*
X127627822Y-56489392D01*
X127739392Y-56377822D01*
X127870584Y-56290163D01*
X127870586Y-56290162D01*
X128016358Y-56229781D01*
X128171107Y-56199000D01*
X128328893Y-56199000D01*
X128483642Y-56229781D01*
G37*
G36*
X97256938Y-56881716D02*
G01*
X97277557Y-56887971D01*
X97296553Y-56898124D01*
X97313208Y-56911792D01*
X97326876Y-56928447D01*
X97337029Y-56947443D01*
X97343284Y-56968062D01*
X97346000Y-56995640D01*
X97346000Y-57504360D01*
X97343284Y-57531938D01*
X97337029Y-57552557D01*
X97326876Y-57571553D01*
X97313208Y-57588208D01*
X97296553Y-57601876D01*
X97277557Y-57612029D01*
X97256938Y-57618284D01*
X97229360Y-57621000D01*
X96770640Y-57621000D01*
X96743062Y-57618284D01*
X96722443Y-57612029D01*
X96703447Y-57601876D01*
X96686792Y-57588208D01*
X96673124Y-57571553D01*
X96662971Y-57552557D01*
X96656716Y-57531938D01*
X96654000Y-57504360D01*
X96654000Y-56995640D01*
X96656716Y-56968062D01*
X96662971Y-56947443D01*
X96673124Y-56928447D01*
X96686792Y-56911792D01*
X96703447Y-56898124D01*
X96722443Y-56887971D01*
X96743062Y-56881716D01*
X96770640Y-56879000D01*
X97229360Y-56879000D01*
X97256938Y-56881716D01*
G37*
G36*
X96286938Y-56881716D02*
G01*
X96307557Y-56887971D01*
X96326553Y-56898124D01*
X96343208Y-56911792D01*
X96356876Y-56928447D01*
X96367029Y-56947443D01*
X96373284Y-56968062D01*
X96376000Y-56995640D01*
X96376000Y-57504360D01*
X96373284Y-57531938D01*
X96367029Y-57552557D01*
X96356876Y-57571553D01*
X96343208Y-57588208D01*
X96326553Y-57601876D01*
X96307557Y-57612029D01*
X96286938Y-57618284D01*
X96259360Y-57621000D01*
X95800640Y-57621000D01*
X95773062Y-57618284D01*
X95752443Y-57612029D01*
X95733447Y-57601876D01*
X95716792Y-57588208D01*
X95703124Y-57571553D01*
X95692971Y-57552557D01*
X95686716Y-57531938D01*
X95684000Y-57504360D01*
X95684000Y-56995640D01*
X95686716Y-56968062D01*
X95692971Y-56947443D01*
X95703124Y-56928447D01*
X95716792Y-56911792D01*
X95733447Y-56898124D01*
X95752443Y-56887971D01*
X95773062Y-56881716D01*
X95800640Y-56879000D01*
X96259360Y-56879000D01*
X96286938Y-56881716D01*
G37*
G36*
X82613512Y-55313927D02*
G01*
X82762812Y-55343624D01*
X82926784Y-55411544D01*
X83074354Y-55510147D01*
X83199853Y-55635646D01*
X83298456Y-55783216D01*
X83366376Y-55947188D01*
X83401000Y-56121259D01*
X83401000Y-56298741D01*
X83366376Y-56472812D01*
X83298456Y-56636784D01*
X83199853Y-56784354D01*
X83074354Y-56909853D01*
X82926784Y-57008456D01*
X82762812Y-57076376D01*
X82618061Y-57105168D01*
X82588742Y-57111000D01*
X82411258Y-57111000D01*
X82381939Y-57105168D01*
X82237188Y-57076376D01*
X82073216Y-57008456D01*
X81925646Y-56909853D01*
X81800147Y-56784354D01*
X81701544Y-56636784D01*
X81633624Y-56472812D01*
X81599000Y-56298741D01*
X81599000Y-56121259D01*
X81633624Y-55947188D01*
X81701544Y-55783216D01*
X81800147Y-55635646D01*
X81925646Y-55510147D01*
X82073216Y-55411544D01*
X82237188Y-55343624D01*
X82386488Y-55313927D01*
X82411258Y-55309000D01*
X82588742Y-55309000D01*
X82613512Y-55313927D01*
G37*
G36*
X78863512Y-55313927D02*
G01*
X79012812Y-55343624D01*
X79176784Y-55411544D01*
X79324354Y-55510147D01*
X79449853Y-55635646D01*
X79548456Y-55783216D01*
X79616376Y-55947188D01*
X79651000Y-56121259D01*
X79651000Y-56298741D01*
X79616376Y-56472812D01*
X79548456Y-56636784D01*
X79449853Y-56784354D01*
X79324354Y-56909853D01*
X79176784Y-57008456D01*
X79012812Y-57076376D01*
X78868061Y-57105168D01*
X78838742Y-57111000D01*
X78661258Y-57111000D01*
X78631939Y-57105168D01*
X78487188Y-57076376D01*
X78323216Y-57008456D01*
X78175646Y-56909853D01*
X78050147Y-56784354D01*
X77951544Y-56636784D01*
X77883624Y-56472812D01*
X77849000Y-56298741D01*
X77849000Y-56121259D01*
X77883624Y-55947188D01*
X77951544Y-55783216D01*
X78050147Y-55635646D01*
X78175646Y-55510147D01*
X78323216Y-55411544D01*
X78487188Y-55343624D01*
X78636488Y-55313927D01*
X78661258Y-55309000D01*
X78838742Y-55309000D01*
X78863512Y-55313927D01*
G37*
G36*
X86363512Y-55313927D02*
G01*
X86512812Y-55343624D01*
X86676784Y-55411544D01*
X86824354Y-55510147D01*
X86949853Y-55635646D01*
X87048456Y-55783216D01*
X87116376Y-55947188D01*
X87151000Y-56121259D01*
X87151000Y-56298741D01*
X87116376Y-56472812D01*
X87048456Y-56636784D01*
X86949853Y-56784354D01*
X86824354Y-56909853D01*
X86676784Y-57008456D01*
X86512812Y-57076376D01*
X86368061Y-57105168D01*
X86338742Y-57111000D01*
X86161258Y-57111000D01*
X86131939Y-57105168D01*
X85987188Y-57076376D01*
X85823216Y-57008456D01*
X85675646Y-56909853D01*
X85550147Y-56784354D01*
X85451544Y-56636784D01*
X85383624Y-56472812D01*
X85349000Y-56298741D01*
X85349000Y-56121259D01*
X85383624Y-55947188D01*
X85451544Y-55783216D01*
X85550147Y-55635646D01*
X85675646Y-55510147D01*
X85823216Y-55411544D01*
X85987188Y-55343624D01*
X86136488Y-55313927D01*
X86161258Y-55309000D01*
X86338742Y-55309000D01*
X86363512Y-55313927D01*
G37*
G36*
X111651000Y-55901000D02*
G01*
X109849000Y-55901000D01*
X109849000Y-54099000D01*
X111651000Y-54099000D01*
X111651000Y-55901000D01*
G37*
G36*
X115931315Y-54101501D02*
G01*
X116092812Y-54133624D01*
X116256784Y-54201544D01*
X116404354Y-54300147D01*
X116529853Y-54425646D01*
X116628456Y-54573216D01*
X116696376Y-54737188D01*
X116731000Y-54911259D01*
X116731000Y-55088741D01*
X116696376Y-55262812D01*
X116628456Y-55426784D01*
X116529853Y-55574354D01*
X116404354Y-55699853D01*
X116256784Y-55798456D01*
X116092812Y-55866376D01*
X115949750Y-55894832D01*
X115918742Y-55901000D01*
X115741258Y-55901000D01*
X115710250Y-55894832D01*
X115567188Y-55866376D01*
X115403216Y-55798456D01*
X115255646Y-55699853D01*
X115130147Y-55574354D01*
X115031544Y-55426784D01*
X114963624Y-55262812D01*
X114929000Y-55088741D01*
X114929000Y-54911259D01*
X114963624Y-54737188D01*
X115031544Y-54573216D01*
X115130147Y-54425646D01*
X115255646Y-54300147D01*
X115403216Y-54201544D01*
X115567188Y-54133624D01*
X115728685Y-54101501D01*
X115741258Y-54099000D01*
X115918742Y-54099000D01*
X115931315Y-54101501D01*
G37*
G36*
X113391315Y-54101501D02*
G01*
X113552812Y-54133624D01*
X113716784Y-54201544D01*
X113864354Y-54300147D01*
X113989853Y-54425646D01*
X114088456Y-54573216D01*
X114156376Y-54737188D01*
X114191000Y-54911259D01*
X114191000Y-55088741D01*
X114156376Y-55262812D01*
X114088456Y-55426784D01*
X113989853Y-55574354D01*
X113864354Y-55699853D01*
X113716784Y-55798456D01*
X113552812Y-55866376D01*
X113409750Y-55894832D01*
X113378742Y-55901000D01*
X113201258Y-55901000D01*
X113170250Y-55894832D01*
X113027188Y-55866376D01*
X112863216Y-55798456D01*
X112715646Y-55699853D01*
X112590147Y-55574354D01*
X112491544Y-55426784D01*
X112423624Y-55262812D01*
X112389000Y-55088741D01*
X112389000Y-54911259D01*
X112423624Y-54737188D01*
X112491544Y-54573216D01*
X112590147Y-54425646D01*
X112715646Y-54300147D01*
X112863216Y-54201544D01*
X113027188Y-54133624D01*
X113188685Y-54101501D01*
X113201258Y-54099000D01*
X113378742Y-54099000D01*
X113391315Y-54101501D01*
G37*
G36*
X100163674Y-54253465D02*
G01*
X100201367Y-54264899D01*
X100236103Y-54283466D01*
X100266548Y-54308452D01*
X100291534Y-54338897D01*
X100310101Y-54373633D01*
X100321535Y-54411326D01*
X100326000Y-54456661D01*
X100326000Y-55543339D01*
X100321535Y-55588674D01*
X100310101Y-55626367D01*
X100291534Y-55661103D01*
X100266548Y-55691548D01*
X100236103Y-55716534D01*
X100201367Y-55735101D01*
X100163674Y-55746535D01*
X100118339Y-55751000D01*
X99281661Y-55751000D01*
X99236326Y-55746535D01*
X99198633Y-55735101D01*
X99163897Y-55716534D01*
X99133452Y-55691548D01*
X99108466Y-55661103D01*
X99089899Y-55626367D01*
X99078465Y-55588674D01*
X99074000Y-55543339D01*
X99074000Y-54456661D01*
X99078465Y-54411326D01*
X99089899Y-54373633D01*
X99108466Y-54338897D01*
X99133452Y-54308452D01*
X99163897Y-54283466D01*
X99198633Y-54264899D01*
X99236326Y-54253465D01*
X99281661Y-54249000D01*
X100118339Y-54249000D01*
X100163674Y-54253465D01*
G37*
G36*
X102213674Y-54253465D02*
G01*
X102251367Y-54264899D01*
X102286103Y-54283466D01*
X102316548Y-54308452D01*
X102341534Y-54338897D01*
X102360101Y-54373633D01*
X102371535Y-54411326D01*
X102376000Y-54456661D01*
X102376000Y-55543339D01*
X102371535Y-55588674D01*
X102360101Y-55626367D01*
X102341534Y-55661103D01*
X102316548Y-55691548D01*
X102286103Y-55716534D01*
X102251367Y-55735101D01*
X102213674Y-55746535D01*
X102168339Y-55751000D01*
X101331661Y-55751000D01*
X101286326Y-55746535D01*
X101248633Y-55735101D01*
X101213897Y-55716534D01*
X101183452Y-55691548D01*
X101158466Y-55661103D01*
X101139899Y-55626367D01*
X101128465Y-55588674D01*
X101124000Y-55543339D01*
X101124000Y-54456661D01*
X101128465Y-54411326D01*
X101139899Y-54373633D01*
X101158466Y-54338897D01*
X101183452Y-54308452D01*
X101213897Y-54283466D01*
X101248633Y-54264899D01*
X101286326Y-54253465D01*
X101331661Y-54249000D01*
X102168339Y-54249000D01*
X102213674Y-54253465D01*
G37*
G36*
X106371968Y-54253565D02*
G01*
X106410638Y-54265296D01*
X106446277Y-54284346D01*
X106477517Y-54309983D01*
X106503154Y-54341223D01*
X106522204Y-54376862D01*
X106533935Y-54415532D01*
X106538500Y-54461888D01*
X106538500Y-55538112D01*
X106533935Y-55584468D01*
X106522204Y-55623138D01*
X106503154Y-55658777D01*
X106477517Y-55690017D01*
X106446277Y-55715654D01*
X106410638Y-55734704D01*
X106371968Y-55746435D01*
X106325612Y-55751000D01*
X105674388Y-55751000D01*
X105628032Y-55746435D01*
X105589362Y-55734704D01*
X105553723Y-55715654D01*
X105522483Y-55690017D01*
X105496846Y-55658777D01*
X105477796Y-55623138D01*
X105466065Y-55584468D01*
X105461500Y-55538112D01*
X105461500Y-54461888D01*
X105466065Y-54415532D01*
X105477796Y-54376862D01*
X105496846Y-54341223D01*
X105522483Y-54309983D01*
X105553723Y-54284346D01*
X105589362Y-54265296D01*
X105628032Y-54253565D01*
X105674388Y-54249000D01*
X106325612Y-54249000D01*
X106371968Y-54253565D01*
G37*
G36*
X104496968Y-54253565D02*
G01*
X104535638Y-54265296D01*
X104571277Y-54284346D01*
X104602517Y-54309983D01*
X104628154Y-54341223D01*
X104647204Y-54376862D01*
X104658935Y-54415532D01*
X104663500Y-54461888D01*
X104663500Y-55538112D01*
X104658935Y-55584468D01*
X104647204Y-55623138D01*
X104628154Y-55658777D01*
X104602517Y-55690017D01*
X104571277Y-55715654D01*
X104535638Y-55734704D01*
X104496968Y-55746435D01*
X104450612Y-55751000D01*
X103799388Y-55751000D01*
X103753032Y-55746435D01*
X103714362Y-55734704D01*
X103678723Y-55715654D01*
X103647483Y-55690017D01*
X103621846Y-55658777D01*
X103602796Y-55623138D01*
X103591065Y-55584468D01*
X103586500Y-55538112D01*
X103586500Y-54461888D01*
X103591065Y-54415532D01*
X103602796Y-54376862D01*
X103621846Y-54341223D01*
X103647483Y-54309983D01*
X103678723Y-54284346D01*
X103714362Y-54265296D01*
X103753032Y-54253565D01*
X103799388Y-54249000D01*
X104450612Y-54249000D01*
X104496968Y-54253565D01*
G37*
G36*
X96342091Y-54478085D02*
G01*
X96376069Y-54488393D01*
X96407390Y-54505134D01*
X96434839Y-54527661D01*
X96457366Y-54555110D01*
X96474107Y-54586431D01*
X96484415Y-54620409D01*
X96488500Y-54661890D01*
X96488500Y-55338110D01*
X96484415Y-55379591D01*
X96474107Y-55413569D01*
X96457366Y-55444890D01*
X96434839Y-55472339D01*
X96407390Y-55494866D01*
X96376069Y-55511607D01*
X96342091Y-55521915D01*
X96300610Y-55526000D01*
X95699390Y-55526000D01*
X95657909Y-55521915D01*
X95623931Y-55511607D01*
X95592610Y-55494866D01*
X95565161Y-55472339D01*
X95542634Y-55444890D01*
X95525893Y-55413569D01*
X95515585Y-55379591D01*
X95511500Y-55338110D01*
X95511500Y-54661890D01*
X95515585Y-54620409D01*
X95525893Y-54586431D01*
X95542634Y-54555110D01*
X95565161Y-54527661D01*
X95592610Y-54505134D01*
X95623931Y-54488393D01*
X95657909Y-54478085D01*
X95699390Y-54474000D01*
X96300610Y-54474000D01*
X96342091Y-54478085D01*
G37*
G36*
X97917091Y-54478085D02*
G01*
X97951069Y-54488393D01*
X97982390Y-54505134D01*
X98009839Y-54527661D01*
X98032366Y-54555110D01*
X98049107Y-54586431D01*
X98059415Y-54620409D01*
X98063500Y-54661890D01*
X98063500Y-55338110D01*
X98059415Y-55379591D01*
X98049107Y-55413569D01*
X98032366Y-55444890D01*
X98009839Y-55472339D01*
X97982390Y-55494866D01*
X97951069Y-55511607D01*
X97917091Y-55521915D01*
X97875610Y-55526000D01*
X97274390Y-55526000D01*
X97232909Y-55521915D01*
X97198931Y-55511607D01*
X97167610Y-55494866D01*
X97140161Y-55472339D01*
X97117634Y-55444890D01*
X97100893Y-55413569D01*
X97090585Y-55379591D01*
X97086500Y-55338110D01*
X97086500Y-54661890D01*
X97090585Y-54620409D01*
X97100893Y-54586431D01*
X97117634Y-54555110D01*
X97140161Y-54527661D01*
X97167610Y-54505134D01*
X97198931Y-54488393D01*
X97232909Y-54478085D01*
X97274390Y-54474000D01*
X97875610Y-54474000D01*
X97917091Y-54478085D01*
G37*
G36*
X135405355Y-54100083D02*
G01*
X135410029Y-54101501D01*
X135414330Y-54103800D01*
X135420702Y-54109029D01*
X135441076Y-54122643D01*
X135463715Y-54132020D01*
X135487749Y-54136800D01*
X135512253Y-54136800D01*
X135536286Y-54132019D01*
X135558925Y-54122642D01*
X135579298Y-54109029D01*
X135585670Y-54103800D01*
X135589971Y-54101501D01*
X135594645Y-54100083D01*
X135605641Y-54099000D01*
X135894359Y-54099000D01*
X135905355Y-54100083D01*
X135910029Y-54101501D01*
X135914330Y-54103800D01*
X135920702Y-54109029D01*
X135941076Y-54122643D01*
X135963715Y-54132020D01*
X135987749Y-54136800D01*
X136012253Y-54136800D01*
X136036286Y-54132019D01*
X136058925Y-54122642D01*
X136079298Y-54109029D01*
X136085670Y-54103800D01*
X136089971Y-54101501D01*
X136094645Y-54100083D01*
X136105641Y-54099000D01*
X136394359Y-54099000D01*
X136405355Y-54100083D01*
X136410029Y-54101501D01*
X136414330Y-54103800D01*
X136420702Y-54109029D01*
X136441076Y-54122643D01*
X136463715Y-54132020D01*
X136487749Y-54136800D01*
X136512253Y-54136800D01*
X136536286Y-54132019D01*
X136558925Y-54122642D01*
X136579298Y-54109029D01*
X136585670Y-54103800D01*
X136589971Y-54101501D01*
X136594645Y-54100083D01*
X136605641Y-54099000D01*
X136894359Y-54099000D01*
X136905355Y-54100083D01*
X136910029Y-54101501D01*
X136914330Y-54103800D01*
X136920702Y-54109029D01*
X136941076Y-54122643D01*
X136963715Y-54132020D01*
X136987749Y-54136800D01*
X137012253Y-54136800D01*
X137036286Y-54132019D01*
X137058925Y-54122642D01*
X137079298Y-54109029D01*
X137085670Y-54103800D01*
X137089971Y-54101501D01*
X137094645Y-54100083D01*
X137105641Y-54099000D01*
X137394359Y-54099000D01*
X137405355Y-54100083D01*
X137410029Y-54101501D01*
X137414330Y-54103800D01*
X137420702Y-54109029D01*
X137441076Y-54122643D01*
X137463715Y-54132020D01*
X137487749Y-54136800D01*
X137512253Y-54136800D01*
X137536286Y-54132019D01*
X137558925Y-54122642D01*
X137579298Y-54109029D01*
X137585670Y-54103800D01*
X137589971Y-54101501D01*
X137594645Y-54100083D01*
X137605641Y-54099000D01*
X137894359Y-54099000D01*
X137905355Y-54100083D01*
X137910029Y-54101501D01*
X137914330Y-54103800D01*
X137920702Y-54109029D01*
X137941076Y-54122643D01*
X137963715Y-54132020D01*
X137987749Y-54136800D01*
X138012253Y-54136800D01*
X138036286Y-54132019D01*
X138058925Y-54122642D01*
X138079298Y-54109029D01*
X138085670Y-54103800D01*
X138089971Y-54101501D01*
X138094645Y-54100083D01*
X138105641Y-54099000D01*
X138394359Y-54099000D01*
X138405355Y-54100083D01*
X138410029Y-54101501D01*
X138414331Y-54103800D01*
X138418104Y-54106896D01*
X138421200Y-54110669D01*
X138423499Y-54114971D01*
X138424917Y-54119645D01*
X138426000Y-54130641D01*
X138426000Y-54969359D01*
X138424917Y-54980355D01*
X138423499Y-54985029D01*
X138421200Y-54989331D01*
X138418104Y-54993104D01*
X138414331Y-54996200D01*
X138410029Y-54998499D01*
X138405355Y-54999917D01*
X138394359Y-55001000D01*
X138105641Y-55001000D01*
X138094645Y-54999917D01*
X138089971Y-54998499D01*
X138085670Y-54996200D01*
X138079298Y-54990971D01*
X138058924Y-54977357D01*
X138036285Y-54967980D01*
X138012251Y-54963200D01*
X137987747Y-54963200D01*
X137963714Y-54967981D01*
X137941075Y-54977358D01*
X137920702Y-54990971D01*
X137914330Y-54996200D01*
X137910029Y-54998499D01*
X137905355Y-54999917D01*
X137894359Y-55001000D01*
X137605641Y-55001000D01*
X137594645Y-54999917D01*
X137589971Y-54998499D01*
X137585670Y-54996200D01*
X137579298Y-54990971D01*
X137558924Y-54977357D01*
X137536285Y-54967980D01*
X137512251Y-54963200D01*
X137487747Y-54963200D01*
X137463714Y-54967981D01*
X137441075Y-54977358D01*
X137420702Y-54990971D01*
X137414330Y-54996200D01*
X137410029Y-54998499D01*
X137405355Y-54999917D01*
X137394359Y-55001000D01*
X137105641Y-55001000D01*
X137094645Y-54999917D01*
X137089971Y-54998499D01*
X137085670Y-54996200D01*
X137079298Y-54990971D01*
X137058924Y-54977357D01*
X137036285Y-54967980D01*
X137012251Y-54963200D01*
X136987747Y-54963200D01*
X136963714Y-54967981D01*
X136941075Y-54977358D01*
X136920702Y-54990971D01*
X136914330Y-54996200D01*
X136910029Y-54998499D01*
X136905355Y-54999917D01*
X136894359Y-55001000D01*
X136605641Y-55001000D01*
X136594645Y-54999917D01*
X136589971Y-54998499D01*
X136585670Y-54996200D01*
X136579298Y-54990971D01*
X136558924Y-54977357D01*
X136536285Y-54967980D01*
X136512251Y-54963200D01*
X136487747Y-54963200D01*
X136463714Y-54967981D01*
X136441075Y-54977358D01*
X136420702Y-54990971D01*
X136414330Y-54996200D01*
X136410029Y-54998499D01*
X136405355Y-54999917D01*
X136394359Y-55001000D01*
X136105641Y-55001000D01*
X136094645Y-54999917D01*
X136089971Y-54998499D01*
X136085670Y-54996200D01*
X136079298Y-54990971D01*
X136058924Y-54977357D01*
X136036285Y-54967980D01*
X136012251Y-54963200D01*
X135987747Y-54963200D01*
X135963714Y-54967981D01*
X135941075Y-54977358D01*
X135920702Y-54990971D01*
X135914330Y-54996200D01*
X135910029Y-54998499D01*
X135905355Y-54999917D01*
X135894359Y-55001000D01*
X135605641Y-55001000D01*
X135594645Y-54999917D01*
X135589971Y-54998499D01*
X135585670Y-54996200D01*
X135579298Y-54990971D01*
X135558924Y-54977357D01*
X135536285Y-54967980D01*
X135512251Y-54963200D01*
X135487747Y-54963200D01*
X135463714Y-54967981D01*
X135441075Y-54977358D01*
X135420702Y-54990971D01*
X135414330Y-54996200D01*
X135410029Y-54998499D01*
X135405355Y-54999917D01*
X135394359Y-55001000D01*
X135105641Y-55001000D01*
X135094645Y-54999917D01*
X135089971Y-54998499D01*
X135085669Y-54996200D01*
X135081896Y-54993104D01*
X135078800Y-54989331D01*
X135076501Y-54985029D01*
X135075083Y-54980355D01*
X135074000Y-54969359D01*
X135074000Y-54130641D01*
X135075083Y-54119645D01*
X135076501Y-54114971D01*
X135078800Y-54110669D01*
X135081896Y-54106896D01*
X135085669Y-54103800D01*
X135089971Y-54101501D01*
X135094645Y-54100083D01*
X135105641Y-54099000D01*
X135394359Y-54099000D01*
X135405355Y-54100083D01*
G37*
G36*
X143306564Y-51989389D02*
G01*
X143497833Y-52068615D01*
X143497835Y-52068616D01*
X143601632Y-52137971D01*
X143669973Y-52183635D01*
X143816365Y-52330027D01*
X143931385Y-52502167D01*
X144010611Y-52693436D01*
X144051000Y-52896484D01*
X144051000Y-53103516D01*
X144010611Y-53306564D01*
X143931385Y-53497833D01*
X143931384Y-53497835D01*
X143816365Y-53669973D01*
X143669973Y-53816365D01*
X143497835Y-53931384D01*
X143497834Y-53931385D01*
X143497833Y-53931385D01*
X143306564Y-54010611D01*
X143103516Y-54051000D01*
X142896484Y-54051000D01*
X142693436Y-54010611D01*
X142502167Y-53931385D01*
X142502166Y-53931385D01*
X142502165Y-53931384D01*
X142330027Y-53816365D01*
X142183635Y-53669973D01*
X142068616Y-53497835D01*
X142068615Y-53497833D01*
X141989389Y-53306564D01*
X141949000Y-53103516D01*
X141949000Y-52896484D01*
X141989389Y-52693436D01*
X142068615Y-52502167D01*
X142183635Y-52330027D01*
X142330027Y-52183635D01*
X142398368Y-52137971D01*
X142502165Y-52068616D01*
X142502167Y-52068615D01*
X142693436Y-51989389D01*
X142896484Y-51949000D01*
X143103516Y-51949000D01*
X143306564Y-51989389D01*
G37*
G36*
X147806564Y-51989389D02*
G01*
X147997833Y-52068615D01*
X147997835Y-52068616D01*
X148101632Y-52137971D01*
X148169973Y-52183635D01*
X148316365Y-52330027D01*
X148431385Y-52502167D01*
X148510611Y-52693436D01*
X148551000Y-52896484D01*
X148551000Y-53103516D01*
X148510611Y-53306564D01*
X148431385Y-53497833D01*
X148431384Y-53497835D01*
X148316365Y-53669973D01*
X148169973Y-53816365D01*
X147997835Y-53931384D01*
X147997834Y-53931385D01*
X147997833Y-53931385D01*
X147806564Y-54010611D01*
X147603516Y-54051000D01*
X147396484Y-54051000D01*
X147193436Y-54010611D01*
X147002167Y-53931385D01*
X147002166Y-53931385D01*
X147002165Y-53931384D01*
X146830027Y-53816365D01*
X146683635Y-53669973D01*
X146568616Y-53497835D01*
X146568615Y-53497833D01*
X146489389Y-53306564D01*
X146449000Y-53103516D01*
X146449000Y-52896484D01*
X146489389Y-52693436D01*
X146568615Y-52502167D01*
X146683635Y-52330027D01*
X146830027Y-52183635D01*
X146898368Y-52137971D01*
X147002165Y-52068616D01*
X147002167Y-52068615D01*
X147193436Y-51989389D01*
X147396484Y-51949000D01*
X147603516Y-51949000D01*
X147806564Y-51989389D01*
G37*
G36*
X140726938Y-52631716D02*
G01*
X140747557Y-52637971D01*
X140766553Y-52648124D01*
X140783208Y-52661792D01*
X140796876Y-52678447D01*
X140807029Y-52697443D01*
X140813284Y-52718062D01*
X140816000Y-52745640D01*
X140816000Y-53254360D01*
X140813284Y-53281938D01*
X140807029Y-53302557D01*
X140796876Y-53321553D01*
X140783208Y-53338208D01*
X140766553Y-53351876D01*
X140747557Y-53362029D01*
X140726938Y-53368284D01*
X140699360Y-53371000D01*
X140240640Y-53371000D01*
X140213062Y-53368284D01*
X140192443Y-53362029D01*
X140173447Y-53351876D01*
X140156792Y-53338208D01*
X140143124Y-53321553D01*
X140132971Y-53302557D01*
X140126716Y-53281938D01*
X140124000Y-53254360D01*
X140124000Y-52745640D01*
X140126716Y-52718062D01*
X140132971Y-52697443D01*
X140143124Y-52678447D01*
X140156792Y-52661792D01*
X140173447Y-52648124D01*
X140192443Y-52637971D01*
X140213062Y-52631716D01*
X140240640Y-52629000D01*
X140699360Y-52629000D01*
X140726938Y-52631716D01*
G37*
G36*
X139756938Y-52631716D02*
G01*
X139777557Y-52637971D01*
X139796553Y-52648124D01*
X139813208Y-52661792D01*
X139826876Y-52678447D01*
X139837029Y-52697443D01*
X139843284Y-52718062D01*
X139846000Y-52745640D01*
X139846000Y-53254360D01*
X139843284Y-53281938D01*
X139837029Y-53302557D01*
X139826876Y-53321553D01*
X139813208Y-53338208D01*
X139796553Y-53351876D01*
X139777557Y-53362029D01*
X139756938Y-53368284D01*
X139729360Y-53371000D01*
X139270640Y-53371000D01*
X139243062Y-53368284D01*
X139222443Y-53362029D01*
X139203447Y-53351876D01*
X139186792Y-53338208D01*
X139173124Y-53321553D01*
X139162971Y-53302557D01*
X139156716Y-53281938D01*
X139154000Y-53254360D01*
X139154000Y-52745640D01*
X139156716Y-52718062D01*
X139162971Y-52697443D01*
X139173124Y-52678447D01*
X139186792Y-52661792D01*
X139203447Y-52648124D01*
X139222443Y-52637971D01*
X139243062Y-52631716D01*
X139270640Y-52629000D01*
X139729360Y-52629000D01*
X139756938Y-52631716D01*
G37*
G36*
X126521938Y-52131716D02*
G01*
X126542557Y-52137971D01*
X126561553Y-52148124D01*
X126578208Y-52161792D01*
X126591876Y-52178447D01*
X126602029Y-52197443D01*
X126608284Y-52218062D01*
X126611000Y-52245640D01*
X126611000Y-52754360D01*
X126608284Y-52781938D01*
X126602029Y-52802557D01*
X126591876Y-52821553D01*
X126578208Y-52838208D01*
X126561553Y-52851876D01*
X126542557Y-52862029D01*
X126521938Y-52868284D01*
X126494360Y-52871000D01*
X126035640Y-52871000D01*
X126008062Y-52868284D01*
X125987443Y-52862029D01*
X125968447Y-52851876D01*
X125951792Y-52838208D01*
X125938124Y-52821553D01*
X125927971Y-52802557D01*
X125921716Y-52781938D01*
X125919000Y-52754360D01*
X125919000Y-52245640D01*
X125921716Y-52218062D01*
X125927971Y-52197443D01*
X125938124Y-52178447D01*
X125951792Y-52161792D01*
X125968447Y-52148124D01*
X125987443Y-52137971D01*
X126008062Y-52131716D01*
X126035640Y-52129000D01*
X126494360Y-52129000D01*
X126521938Y-52131716D01*
G37*
G36*
X127491938Y-52131716D02*
G01*
X127512557Y-52137971D01*
X127531553Y-52148124D01*
X127548208Y-52161792D01*
X127561876Y-52178447D01*
X127572029Y-52197443D01*
X127578284Y-52218062D01*
X127581000Y-52245640D01*
X127581000Y-52754360D01*
X127578284Y-52781938D01*
X127572029Y-52802557D01*
X127561876Y-52821553D01*
X127548208Y-52838208D01*
X127531553Y-52851876D01*
X127512557Y-52862029D01*
X127491938Y-52868284D01*
X127464360Y-52871000D01*
X127005640Y-52871000D01*
X126978062Y-52868284D01*
X126957443Y-52862029D01*
X126938447Y-52851876D01*
X126921792Y-52838208D01*
X126908124Y-52821553D01*
X126897971Y-52802557D01*
X126891716Y-52781938D01*
X126889000Y-52754360D01*
X126889000Y-52245640D01*
X126891716Y-52218062D01*
X126897971Y-52197443D01*
X126908124Y-52178447D01*
X126921792Y-52161792D01*
X126938447Y-52148124D01*
X126957443Y-52137971D01*
X126978062Y-52131716D01*
X127005640Y-52129000D01*
X127464360Y-52129000D01*
X127491938Y-52131716D01*
G37*
G36*
X124256938Y-52131716D02*
G01*
X124277557Y-52137971D01*
X124296553Y-52148124D01*
X124313208Y-52161792D01*
X124326876Y-52178447D01*
X124337029Y-52197443D01*
X124343284Y-52218062D01*
X124346000Y-52245640D01*
X124346000Y-52754360D01*
X124343284Y-52781938D01*
X124337029Y-52802557D01*
X124326876Y-52821553D01*
X124313208Y-52838208D01*
X124296553Y-52851876D01*
X124277557Y-52862029D01*
X124256938Y-52868284D01*
X124229360Y-52871000D01*
X123770640Y-52871000D01*
X123743062Y-52868284D01*
X123722443Y-52862029D01*
X123703447Y-52851876D01*
X123686792Y-52838208D01*
X123673124Y-52821553D01*
X123662971Y-52802557D01*
X123656716Y-52781938D01*
X123654000Y-52754360D01*
X123654000Y-52245640D01*
X123656716Y-52218062D01*
X123662971Y-52197443D01*
X123673124Y-52178447D01*
X123686792Y-52161792D01*
X123703447Y-52148124D01*
X123722443Y-52137971D01*
X123743062Y-52131716D01*
X123770640Y-52129000D01*
X124229360Y-52129000D01*
X124256938Y-52131716D01*
G37*
G36*
X125226938Y-52131716D02*
G01*
X125247557Y-52137971D01*
X125266553Y-52148124D01*
X125283208Y-52161792D01*
X125296876Y-52178447D01*
X125307029Y-52197443D01*
X125313284Y-52218062D01*
X125316000Y-52245640D01*
X125316000Y-52754360D01*
X125313284Y-52781938D01*
X125307029Y-52802557D01*
X125296876Y-52821553D01*
X125283208Y-52838208D01*
X125266553Y-52851876D01*
X125247557Y-52862029D01*
X125226938Y-52868284D01*
X125199360Y-52871000D01*
X124740640Y-52871000D01*
X124713062Y-52868284D01*
X124692443Y-52862029D01*
X124673447Y-52851876D01*
X124656792Y-52838208D01*
X124643124Y-52821553D01*
X124632971Y-52802557D01*
X124626716Y-52781938D01*
X124624000Y-52754360D01*
X124624000Y-52245640D01*
X124626716Y-52218062D01*
X124632971Y-52197443D01*
X124643124Y-52178447D01*
X124656792Y-52161792D01*
X124673447Y-52148124D01*
X124692443Y-52137971D01*
X124713062Y-52131716D01*
X124740640Y-52129000D01*
X125199360Y-52129000D01*
X125226938Y-52131716D01*
G37*
G36*
X98401000Y-49401000D02*
G01*
X96599000Y-49401000D01*
X96599000Y-47599000D01*
X98401000Y-47599000D01*
X98401000Y-49401000D01*
G37*
G36*
X142993512Y-47603927D02*
G01*
X143142812Y-47633624D01*
X143306784Y-47701544D01*
X143454354Y-47800147D01*
X143579853Y-47925646D01*
X143678456Y-48073216D01*
X143746376Y-48237188D01*
X143781000Y-48411259D01*
X143781000Y-48588741D01*
X143746376Y-48762812D01*
X143678456Y-48926784D01*
X143579853Y-49074354D01*
X143454354Y-49199853D01*
X143306784Y-49298456D01*
X143142812Y-49366376D01*
X142993512Y-49396073D01*
X142968742Y-49401000D01*
X142791258Y-49401000D01*
X142766488Y-49396073D01*
X142617188Y-49366376D01*
X142453216Y-49298456D01*
X142305646Y-49199853D01*
X142180147Y-49074354D01*
X142081544Y-48926784D01*
X142013624Y-48762812D01*
X141979000Y-48588741D01*
X141979000Y-48411259D01*
X142013624Y-48237188D01*
X142081544Y-48073216D01*
X142180147Y-47925646D01*
X142305646Y-47800147D01*
X142453216Y-47701544D01*
X142617188Y-47633624D01*
X142766488Y-47603927D01*
X142791258Y-47599000D01*
X142968742Y-47599000D01*
X142993512Y-47603927D01*
G37*
G36*
X108873512Y-47603927D02*
G01*
X109022812Y-47633624D01*
X109186784Y-47701544D01*
X109334354Y-47800147D01*
X109459853Y-47925646D01*
X109558456Y-48073216D01*
X109626376Y-48237188D01*
X109661000Y-48411259D01*
X109661000Y-48588741D01*
X109626376Y-48762812D01*
X109558456Y-48926784D01*
X109459853Y-49074354D01*
X109334354Y-49199853D01*
X109186784Y-49298456D01*
X109022812Y-49366376D01*
X108873512Y-49396073D01*
X108848742Y-49401000D01*
X108671258Y-49401000D01*
X108646488Y-49396073D01*
X108497188Y-49366376D01*
X108333216Y-49298456D01*
X108185646Y-49199853D01*
X108060147Y-49074354D01*
X107961544Y-48926784D01*
X107893624Y-48762812D01*
X107859000Y-48588741D01*
X107859000Y-48411259D01*
X107893624Y-48237188D01*
X107961544Y-48073216D01*
X108060147Y-47925646D01*
X108185646Y-47800147D01*
X108333216Y-47701544D01*
X108497188Y-47633624D01*
X108646488Y-47603927D01*
X108671258Y-47599000D01*
X108848742Y-47599000D01*
X108873512Y-47603927D01*
G37*
G36*
X106333512Y-47603927D02*
G01*
X106482812Y-47633624D01*
X106646784Y-47701544D01*
X106794354Y-47800147D01*
X106919853Y-47925646D01*
X107018456Y-48073216D01*
X107086376Y-48237188D01*
X107121000Y-48411259D01*
X107121000Y-48588741D01*
X107086376Y-48762812D01*
X107018456Y-48926784D01*
X106919853Y-49074354D01*
X106794354Y-49199853D01*
X106646784Y-49298456D01*
X106482812Y-49366376D01*
X106333512Y-49396073D01*
X106308742Y-49401000D01*
X106131258Y-49401000D01*
X106106488Y-49396073D01*
X105957188Y-49366376D01*
X105793216Y-49298456D01*
X105645646Y-49199853D01*
X105520147Y-49074354D01*
X105421544Y-48926784D01*
X105353624Y-48762812D01*
X105319000Y-48588741D01*
X105319000Y-48411259D01*
X105353624Y-48237188D01*
X105421544Y-48073216D01*
X105520147Y-47925646D01*
X105645646Y-47800147D01*
X105793216Y-47701544D01*
X105957188Y-47633624D01*
X106106488Y-47603927D01*
X106131258Y-47599000D01*
X106308742Y-47599000D01*
X106333512Y-47603927D01*
G37*
G36*
X103793512Y-47603927D02*
G01*
X103942812Y-47633624D01*
X104106784Y-47701544D01*
X104254354Y-47800147D01*
X104379853Y-47925646D01*
X104478456Y-48073216D01*
X104546376Y-48237188D01*
X104581000Y-48411259D01*
X104581000Y-48588741D01*
X104546376Y-48762812D01*
X104478456Y-48926784D01*
X104379853Y-49074354D01*
X104254354Y-49199853D01*
X104106784Y-49298456D01*
X103942812Y-49366376D01*
X103793512Y-49396073D01*
X103768742Y-49401000D01*
X103591258Y-49401000D01*
X103566488Y-49396073D01*
X103417188Y-49366376D01*
X103253216Y-49298456D01*
X103105646Y-49199853D01*
X102980147Y-49074354D01*
X102881544Y-48926784D01*
X102813624Y-48762812D01*
X102779000Y-48588741D01*
X102779000Y-48411259D01*
X102813624Y-48237188D01*
X102881544Y-48073216D01*
X102980147Y-47925646D01*
X103105646Y-47800147D01*
X103253216Y-47701544D01*
X103417188Y-47633624D01*
X103566488Y-47603927D01*
X103591258Y-47599000D01*
X103768742Y-47599000D01*
X103793512Y-47603927D01*
G37*
G36*
X101253512Y-47603927D02*
G01*
X101402812Y-47633624D01*
X101566784Y-47701544D01*
X101714354Y-47800147D01*
X101839853Y-47925646D01*
X101938456Y-48073216D01*
X102006376Y-48237188D01*
X102041000Y-48411259D01*
X102041000Y-48588741D01*
X102006376Y-48762812D01*
X101938456Y-48926784D01*
X101839853Y-49074354D01*
X101714354Y-49199853D01*
X101566784Y-49298456D01*
X101402812Y-49366376D01*
X101253512Y-49396073D01*
X101228742Y-49401000D01*
X101051258Y-49401000D01*
X101026488Y-49396073D01*
X100877188Y-49366376D01*
X100713216Y-49298456D01*
X100565646Y-49199853D01*
X100440147Y-49074354D01*
X100341544Y-48926784D01*
X100273624Y-48762812D01*
X100239000Y-48588741D01*
X100239000Y-48411259D01*
X100273624Y-48237188D01*
X100341544Y-48073216D01*
X100440147Y-47925646D01*
X100565646Y-47800147D01*
X100713216Y-47701544D01*
X100877188Y-47633624D01*
X101026488Y-47603927D01*
X101051258Y-47599000D01*
X101228742Y-47599000D01*
X101253512Y-47603927D01*
G37*
G36*
X74753512Y-47603927D02*
G01*
X74902812Y-47633624D01*
X75066784Y-47701544D01*
X75214354Y-47800147D01*
X75339853Y-47925646D01*
X75438456Y-48073216D01*
X75506376Y-48237188D01*
X75541000Y-48411259D01*
X75541000Y-48588741D01*
X75506376Y-48762812D01*
X75438456Y-48926784D01*
X75339853Y-49074354D01*
X75214354Y-49199853D01*
X75066784Y-49298456D01*
X74902812Y-49366376D01*
X74753512Y-49396073D01*
X74728742Y-49401000D01*
X74551258Y-49401000D01*
X74526488Y-49396073D01*
X74377188Y-49366376D01*
X74213216Y-49298456D01*
X74065646Y-49199853D01*
X73940147Y-49074354D01*
X73841544Y-48926784D01*
X73773624Y-48762812D01*
X73739000Y-48588741D01*
X73739000Y-48411259D01*
X73773624Y-48237188D01*
X73841544Y-48073216D01*
X73940147Y-47925646D01*
X74065646Y-47800147D01*
X74213216Y-47701544D01*
X74377188Y-47633624D01*
X74526488Y-47603927D01*
X74551258Y-47599000D01*
X74728742Y-47599000D01*
X74753512Y-47603927D01*
G37*
G36*
X77293512Y-47603927D02*
G01*
X77442812Y-47633624D01*
X77606784Y-47701544D01*
X77754354Y-47800147D01*
X77879853Y-47925646D01*
X77978456Y-48073216D01*
X78046376Y-48237188D01*
X78081000Y-48411259D01*
X78081000Y-48588741D01*
X78046376Y-48762812D01*
X77978456Y-48926784D01*
X77879853Y-49074354D01*
X77754354Y-49199853D01*
X77606784Y-49298456D01*
X77442812Y-49366376D01*
X77293512Y-49396073D01*
X77268742Y-49401000D01*
X77091258Y-49401000D01*
X77066488Y-49396073D01*
X76917188Y-49366376D01*
X76753216Y-49298456D01*
X76605646Y-49199853D01*
X76480147Y-49074354D01*
X76381544Y-48926784D01*
X76313624Y-48762812D01*
X76279000Y-48588741D01*
X76279000Y-48411259D01*
X76313624Y-48237188D01*
X76381544Y-48073216D01*
X76480147Y-47925646D01*
X76605646Y-47800147D01*
X76753216Y-47701544D01*
X76917188Y-47633624D01*
X77066488Y-47603927D01*
X77091258Y-47599000D01*
X77268742Y-47599000D01*
X77293512Y-47603927D01*
G37*
G36*
X79833512Y-47603927D02*
G01*
X79982812Y-47633624D01*
X80146784Y-47701544D01*
X80294354Y-47800147D01*
X80419853Y-47925646D01*
X80518456Y-48073216D01*
X80586376Y-48237188D01*
X80621000Y-48411259D01*
X80621000Y-48588741D01*
X80586376Y-48762812D01*
X80518456Y-48926784D01*
X80419853Y-49074354D01*
X80294354Y-49199853D01*
X80146784Y-49298456D01*
X79982812Y-49366376D01*
X79833512Y-49396073D01*
X79808742Y-49401000D01*
X79631258Y-49401000D01*
X79606488Y-49396073D01*
X79457188Y-49366376D01*
X79293216Y-49298456D01*
X79145646Y-49199853D01*
X79020147Y-49074354D01*
X78921544Y-48926784D01*
X78853624Y-48762812D01*
X78819000Y-48588741D01*
X78819000Y-48411259D01*
X78853624Y-48237188D01*
X78921544Y-48073216D01*
X79020147Y-47925646D01*
X79145646Y-47800147D01*
X79293216Y-47701544D01*
X79457188Y-47633624D01*
X79606488Y-47603927D01*
X79631258Y-47599000D01*
X79808742Y-47599000D01*
X79833512Y-47603927D01*
G37*
G36*
X82373512Y-47603927D02*
G01*
X82522812Y-47633624D01*
X82686784Y-47701544D01*
X82834354Y-47800147D01*
X82959853Y-47925646D01*
X83058456Y-48073216D01*
X83126376Y-48237188D01*
X83161000Y-48411259D01*
X83161000Y-48588741D01*
X83126376Y-48762812D01*
X83058456Y-48926784D01*
X82959853Y-49074354D01*
X82834354Y-49199853D01*
X82686784Y-49298456D01*
X82522812Y-49366376D01*
X82373512Y-49396073D01*
X82348742Y-49401000D01*
X82171258Y-49401000D01*
X82146488Y-49396073D01*
X81997188Y-49366376D01*
X81833216Y-49298456D01*
X81685646Y-49199853D01*
X81560147Y-49074354D01*
X81461544Y-48926784D01*
X81393624Y-48762812D01*
X81359000Y-48588741D01*
X81359000Y-48411259D01*
X81393624Y-48237188D01*
X81461544Y-48073216D01*
X81560147Y-47925646D01*
X81685646Y-47800147D01*
X81833216Y-47701544D01*
X81997188Y-47633624D01*
X82146488Y-47603927D01*
X82171258Y-47599000D01*
X82348742Y-47599000D01*
X82373512Y-47603927D01*
G37*
G36*
X84913512Y-47603927D02*
G01*
X85062812Y-47633624D01*
X85226784Y-47701544D01*
X85374354Y-47800147D01*
X85499853Y-47925646D01*
X85598456Y-48073216D01*
X85666376Y-48237188D01*
X85701000Y-48411259D01*
X85701000Y-48588741D01*
X85666376Y-48762812D01*
X85598456Y-48926784D01*
X85499853Y-49074354D01*
X85374354Y-49199853D01*
X85226784Y-49298456D01*
X85062812Y-49366376D01*
X84913512Y-49396073D01*
X84888742Y-49401000D01*
X84711258Y-49401000D01*
X84686488Y-49396073D01*
X84537188Y-49366376D01*
X84373216Y-49298456D01*
X84225646Y-49199853D01*
X84100147Y-49074354D01*
X84001544Y-48926784D01*
X83933624Y-48762812D01*
X83899000Y-48588741D01*
X83899000Y-48411259D01*
X83933624Y-48237188D01*
X84001544Y-48073216D01*
X84100147Y-47925646D01*
X84225646Y-47800147D01*
X84373216Y-47701544D01*
X84537188Y-47633624D01*
X84686488Y-47603927D01*
X84711258Y-47599000D01*
X84888742Y-47599000D01*
X84913512Y-47603927D01*
G37*
G36*
X87453512Y-47603927D02*
G01*
X87602812Y-47633624D01*
X87766784Y-47701544D01*
X87914354Y-47800147D01*
X88039853Y-47925646D01*
X88138456Y-48073216D01*
X88206376Y-48237188D01*
X88241000Y-48411259D01*
X88241000Y-48588741D01*
X88206376Y-48762812D01*
X88138456Y-48926784D01*
X88039853Y-49074354D01*
X87914354Y-49199853D01*
X87766784Y-49298456D01*
X87602812Y-49366376D01*
X87453512Y-49396073D01*
X87428742Y-49401000D01*
X87251258Y-49401000D01*
X87226488Y-49396073D01*
X87077188Y-49366376D01*
X86913216Y-49298456D01*
X86765646Y-49199853D01*
X86640147Y-49074354D01*
X86541544Y-48926784D01*
X86473624Y-48762812D01*
X86439000Y-48588741D01*
X86439000Y-48411259D01*
X86473624Y-48237188D01*
X86541544Y-48073216D01*
X86640147Y-47925646D01*
X86765646Y-47800147D01*
X86913216Y-47701544D01*
X87077188Y-47633624D01*
X87226488Y-47603927D01*
X87251258Y-47599000D01*
X87428742Y-47599000D01*
X87453512Y-47603927D01*
G37*
G36*
X89993512Y-47603927D02*
G01*
X90142812Y-47633624D01*
X90306784Y-47701544D01*
X90454354Y-47800147D01*
X90579853Y-47925646D01*
X90678456Y-48073216D01*
X90746376Y-48237188D01*
X90781000Y-48411259D01*
X90781000Y-48588741D01*
X90746376Y-48762812D01*
X90678456Y-48926784D01*
X90579853Y-49074354D01*
X90454354Y-49199853D01*
X90306784Y-49298456D01*
X90142812Y-49366376D01*
X89993512Y-49396073D01*
X89968742Y-49401000D01*
X89791258Y-49401000D01*
X89766488Y-49396073D01*
X89617188Y-49366376D01*
X89453216Y-49298456D01*
X89305646Y-49199853D01*
X89180147Y-49074354D01*
X89081544Y-48926784D01*
X89013624Y-48762812D01*
X88979000Y-48588741D01*
X88979000Y-48411259D01*
X89013624Y-48237188D01*
X89081544Y-48073216D01*
X89180147Y-47925646D01*
X89305646Y-47800147D01*
X89453216Y-47701544D01*
X89617188Y-47633624D01*
X89766488Y-47603927D01*
X89791258Y-47599000D01*
X89968742Y-47599000D01*
X89993512Y-47603927D01*
G37*
G36*
X92533512Y-47603927D02*
G01*
X92682812Y-47633624D01*
X92846784Y-47701544D01*
X92994354Y-47800147D01*
X93119853Y-47925646D01*
X93218456Y-48073216D01*
X93286376Y-48237188D01*
X93321000Y-48411259D01*
X93321000Y-48588741D01*
X93286376Y-48762812D01*
X93218456Y-48926784D01*
X93119853Y-49074354D01*
X92994354Y-49199853D01*
X92846784Y-49298456D01*
X92682812Y-49366376D01*
X92533512Y-49396073D01*
X92508742Y-49401000D01*
X92331258Y-49401000D01*
X92306488Y-49396073D01*
X92157188Y-49366376D01*
X91993216Y-49298456D01*
X91845646Y-49199853D01*
X91720147Y-49074354D01*
X91621544Y-48926784D01*
X91553624Y-48762812D01*
X91519000Y-48588741D01*
X91519000Y-48411259D01*
X91553624Y-48237188D01*
X91621544Y-48073216D01*
X91720147Y-47925646D01*
X91845646Y-47800147D01*
X91993216Y-47701544D01*
X92157188Y-47633624D01*
X92306488Y-47603927D01*
X92331258Y-47599000D01*
X92508742Y-47599000D01*
X92533512Y-47603927D01*
G37*
G36*
X95073512Y-47603927D02*
G01*
X95222812Y-47633624D01*
X95386784Y-47701544D01*
X95534354Y-47800147D01*
X95659853Y-47925646D01*
X95758456Y-48073216D01*
X95826376Y-48237188D01*
X95861000Y-48411259D01*
X95861000Y-48588741D01*
X95826376Y-48762812D01*
X95758456Y-48926784D01*
X95659853Y-49074354D01*
X95534354Y-49199853D01*
X95386784Y-49298456D01*
X95222812Y-49366376D01*
X95073512Y-49396073D01*
X95048742Y-49401000D01*
X94871258Y-49401000D01*
X94846488Y-49396073D01*
X94697188Y-49366376D01*
X94533216Y-49298456D01*
X94385646Y-49199853D01*
X94260147Y-49074354D01*
X94161544Y-48926784D01*
X94093624Y-48762812D01*
X94059000Y-48588741D01*
X94059000Y-48411259D01*
X94093624Y-48237188D01*
X94161544Y-48073216D01*
X94260147Y-47925646D01*
X94385646Y-47800147D01*
X94533216Y-47701544D01*
X94697188Y-47633624D01*
X94846488Y-47603927D01*
X94871258Y-47599000D01*
X95048742Y-47599000D01*
X95073512Y-47603927D01*
G37*
G36*
X116493512Y-47603927D02*
G01*
X116642812Y-47633624D01*
X116806784Y-47701544D01*
X116954354Y-47800147D01*
X117079853Y-47925646D01*
X117178456Y-48073216D01*
X117246376Y-48237188D01*
X117281000Y-48411259D01*
X117281000Y-48588741D01*
X117246376Y-48762812D01*
X117178456Y-48926784D01*
X117079853Y-49074354D01*
X116954354Y-49199853D01*
X116806784Y-49298456D01*
X116642812Y-49366376D01*
X116493512Y-49396073D01*
X116468742Y-49401000D01*
X116291258Y-49401000D01*
X116266488Y-49396073D01*
X116117188Y-49366376D01*
X115953216Y-49298456D01*
X115805646Y-49199853D01*
X115680147Y-49074354D01*
X115581544Y-48926784D01*
X115513624Y-48762812D01*
X115479000Y-48588741D01*
X115479000Y-48411259D01*
X115513624Y-48237188D01*
X115581544Y-48073216D01*
X115680147Y-47925646D01*
X115805646Y-47800147D01*
X115953216Y-47701544D01*
X116117188Y-47633624D01*
X116266488Y-47603927D01*
X116291258Y-47599000D01*
X116468742Y-47599000D01*
X116493512Y-47603927D01*
G37*
G36*
X127753512Y-47603927D02*
G01*
X127902812Y-47633624D01*
X128066784Y-47701544D01*
X128214354Y-47800147D01*
X128339853Y-47925646D01*
X128438456Y-48073216D01*
X128506376Y-48237188D01*
X128541000Y-48411259D01*
X128541000Y-48588741D01*
X128506376Y-48762812D01*
X128438456Y-48926784D01*
X128339853Y-49074354D01*
X128214354Y-49199853D01*
X128066784Y-49298456D01*
X127902812Y-49366376D01*
X127753512Y-49396073D01*
X127728742Y-49401000D01*
X127551258Y-49401000D01*
X127526488Y-49396073D01*
X127377188Y-49366376D01*
X127213216Y-49298456D01*
X127065646Y-49199853D01*
X126940147Y-49074354D01*
X126841544Y-48926784D01*
X126773624Y-48762812D01*
X126739000Y-48588741D01*
X126739000Y-48411259D01*
X126773624Y-48237188D01*
X126841544Y-48073216D01*
X126940147Y-47925646D01*
X127065646Y-47800147D01*
X127213216Y-47701544D01*
X127377188Y-47633624D01*
X127526488Y-47603927D01*
X127551258Y-47599000D01*
X127728742Y-47599000D01*
X127753512Y-47603927D01*
G37*
G36*
X111413512Y-47603927D02*
G01*
X111562812Y-47633624D01*
X111726784Y-47701544D01*
X111874354Y-47800147D01*
X111999853Y-47925646D01*
X112098456Y-48073216D01*
X112166376Y-48237188D01*
X112201000Y-48411259D01*
X112201000Y-48588741D01*
X112166376Y-48762812D01*
X112098456Y-48926784D01*
X111999853Y-49074354D01*
X111874354Y-49199853D01*
X111726784Y-49298456D01*
X111562812Y-49366376D01*
X111413512Y-49396073D01*
X111388742Y-49401000D01*
X111211258Y-49401000D01*
X111186488Y-49396073D01*
X111037188Y-49366376D01*
X110873216Y-49298456D01*
X110725646Y-49199853D01*
X110600147Y-49074354D01*
X110501544Y-48926784D01*
X110433624Y-48762812D01*
X110399000Y-48588741D01*
X110399000Y-48411259D01*
X110433624Y-48237188D01*
X110501544Y-48073216D01*
X110600147Y-47925646D01*
X110725646Y-47800147D01*
X110873216Y-47701544D01*
X111037188Y-47633624D01*
X111186488Y-47603927D01*
X111211258Y-47599000D01*
X111388742Y-47599000D01*
X111413512Y-47603927D01*
G37*
G36*
X130293512Y-47603927D02*
G01*
X130442812Y-47633624D01*
X130606784Y-47701544D01*
X130754354Y-47800147D01*
X130879853Y-47925646D01*
X130978456Y-48073216D01*
X131046376Y-48237188D01*
X131081000Y-48411259D01*
X131081000Y-48588741D01*
X131046376Y-48762812D01*
X130978456Y-48926784D01*
X130879853Y-49074354D01*
X130754354Y-49199853D01*
X130606784Y-49298456D01*
X130442812Y-49366376D01*
X130293512Y-49396073D01*
X130268742Y-49401000D01*
X130091258Y-49401000D01*
X130066488Y-49396073D01*
X129917188Y-49366376D01*
X129753216Y-49298456D01*
X129605646Y-49199853D01*
X129480147Y-49074354D01*
X129381544Y-48926784D01*
X129313624Y-48762812D01*
X129279000Y-48588741D01*
X129279000Y-48411259D01*
X129313624Y-48237188D01*
X129381544Y-48073216D01*
X129480147Y-47925646D01*
X129605646Y-47800147D01*
X129753216Y-47701544D01*
X129917188Y-47633624D01*
X130066488Y-47603927D01*
X130091258Y-47599000D01*
X130268742Y-47599000D01*
X130293512Y-47603927D01*
G37*
G36*
X132833512Y-47603927D02*
G01*
X132982812Y-47633624D01*
X133146784Y-47701544D01*
X133294354Y-47800147D01*
X133419853Y-47925646D01*
X133518456Y-48073216D01*
X133586376Y-48237188D01*
X133621000Y-48411259D01*
X133621000Y-48588741D01*
X133586376Y-48762812D01*
X133518456Y-48926784D01*
X133419853Y-49074354D01*
X133294354Y-49199853D01*
X133146784Y-49298456D01*
X132982812Y-49366376D01*
X132833512Y-49396073D01*
X132808742Y-49401000D01*
X132631258Y-49401000D01*
X132606488Y-49396073D01*
X132457188Y-49366376D01*
X132293216Y-49298456D01*
X132145646Y-49199853D01*
X132020147Y-49074354D01*
X131921544Y-48926784D01*
X131853624Y-48762812D01*
X131819000Y-48588741D01*
X131819000Y-48411259D01*
X131853624Y-48237188D01*
X131921544Y-48073216D01*
X132020147Y-47925646D01*
X132145646Y-47800147D01*
X132293216Y-47701544D01*
X132457188Y-47633624D01*
X132606488Y-47603927D01*
X132631258Y-47599000D01*
X132808742Y-47599000D01*
X132833512Y-47603927D01*
G37*
G36*
X135373512Y-47603927D02*
G01*
X135522812Y-47633624D01*
X135686784Y-47701544D01*
X135834354Y-47800147D01*
X135959853Y-47925646D01*
X136058456Y-48073216D01*
X136126376Y-48237188D01*
X136161000Y-48411259D01*
X136161000Y-48588741D01*
X136126376Y-48762812D01*
X136058456Y-48926784D01*
X135959853Y-49074354D01*
X135834354Y-49199853D01*
X135686784Y-49298456D01*
X135522812Y-49366376D01*
X135373512Y-49396073D01*
X135348742Y-49401000D01*
X135171258Y-49401000D01*
X135146488Y-49396073D01*
X134997188Y-49366376D01*
X134833216Y-49298456D01*
X134685646Y-49199853D01*
X134560147Y-49074354D01*
X134461544Y-48926784D01*
X134393624Y-48762812D01*
X134359000Y-48588741D01*
X134359000Y-48411259D01*
X134393624Y-48237188D01*
X134461544Y-48073216D01*
X134560147Y-47925646D01*
X134685646Y-47800147D01*
X134833216Y-47701544D01*
X134997188Y-47633624D01*
X135146488Y-47603927D01*
X135171258Y-47599000D01*
X135348742Y-47599000D01*
X135373512Y-47603927D01*
G37*
G36*
X137913512Y-47603927D02*
G01*
X138062812Y-47633624D01*
X138226784Y-47701544D01*
X138374354Y-47800147D01*
X138499853Y-47925646D01*
X138598456Y-48073216D01*
X138666376Y-48237188D01*
X138701000Y-48411259D01*
X138701000Y-48588741D01*
X138666376Y-48762812D01*
X138598456Y-48926784D01*
X138499853Y-49074354D01*
X138374354Y-49199853D01*
X138226784Y-49298456D01*
X138062812Y-49366376D01*
X137913512Y-49396073D01*
X137888742Y-49401000D01*
X137711258Y-49401000D01*
X137686488Y-49396073D01*
X137537188Y-49366376D01*
X137373216Y-49298456D01*
X137225646Y-49199853D01*
X137100147Y-49074354D01*
X137001544Y-48926784D01*
X136933624Y-48762812D01*
X136899000Y-48588741D01*
X136899000Y-48411259D01*
X136933624Y-48237188D01*
X137001544Y-48073216D01*
X137100147Y-47925646D01*
X137225646Y-47800147D01*
X137373216Y-47701544D01*
X137537188Y-47633624D01*
X137686488Y-47603927D01*
X137711258Y-47599000D01*
X137888742Y-47599000D01*
X137913512Y-47603927D01*
G37*
G36*
X140453512Y-47603927D02*
G01*
X140602812Y-47633624D01*
X140766784Y-47701544D01*
X140914354Y-47800147D01*
X141039853Y-47925646D01*
X141138456Y-48073216D01*
X141206376Y-48237188D01*
X141241000Y-48411259D01*
X141241000Y-48588741D01*
X141206376Y-48762812D01*
X141138456Y-48926784D01*
X141039853Y-49074354D01*
X140914354Y-49199853D01*
X140766784Y-49298456D01*
X140602812Y-49366376D01*
X140453512Y-49396073D01*
X140428742Y-49401000D01*
X140251258Y-49401000D01*
X140226488Y-49396073D01*
X140077188Y-49366376D01*
X139913216Y-49298456D01*
X139765646Y-49199853D01*
X139640147Y-49074354D01*
X139541544Y-48926784D01*
X139473624Y-48762812D01*
X139439000Y-48588741D01*
X139439000Y-48411259D01*
X139473624Y-48237188D01*
X139541544Y-48073216D01*
X139640147Y-47925646D01*
X139765646Y-47800147D01*
X139913216Y-47701544D01*
X140077188Y-47633624D01*
X140226488Y-47603927D01*
X140251258Y-47599000D01*
X140428742Y-47599000D01*
X140453512Y-47603927D01*
G37*
G36*
X145533512Y-47603927D02*
G01*
X145682812Y-47633624D01*
X145846784Y-47701544D01*
X145994354Y-47800147D01*
X146119853Y-47925646D01*
X146218456Y-48073216D01*
X146286376Y-48237188D01*
X146321000Y-48411259D01*
X146321000Y-48588741D01*
X146286376Y-48762812D01*
X146218456Y-48926784D01*
X146119853Y-49074354D01*
X145994354Y-49199853D01*
X145846784Y-49298456D01*
X145682812Y-49366376D01*
X145533512Y-49396073D01*
X145508742Y-49401000D01*
X145331258Y-49401000D01*
X145306488Y-49396073D01*
X145157188Y-49366376D01*
X144993216Y-49298456D01*
X144845646Y-49199853D01*
X144720147Y-49074354D01*
X144621544Y-48926784D01*
X144553624Y-48762812D01*
X144519000Y-48588741D01*
X144519000Y-48411259D01*
X144553624Y-48237188D01*
X144621544Y-48073216D01*
X144720147Y-47925646D01*
X144845646Y-47800147D01*
X144993216Y-47701544D01*
X145157188Y-47633624D01*
X145306488Y-47603927D01*
X145331258Y-47599000D01*
X145508742Y-47599000D01*
X145533512Y-47603927D01*
G37*
G36*
X148073512Y-47603927D02*
G01*
X148222812Y-47633624D01*
X148386784Y-47701544D01*
X148534354Y-47800147D01*
X148659853Y-47925646D01*
X148758456Y-48073216D01*
X148826376Y-48237188D01*
X148861000Y-48411259D01*
X148861000Y-48588741D01*
X148826376Y-48762812D01*
X148758456Y-48926784D01*
X148659853Y-49074354D01*
X148534354Y-49199853D01*
X148386784Y-49298456D01*
X148222812Y-49366376D01*
X148073512Y-49396073D01*
X148048742Y-49401000D01*
X147871258Y-49401000D01*
X147846488Y-49396073D01*
X147697188Y-49366376D01*
X147533216Y-49298456D01*
X147385646Y-49199853D01*
X147260147Y-49074354D01*
X147161544Y-48926784D01*
X147093624Y-48762812D01*
X147059000Y-48588741D01*
X147059000Y-48411259D01*
X147093624Y-48237188D01*
X147161544Y-48073216D01*
X147260147Y-47925646D01*
X147385646Y-47800147D01*
X147533216Y-47701544D01*
X147697188Y-47633624D01*
X147846488Y-47603927D01*
X147871258Y-47599000D01*
X148048742Y-47599000D01*
X148073512Y-47603927D01*
G37*
G36*
X151401000Y-49401000D02*
G01*
X149599000Y-49401000D01*
X149599000Y-47599000D01*
X151401000Y-47599000D01*
X151401000Y-49401000D01*
G37*
G36*
X124901000Y-49401000D02*
G01*
X123099000Y-49401000D01*
X123099000Y-47599000D01*
X124901000Y-47599000D01*
X124901000Y-49401000D01*
G37*
G36*
X121573512Y-47603927D02*
G01*
X121722812Y-47633624D01*
X121886784Y-47701544D01*
X122034354Y-47800147D01*
X122159853Y-47925646D01*
X122258456Y-48073216D01*
X122326376Y-48237188D01*
X122361000Y-48411259D01*
X122361000Y-48588741D01*
X122326376Y-48762812D01*
X122258456Y-48926784D01*
X122159853Y-49074354D01*
X122034354Y-49199853D01*
X121886784Y-49298456D01*
X121722812Y-49366376D01*
X121573512Y-49396073D01*
X121548742Y-49401000D01*
X121371258Y-49401000D01*
X121346488Y-49396073D01*
X121197188Y-49366376D01*
X121033216Y-49298456D01*
X120885646Y-49199853D01*
X120760147Y-49074354D01*
X120661544Y-48926784D01*
X120593624Y-48762812D01*
X120559000Y-48588741D01*
X120559000Y-48411259D01*
X120593624Y-48237188D01*
X120661544Y-48073216D01*
X120760147Y-47925646D01*
X120885646Y-47800147D01*
X121033216Y-47701544D01*
X121197188Y-47633624D01*
X121346488Y-47603927D01*
X121371258Y-47599000D01*
X121548742Y-47599000D01*
X121573512Y-47603927D01*
G37*
G36*
X119033512Y-47603927D02*
G01*
X119182812Y-47633624D01*
X119346784Y-47701544D01*
X119494354Y-47800147D01*
X119619853Y-47925646D01*
X119718456Y-48073216D01*
X119786376Y-48237188D01*
X119821000Y-48411259D01*
X119821000Y-48588741D01*
X119786376Y-48762812D01*
X119718456Y-48926784D01*
X119619853Y-49074354D01*
X119494354Y-49199853D01*
X119346784Y-49298456D01*
X119182812Y-49366376D01*
X119033512Y-49396073D01*
X119008742Y-49401000D01*
X118831258Y-49401000D01*
X118806488Y-49396073D01*
X118657188Y-49366376D01*
X118493216Y-49298456D01*
X118345646Y-49199853D01*
X118220147Y-49074354D01*
X118121544Y-48926784D01*
X118053624Y-48762812D01*
X118019000Y-48588741D01*
X118019000Y-48411259D01*
X118053624Y-48237188D01*
X118121544Y-48073216D01*
X118220147Y-47925646D01*
X118345646Y-47800147D01*
X118493216Y-47701544D01*
X118657188Y-47633624D01*
X118806488Y-47603927D01*
X118831258Y-47599000D01*
X119008742Y-47599000D01*
X119033512Y-47603927D01*
G37*
G36*
X113953512Y-47603927D02*
G01*
X114102812Y-47633624D01*
X114266784Y-47701544D01*
X114414354Y-47800147D01*
X114539853Y-47925646D01*
X114638456Y-48073216D01*
X114706376Y-48237188D01*
X114741000Y-48411259D01*
X114741000Y-48588741D01*
X114706376Y-48762812D01*
X114638456Y-48926784D01*
X114539853Y-49074354D01*
X114414354Y-49199853D01*
X114266784Y-49298456D01*
X114102812Y-49366376D01*
X113953512Y-49396073D01*
X113928742Y-49401000D01*
X113751258Y-49401000D01*
X113726488Y-49396073D01*
X113577188Y-49366376D01*
X113413216Y-49298456D01*
X113265646Y-49199853D01*
X113140147Y-49074354D01*
X113041544Y-48926784D01*
X112973624Y-48762812D01*
X112939000Y-48588741D01*
X112939000Y-48411259D01*
X112973624Y-48237188D01*
X113041544Y-48073216D01*
X113140147Y-47925646D01*
X113265646Y-47800147D01*
X113413216Y-47701544D01*
X113577188Y-47633624D01*
X113726488Y-47603927D01*
X113751258Y-47599000D01*
X113928742Y-47599000D01*
X113953512Y-47603927D01*
G37*
G36*
X104214795Y-42670156D02*
G01*
X104321150Y-42691311D01*
X104521520Y-42774307D01*
X104701844Y-42894795D01*
X104855205Y-43048156D01*
X104975693Y-43228480D01*
X105058689Y-43428851D01*
X105101000Y-43641560D01*
X105101000Y-43858440D01*
X105058689Y-44071149D01*
X104975693Y-44271520D01*
X104855205Y-44451844D01*
X104701844Y-44605205D01*
X104521520Y-44725693D01*
X104421334Y-44767191D01*
X104321150Y-44808689D01*
X104214795Y-44829844D01*
X104108440Y-44851000D01*
X103891560Y-44851000D01*
X103785205Y-44829844D01*
X103678850Y-44808689D01*
X103578666Y-44767191D01*
X103478480Y-44725693D01*
X103298156Y-44605205D01*
X103144795Y-44451844D01*
X103024307Y-44271520D01*
X102941311Y-44071149D01*
X102899000Y-43858440D01*
X102899000Y-43641560D01*
X102941311Y-43428851D01*
X103024307Y-43228480D01*
X103144795Y-43048156D01*
X103298156Y-42894795D01*
X103478480Y-42774307D01*
X103678850Y-42691311D01*
X103785206Y-42670155D01*
X103891560Y-42649000D01*
X104108440Y-42649000D01*
X104214795Y-42670156D01*
G37*
G36*
X119214795Y-42670156D02*
G01*
X119321150Y-42691311D01*
X119521520Y-42774307D01*
X119701844Y-42894795D01*
X119855205Y-43048156D01*
X119975693Y-43228480D01*
X120058689Y-43428851D01*
X120101000Y-43641560D01*
X120101000Y-43858440D01*
X120058689Y-44071149D01*
X119975693Y-44271520D01*
X119855205Y-44451844D01*
X119701844Y-44605205D01*
X119521520Y-44725693D01*
X119421334Y-44767191D01*
X119321150Y-44808689D01*
X119214795Y-44829844D01*
X119108440Y-44851000D01*
X118891560Y-44851000D01*
X118785205Y-44829844D01*
X118678850Y-44808689D01*
X118578666Y-44767191D01*
X118478480Y-44725693D01*
X118298156Y-44605205D01*
X118144795Y-44451844D01*
X118024307Y-44271520D01*
X117941311Y-44071149D01*
X117899000Y-43858440D01*
X117899000Y-43641560D01*
X117941311Y-43428851D01*
X118024307Y-43228480D01*
X118144795Y-43048156D01*
X118298156Y-42894795D01*
X118478480Y-42774307D01*
X118678850Y-42691311D01*
X118785206Y-42670155D01*
X118891560Y-42649000D01*
X119108440Y-42649000D01*
X119214795Y-42670156D01*
G37*
M02*
