M48
; DRILL file {KiCad (5.1.5)-3} date 1/27/2020 5:01:55 PM
; FORMAT={-:-/ absolute / inch / decimal}
; #@! TF.CreationDate,2020-01-27T17:01:55-05:00
; #@! TF.GenerationSoftware,Kicad,Pcbnew,(5.1.5)-3
; #@! TF.FileFunction,Plated,1,2,PTH
FMAT,2
INCH
T1C0.0157
T2C0.0311
T3C0.0315
T4C0.0362
T5C0.0394
T6C0.0433
T7C0.0551
T8C0.0917
%
G90
G05
T1
X4.2598Y-2.4803
X5.0787Y-2.1063
X5.1772Y-2.1063
X5.2323Y-2.2087
X5.315Y-2.4016
T2
X4.4287Y-2.4815
X4.4287Y-2.7941
X4.5287Y-2.4815
X4.5287Y-2.7941
X4.6287Y-2.4815
X4.6287Y-2.7941
X4.7287Y-2.4815
X4.7287Y-2.7941
X4.8287Y-2.4815
X4.8287Y-2.7941
X4.9287Y-2.4815
X4.9287Y-2.7941
X5.0287Y-2.4815
X5.0287Y-2.7941
X5.1287Y-2.4815
X5.1287Y-2.7941
X5.2287Y-2.4815
X5.2287Y-2.7941
X5.3287Y-2.4815
X5.3287Y-2.7941
X5.4287Y-2.4815
X5.4287Y-2.7941
X5.5287Y-2.4815
X5.5287Y-2.7941
X5.6287Y-2.4815
X5.6287Y-2.7941
X5.7287Y-2.4815
X5.7287Y-2.7941
T3
X4.8571Y-2.2441
X5.0492Y-2.2441
T4
X3.8484Y-2.5
X3.8484Y-2.5787
X3.9469Y-2.5
X3.9469Y-2.5787
T5
X4.8295Y-2.9724
X4.9295Y-2.9724
X5.0295Y-2.9724
X5.1295Y-2.9724
X3.1004Y-2.213
X3.1004Y-2.313
X4.3602Y-2.1654
X4.4602Y-2.1654
X4.5602Y-2.1654
X3.3957Y-2.213
X3.3957Y-2.313
X3.248Y-2.213
X3.248Y-2.313
X3.9819Y-1.9094
X4.0819Y-1.9094
X4.1819Y-1.9094
X4.2819Y-1.9094
X4.3819Y-1.9094
X4.4819Y-1.9094
X4.5819Y-1.9094
X4.6819Y-1.9094
X4.7819Y-1.9094
X4.8819Y-1.9094
X4.3654Y-2.9724
X4.4654Y-2.9724
X4.5654Y-2.9724
X4.6654Y-2.9724
X5.0252Y-1.9094
X5.1252Y-1.9094
X5.2252Y-1.9094
X5.3252Y-1.9094
X5.4252Y-1.9094
X5.5252Y-1.9094
X5.6252Y-1.9094
X5.7252Y-1.9094
X5.8252Y-1.9094
X5.9252Y-1.9094
X4.3602Y-2.313
X4.4602Y-2.313
X4.5602Y-2.313
X5.9055Y-2.4886
X5.9055Y-2.5886
X5.9055Y-2.6886
X5.9055Y-2.7886
X5.3299Y-2.9724
X5.4299Y-2.9724
X5.5299Y-2.9724
X5.6299Y-2.9724
X5.7299Y-2.9724
X5.8299Y-2.9724
X2.9386Y-1.9094
X3.0386Y-1.9094
X3.1386Y-1.9094
X3.2386Y-1.9094
X3.3386Y-1.9094
X3.4386Y-1.9094
X3.5386Y-1.9094
X3.6386Y-1.9094
X3.7386Y-1.9094
X3.8386Y-1.9094
T6
X5.6299Y-2.0866
X5.6299Y-2.3425
X5.8071Y-2.0866
X5.8071Y-2.3425
T7
X3.2972Y-2.6083
T8
X3.6606Y-2.6854
X4.1346Y-2.6854
T3
G00X3.1102Y-2.7028
M15
G01X3.1102Y-2.6555
M16
G05
G00X3.1102Y-2.8878
M15
G01X3.1102Y-2.8406
M16
G05
G00X3.2539Y-2.8445
M15
G01X3.3406Y-2.8445
M16
G05
G00X3.4843Y-2.7028
M15
G01X3.4843Y-2.6555
M16
G05
G00X3.4843Y-2.8878
M15
G01X3.4843Y-2.8406
M16
G05
T0
M30
