G04 #@! TF.GenerationSoftware,KiCad,Pcbnew,(5.1.5)-3*
G04 #@! TF.CreationDate,2020-01-27T17:01:51-05:00*
G04 #@! TF.ProjectId,IW_board_V1,49575f62-6f61-4726-945f-56312e6b6963,rev?*
G04 #@! TF.SameCoordinates,Original*
G04 #@! TF.FileFunction,Legend,Top*
G04 #@! TF.FilePolarity,Positive*
%FSLAX46Y46*%
G04 Gerber Fmt 4.6, Leading zero omitted, Abs format (unit mm)*
G04 Created by KiCad (PCBNEW (5.1.5)-3) date 2020-01-27 17:01:51*
%MOMM*%
%LPD*%
G04 APERTURE LIST*
%ADD10C,0.150000*%
%ADD11C,0.010000*%
%ADD12C,0.120000*%
%ADD13C,0.400000*%
%ADD14C,0.127000*%
%ADD15C,0.200000*%
G04 APERTURE END LIST*
D10*
X147297619Y-71380952D02*
X147250000Y-71333333D01*
X147202380Y-71238095D01*
X147202380Y-71000000D01*
X147250000Y-70904761D01*
X147297619Y-70857142D01*
X147392857Y-70809523D01*
X147488095Y-70809523D01*
X147630952Y-70857142D01*
X148202380Y-71428571D01*
X148202380Y-70809523D01*
X147154761Y-69666666D02*
X148440476Y-70523809D01*
X147202380Y-69428571D02*
X147202380Y-68809523D01*
X147583333Y-69142857D01*
X147583333Y-69000000D01*
X147630952Y-68904761D01*
X147678571Y-68857142D01*
X147773809Y-68809523D01*
X148011904Y-68809523D01*
X148107142Y-68857142D01*
X148154761Y-68904761D01*
X148202380Y-69000000D01*
X148202380Y-69285714D01*
X148154761Y-69380952D01*
X148107142Y-69428571D01*
X148107142Y-68380952D02*
X148154761Y-68333333D01*
X148202380Y-68380952D01*
X148154761Y-68428571D01*
X148107142Y-68380952D01*
X148202380Y-68380952D01*
X147202380Y-68000000D02*
X147202380Y-67380952D01*
X147583333Y-67714285D01*
X147583333Y-67571428D01*
X147630952Y-67476190D01*
X147678571Y-67428571D01*
X147773809Y-67380952D01*
X148011904Y-67380952D01*
X148107142Y-67428571D01*
X148154761Y-67476190D01*
X148202380Y-67571428D01*
X148202380Y-67857142D01*
X148154761Y-67952380D01*
X148107142Y-68000000D01*
X147202380Y-67095238D02*
X148202380Y-66761904D01*
X147202380Y-66428571D01*
X147154761Y-65380952D02*
X148440476Y-66238095D01*
X147202380Y-65190476D02*
X148202380Y-64857142D01*
X147202380Y-64523809D01*
X148107142Y-63619047D02*
X148154761Y-63666666D01*
X148202380Y-63809523D01*
X148202380Y-63904761D01*
X148154761Y-64047619D01*
X148059523Y-64142857D01*
X147964285Y-64190476D01*
X147773809Y-64238095D01*
X147630952Y-64238095D01*
X147440476Y-64190476D01*
X147345238Y-64142857D01*
X147250000Y-64047619D01*
X147202380Y-63904761D01*
X147202380Y-63809523D01*
X147250000Y-63666666D01*
X147297619Y-63619047D01*
X148107142Y-62619047D02*
X148154761Y-62666666D01*
X148202380Y-62809523D01*
X148202380Y-62904761D01*
X148154761Y-63047619D01*
X148059523Y-63142857D01*
X147964285Y-63190476D01*
X147773809Y-63238095D01*
X147630952Y-63238095D01*
X147440476Y-63190476D01*
X147345238Y-63142857D01*
X147250000Y-63047619D01*
X147202380Y-62904761D01*
X147202380Y-62809523D01*
X147250000Y-62666666D01*
X147297619Y-62619047D01*
X125166666Y-67166666D02*
X125642857Y-67166666D01*
X125071428Y-67452380D02*
X125404761Y-66452380D01*
X125738095Y-67452380D01*
X125928571Y-66452380D02*
X126500000Y-66452380D01*
X126214285Y-67452380D02*
X126214285Y-66452380D01*
X126833333Y-67452380D02*
X126833333Y-66452380D01*
X127166666Y-67166666D01*
X127500000Y-66452380D01*
X127500000Y-67452380D01*
X128357142Y-67404761D02*
X128261904Y-67452380D01*
X128071428Y-67452380D01*
X127976190Y-67404761D01*
X127928571Y-67309523D01*
X127928571Y-66928571D01*
X127976190Y-66833333D01*
X128071428Y-66785714D01*
X128261904Y-66785714D01*
X128357142Y-66833333D01*
X128404761Y-66928571D01*
X128404761Y-67023809D01*
X127928571Y-67119047D01*
X129261904Y-66785714D02*
X129261904Y-67595238D01*
X129214285Y-67690476D01*
X129166666Y-67738095D01*
X129071428Y-67785714D01*
X128928571Y-67785714D01*
X128833333Y-67738095D01*
X129261904Y-67404761D02*
X129166666Y-67452380D01*
X128976190Y-67452380D01*
X128880952Y-67404761D01*
X128833333Y-67357142D01*
X128785714Y-67261904D01*
X128785714Y-66976190D01*
X128833333Y-66880952D01*
X128880952Y-66833333D01*
X128976190Y-66785714D01*
X129166666Y-66785714D01*
X129261904Y-66833333D01*
X130166666Y-67452380D02*
X130166666Y-66928571D01*
X130119047Y-66833333D01*
X130023809Y-66785714D01*
X129833333Y-66785714D01*
X129738095Y-66833333D01*
X130166666Y-67404761D02*
X130071428Y-67452380D01*
X129833333Y-67452380D01*
X129738095Y-67404761D01*
X129690476Y-67309523D01*
X129690476Y-67214285D01*
X129738095Y-67119047D01*
X129833333Y-67071428D01*
X130071428Y-67071428D01*
X130166666Y-67023809D01*
X131309523Y-66452380D02*
X131928571Y-66452380D01*
X131595238Y-66833333D01*
X131738095Y-66833333D01*
X131833333Y-66880952D01*
X131880952Y-66928571D01*
X131928571Y-67023809D01*
X131928571Y-67261904D01*
X131880952Y-67357142D01*
X131833333Y-67404761D01*
X131738095Y-67452380D01*
X131452380Y-67452380D01*
X131357142Y-67404761D01*
X131309523Y-67357142D01*
X132309523Y-66547619D02*
X132357142Y-66500000D01*
X132452380Y-66452380D01*
X132690476Y-66452380D01*
X132785714Y-66500000D01*
X132833333Y-66547619D01*
X132880952Y-66642857D01*
X132880952Y-66738095D01*
X132833333Y-66880952D01*
X132261904Y-67452380D01*
X132880952Y-67452380D01*
X133452380Y-66880952D02*
X133357142Y-66833333D01*
X133309523Y-66785714D01*
X133261904Y-66690476D01*
X133261904Y-66642857D01*
X133309523Y-66547619D01*
X133357142Y-66500000D01*
X133452380Y-66452380D01*
X133642857Y-66452380D01*
X133738095Y-66500000D01*
X133785714Y-66547619D01*
X133833333Y-66642857D01*
X133833333Y-66690476D01*
X133785714Y-66785714D01*
X133738095Y-66833333D01*
X133642857Y-66880952D01*
X133452380Y-66880952D01*
X133357142Y-66928571D01*
X133309523Y-66976190D01*
X133261904Y-67071428D01*
X133261904Y-67261904D01*
X133309523Y-67357142D01*
X133357142Y-67404761D01*
X133452380Y-67452380D01*
X133642857Y-67452380D01*
X133738095Y-67404761D01*
X133785714Y-67357142D01*
X133833333Y-67261904D01*
X133833333Y-67071428D01*
X133785714Y-66976190D01*
X133738095Y-66928571D01*
X133642857Y-66880952D01*
X107952380Y-43377380D02*
X107952380Y-42377380D01*
X108333333Y-42377380D02*
X108571428Y-43377380D01*
X108761904Y-42663095D01*
X108952380Y-43377380D01*
X109190476Y-42377380D01*
X110190476Y-42377380D02*
X110523809Y-43377380D01*
X110857142Y-42377380D01*
X111571428Y-43329761D02*
X111476190Y-43377380D01*
X111285714Y-43377380D01*
X111190476Y-43329761D01*
X111142857Y-43234523D01*
X111142857Y-42853571D01*
X111190476Y-42758333D01*
X111285714Y-42710714D01*
X111476190Y-42710714D01*
X111571428Y-42758333D01*
X111619047Y-42853571D01*
X111619047Y-42948809D01*
X111142857Y-43044047D01*
X112047619Y-43377380D02*
X112047619Y-42710714D01*
X112047619Y-42901190D02*
X112095238Y-42805952D01*
X112142857Y-42758333D01*
X112238095Y-42710714D01*
X112333333Y-42710714D01*
X112619047Y-43329761D02*
X112714285Y-43377380D01*
X112904761Y-43377380D01*
X113000000Y-43329761D01*
X113047619Y-43234523D01*
X113047619Y-43186904D01*
X113000000Y-43091666D01*
X112904761Y-43044047D01*
X112761904Y-43044047D01*
X112666666Y-42996428D01*
X112619047Y-42901190D01*
X112619047Y-42853571D01*
X112666666Y-42758333D01*
X112761904Y-42710714D01*
X112904761Y-42710714D01*
X113000000Y-42758333D01*
X113476190Y-43377380D02*
X113476190Y-42710714D01*
X113476190Y-42377380D02*
X113428571Y-42425000D01*
X113476190Y-42472619D01*
X113523809Y-42425000D01*
X113476190Y-42377380D01*
X113476190Y-42472619D01*
X114095238Y-43377380D02*
X114000000Y-43329761D01*
X113952380Y-43282142D01*
X113904761Y-43186904D01*
X113904761Y-42901190D01*
X113952380Y-42805952D01*
X114000000Y-42758333D01*
X114095238Y-42710714D01*
X114238095Y-42710714D01*
X114333333Y-42758333D01*
X114380952Y-42805952D01*
X114428571Y-42901190D01*
X114428571Y-43186904D01*
X114380952Y-43282142D01*
X114333333Y-43329761D01*
X114238095Y-43377380D01*
X114095238Y-43377380D01*
X114857142Y-42710714D02*
X114857142Y-43377380D01*
X114857142Y-42805952D02*
X114904761Y-42758333D01*
X115000000Y-42710714D01*
X115142857Y-42710714D01*
X115238095Y-42758333D01*
X115285714Y-42853571D01*
X115285714Y-43377380D01*
X111571428Y-45027380D02*
X111000000Y-45027380D01*
X111285714Y-45027380D02*
X111285714Y-44027380D01*
X111190476Y-44170238D01*
X111095238Y-44265476D01*
X111000000Y-44313095D01*
X112000000Y-44932142D02*
X112047619Y-44979761D01*
X112000000Y-45027380D01*
X111952380Y-44979761D01*
X112000000Y-44932142D01*
X112000000Y-45027380D01*
X112428571Y-44122619D02*
X112476190Y-44075000D01*
X112571428Y-44027380D01*
X112809523Y-44027380D01*
X112904761Y-44075000D01*
X112952380Y-44122619D01*
X113000000Y-44217857D01*
X113000000Y-44313095D01*
X112952380Y-44455952D01*
X112380952Y-45027380D01*
X113000000Y-45027380D01*
X118000000Y-55714285D02*
X117952380Y-55809523D01*
X117952380Y-55952380D01*
X118000000Y-56095238D01*
X118095238Y-56190476D01*
X118190476Y-56238095D01*
X118380952Y-56285714D01*
X118523809Y-56285714D01*
X118714285Y-56238095D01*
X118809523Y-56190476D01*
X118904761Y-56095238D01*
X118952380Y-55952380D01*
X118952380Y-55857142D01*
X118904761Y-55714285D01*
X118857142Y-55666666D01*
X118523809Y-55666666D01*
X118523809Y-55857142D01*
X118952380Y-54666666D02*
X118476190Y-55000000D01*
X118952380Y-55238095D02*
X117952380Y-55238095D01*
X117952380Y-54857142D01*
X118000000Y-54761904D01*
X118047619Y-54714285D01*
X118142857Y-54666666D01*
X118285714Y-54666666D01*
X118380952Y-54714285D01*
X118428571Y-54761904D01*
X118476190Y-54857142D01*
X118476190Y-55238095D01*
X118952380Y-53714285D02*
X118952380Y-54285714D01*
X118952380Y-54000000D02*
X117952380Y-54000000D01*
X118095238Y-54095238D01*
X118190476Y-54190476D01*
X118238095Y-54285714D01*
X118000000Y-59464285D02*
X117952380Y-59559523D01*
X117952380Y-59702380D01*
X118000000Y-59845238D01*
X118095238Y-59940476D01*
X118190476Y-59988095D01*
X118380952Y-60035714D01*
X118523809Y-60035714D01*
X118714285Y-59988095D01*
X118809523Y-59940476D01*
X118904761Y-59845238D01*
X118952380Y-59702380D01*
X118952380Y-59607142D01*
X118904761Y-59464285D01*
X118857142Y-59416666D01*
X118523809Y-59416666D01*
X118523809Y-59607142D01*
X118952380Y-58416666D02*
X118476190Y-58750000D01*
X118952380Y-58988095D02*
X117952380Y-58988095D01*
X117952380Y-58607142D01*
X118000000Y-58511904D01*
X118047619Y-58464285D01*
X118142857Y-58416666D01*
X118285714Y-58416666D01*
X118380952Y-58464285D01*
X118428571Y-58511904D01*
X118476190Y-58607142D01*
X118476190Y-58988095D01*
X117952380Y-57797619D02*
X117952380Y-57702380D01*
X118000000Y-57607142D01*
X118047619Y-57559523D01*
X118142857Y-57511904D01*
X118333333Y-57464285D01*
X118571428Y-57464285D01*
X118761904Y-57511904D01*
X118857142Y-57559523D01*
X118904761Y-57607142D01*
X118952380Y-57702380D01*
X118952380Y-57797619D01*
X118904761Y-57892857D01*
X118857142Y-57940476D01*
X118761904Y-57988095D01*
X118571428Y-58035714D01*
X118333333Y-58035714D01*
X118142857Y-57988095D01*
X118047619Y-57940476D01*
X118000000Y-57892857D01*
X117952380Y-57797619D01*
X150452380Y-57988095D02*
X149976190Y-58321428D01*
X150452380Y-58559523D02*
X149452380Y-58559523D01*
X149452380Y-58178571D01*
X149500000Y-58083333D01*
X149547619Y-58035714D01*
X149642857Y-57988095D01*
X149785714Y-57988095D01*
X149880952Y-58035714D01*
X149928571Y-58083333D01*
X149976190Y-58178571D01*
X149976190Y-58559523D01*
X150404761Y-57178571D02*
X150452380Y-57273809D01*
X150452380Y-57464285D01*
X150404761Y-57559523D01*
X150309523Y-57607142D01*
X149928571Y-57607142D01*
X149833333Y-57559523D01*
X149785714Y-57464285D01*
X149785714Y-57273809D01*
X149833333Y-57178571D01*
X149928571Y-57130952D01*
X150023809Y-57130952D01*
X150119047Y-57607142D01*
X150404761Y-56750000D02*
X150452380Y-56654761D01*
X150452380Y-56464285D01*
X150404761Y-56369047D01*
X150309523Y-56321428D01*
X150261904Y-56321428D01*
X150166666Y-56369047D01*
X150119047Y-56464285D01*
X150119047Y-56607142D01*
X150071428Y-56702380D01*
X149976190Y-56750000D01*
X149928571Y-56750000D01*
X149833333Y-56702380D01*
X149785714Y-56607142D01*
X149785714Y-56464285D01*
X149833333Y-56369047D01*
X150404761Y-55511904D02*
X150452380Y-55607142D01*
X150452380Y-55797619D01*
X150404761Y-55892857D01*
X150309523Y-55940476D01*
X149928571Y-55940476D01*
X149833333Y-55892857D01*
X149785714Y-55797619D01*
X149785714Y-55607142D01*
X149833333Y-55511904D01*
X149928571Y-55464285D01*
X150023809Y-55464285D01*
X150119047Y-55940476D01*
X149785714Y-55178571D02*
X149785714Y-54797619D01*
X149452380Y-55035714D02*
X150309523Y-55035714D01*
X150404761Y-54988095D01*
X150452380Y-54892857D01*
X150452380Y-54797619D01*
X118047619Y-73952380D02*
X118047619Y-72952380D01*
X118476190Y-73047619D02*
X118523809Y-73000000D01*
X118619047Y-72952380D01*
X118857142Y-72952380D01*
X118952380Y-73000000D01*
X119000000Y-73047619D01*
X119047619Y-73142857D01*
X119047619Y-73238095D01*
X119000000Y-73380952D01*
X118428571Y-73952380D01*
X119047619Y-73952380D01*
X120047619Y-73857142D02*
X120000000Y-73904761D01*
X119857142Y-73952380D01*
X119761904Y-73952380D01*
X119619047Y-73904761D01*
X119523809Y-73809523D01*
X119476190Y-73714285D01*
X119428571Y-73523809D01*
X119428571Y-73380952D01*
X119476190Y-73190476D01*
X119523809Y-73095238D01*
X119619047Y-73000000D01*
X119761904Y-72952380D01*
X119857142Y-72952380D01*
X120000000Y-73000000D01*
X120047619Y-73047619D01*
X121238095Y-73952380D02*
X121238095Y-72952380D01*
X121619047Y-72952380D01*
X121714285Y-73000000D01*
X121761904Y-73047619D01*
X121809523Y-73142857D01*
X121809523Y-73285714D01*
X121761904Y-73380952D01*
X121714285Y-73428571D01*
X121619047Y-73476190D01*
X121238095Y-73476190D01*
X122238095Y-73952380D02*
X122238095Y-73285714D01*
X122238095Y-72952380D02*
X122190476Y-73000000D01*
X122238095Y-73047619D01*
X122285714Y-73000000D01*
X122238095Y-72952380D01*
X122238095Y-73047619D01*
X122714285Y-73285714D02*
X122714285Y-73952380D01*
X122714285Y-73380952D02*
X122761904Y-73333333D01*
X122857142Y-73285714D01*
X123000000Y-73285714D01*
X123095238Y-73333333D01*
X123142857Y-73428571D01*
X123142857Y-73952380D01*
X123571428Y-73904761D02*
X123666666Y-73952380D01*
X123857142Y-73952380D01*
X123952380Y-73904761D01*
X124000000Y-73809523D01*
X124000000Y-73761904D01*
X123952380Y-73666666D01*
X123857142Y-73619047D01*
X123714285Y-73619047D01*
X123619047Y-73571428D01*
X123571428Y-73476190D01*
X123571428Y-73428571D01*
X123619047Y-73333333D01*
X123714285Y-73285714D01*
X123857142Y-73285714D01*
X123952380Y-73333333D01*
X137714285Y-73666666D02*
X138190476Y-73666666D01*
X137619047Y-73952380D02*
X137952380Y-72952380D01*
X138285714Y-73952380D01*
X138619047Y-73285714D02*
X138619047Y-73952380D01*
X138619047Y-73380952D02*
X138666666Y-73333333D01*
X138761904Y-73285714D01*
X138904761Y-73285714D01*
X139000000Y-73333333D01*
X139047619Y-73428571D01*
X139047619Y-73952380D01*
X139952380Y-73952380D02*
X139952380Y-73428571D01*
X139904761Y-73333333D01*
X139809523Y-73285714D01*
X139619047Y-73285714D01*
X139523809Y-73333333D01*
X139952380Y-73904761D02*
X139857142Y-73952380D01*
X139619047Y-73952380D01*
X139523809Y-73904761D01*
X139476190Y-73809523D01*
X139476190Y-73714285D01*
X139523809Y-73619047D01*
X139619047Y-73571428D01*
X139857142Y-73571428D01*
X139952380Y-73523809D01*
X140571428Y-73952380D02*
X140476190Y-73904761D01*
X140428571Y-73809523D01*
X140428571Y-72952380D01*
X141095238Y-73952380D02*
X141000000Y-73904761D01*
X140952380Y-73857142D01*
X140904761Y-73761904D01*
X140904761Y-73476190D01*
X140952380Y-73380952D01*
X141000000Y-73333333D01*
X141095238Y-73285714D01*
X141238095Y-73285714D01*
X141333333Y-73333333D01*
X141380952Y-73380952D01*
X141428571Y-73476190D01*
X141428571Y-73761904D01*
X141380952Y-73857142D01*
X141333333Y-73904761D01*
X141238095Y-73952380D01*
X141095238Y-73952380D01*
X142285714Y-73285714D02*
X142285714Y-74095238D01*
X142238095Y-74190476D01*
X142190476Y-74238095D01*
X142095238Y-74285714D01*
X141952380Y-74285714D01*
X141857142Y-74238095D01*
X142285714Y-73904761D02*
X142190476Y-73952380D01*
X142000000Y-73952380D01*
X141904761Y-73904761D01*
X141857142Y-73857142D01*
X141809523Y-73761904D01*
X141809523Y-73476190D01*
X141857142Y-73380952D01*
X141904761Y-73333333D01*
X142000000Y-73285714D01*
X142190476Y-73285714D01*
X142285714Y-73333333D01*
X143523809Y-73952380D02*
X143523809Y-72952380D01*
X143904761Y-72952380D01*
X144000000Y-73000000D01*
X144047619Y-73047619D01*
X144095238Y-73142857D01*
X144095238Y-73285714D01*
X144047619Y-73380952D01*
X144000000Y-73428571D01*
X143904761Y-73476190D01*
X143523809Y-73476190D01*
X144523809Y-73952380D02*
X144523809Y-73285714D01*
X144523809Y-72952380D02*
X144476190Y-73000000D01*
X144523809Y-73047619D01*
X144571428Y-73000000D01*
X144523809Y-72952380D01*
X144523809Y-73047619D01*
X145000000Y-73285714D02*
X145000000Y-73952380D01*
X145000000Y-73380952D02*
X145047619Y-73333333D01*
X145142857Y-73285714D01*
X145285714Y-73285714D01*
X145380952Y-73333333D01*
X145428571Y-73428571D01*
X145428571Y-73952380D01*
X145857142Y-73904761D02*
X145952380Y-73952380D01*
X146142857Y-73952380D01*
X146238095Y-73904761D01*
X146285714Y-73809523D01*
X146285714Y-73761904D01*
X146238095Y-73666666D01*
X146142857Y-73619047D01*
X146000000Y-73619047D01*
X145904761Y-73571428D01*
X145857142Y-73476190D01*
X145857142Y-73428571D01*
X145904761Y-73333333D01*
X146000000Y-73285714D01*
X146142857Y-73285714D01*
X146238095Y-73333333D01*
X136190476Y-51452380D02*
X136190476Y-50452380D01*
X136523809Y-51166666D01*
X136857142Y-50452380D01*
X136857142Y-51452380D01*
X137904761Y-51357142D02*
X137857142Y-51404761D01*
X137714285Y-51452380D01*
X137619047Y-51452380D01*
X137476190Y-51404761D01*
X137380952Y-51309523D01*
X137333333Y-51214285D01*
X137285714Y-51023809D01*
X137285714Y-50880952D01*
X137333333Y-50690476D01*
X137380952Y-50595238D01*
X137476190Y-50500000D01*
X137619047Y-50452380D01*
X137714285Y-50452380D01*
X137857142Y-50500000D01*
X137904761Y-50547619D01*
X138285714Y-50547619D02*
X138333333Y-50500000D01*
X138428571Y-50452380D01*
X138666666Y-50452380D01*
X138761904Y-50500000D01*
X138809523Y-50547619D01*
X138857142Y-50642857D01*
X138857142Y-50738095D01*
X138809523Y-50880952D01*
X138238095Y-51452380D01*
X138857142Y-51452380D01*
X110190476Y-51452380D02*
X110190476Y-50452380D01*
X110523809Y-51166666D01*
X110857142Y-50452380D01*
X110857142Y-51452380D01*
X111904761Y-51357142D02*
X111857142Y-51404761D01*
X111714285Y-51452380D01*
X111619047Y-51452380D01*
X111476190Y-51404761D01*
X111380952Y-51309523D01*
X111333333Y-51214285D01*
X111285714Y-51023809D01*
X111285714Y-50880952D01*
X111333333Y-50690476D01*
X111380952Y-50595238D01*
X111476190Y-50500000D01*
X111619047Y-50452380D01*
X111714285Y-50452380D01*
X111857142Y-50500000D01*
X111904761Y-50547619D01*
X112857142Y-51452380D02*
X112285714Y-51452380D01*
X112571428Y-51452380D02*
X112571428Y-50452380D01*
X112476190Y-50595238D01*
X112380952Y-50690476D01*
X112285714Y-50738095D01*
X84940476Y-51452380D02*
X84940476Y-50452380D01*
X85273809Y-51166666D01*
X85607142Y-50452380D01*
X85607142Y-51452380D01*
X86654761Y-51357142D02*
X86607142Y-51404761D01*
X86464285Y-51452380D01*
X86369047Y-51452380D01*
X86226190Y-51404761D01*
X86130952Y-51309523D01*
X86083333Y-51214285D01*
X86035714Y-51023809D01*
X86035714Y-50880952D01*
X86083333Y-50690476D01*
X86130952Y-50595238D01*
X86226190Y-50500000D01*
X86369047Y-50452380D01*
X86464285Y-50452380D01*
X86607142Y-50500000D01*
X86654761Y-50547619D01*
X87273809Y-50452380D02*
X87369047Y-50452380D01*
X87464285Y-50500000D01*
X87511904Y-50547619D01*
X87559523Y-50642857D01*
X87607142Y-50833333D01*
X87607142Y-51071428D01*
X87559523Y-51261904D01*
X87511904Y-51357142D01*
X87464285Y-51404761D01*
X87369047Y-51452380D01*
X87273809Y-51452380D01*
X87178571Y-51404761D01*
X87130952Y-51357142D01*
X87083333Y-51261904D01*
X87035714Y-51071428D01*
X87035714Y-50833333D01*
X87083333Y-50642857D01*
X87130952Y-50547619D01*
X87178571Y-50500000D01*
X87273809Y-50452380D01*
X99607142Y-51452380D02*
X100178571Y-51452380D01*
X99892857Y-52452380D02*
X99892857Y-51452380D01*
X100892857Y-52404761D02*
X100797619Y-52452380D01*
X100607142Y-52452380D01*
X100511904Y-52404761D01*
X100464285Y-52309523D01*
X100464285Y-51928571D01*
X100511904Y-51833333D01*
X100607142Y-51785714D01*
X100797619Y-51785714D01*
X100892857Y-51833333D01*
X100940476Y-51928571D01*
X100940476Y-52023809D01*
X100464285Y-52119047D01*
X101321428Y-52404761D02*
X101416666Y-52452380D01*
X101607142Y-52452380D01*
X101702380Y-52404761D01*
X101750000Y-52309523D01*
X101750000Y-52261904D01*
X101702380Y-52166666D01*
X101607142Y-52119047D01*
X101464285Y-52119047D01*
X101369047Y-52071428D01*
X101321428Y-51976190D01*
X101321428Y-51928571D01*
X101369047Y-51833333D01*
X101464285Y-51785714D01*
X101607142Y-51785714D01*
X101702380Y-51833333D01*
X102035714Y-51785714D02*
X102416666Y-51785714D01*
X102178571Y-51452380D02*
X102178571Y-52309523D01*
X102226190Y-52404761D01*
X102321428Y-52452380D01*
X102416666Y-52452380D01*
X103988095Y-52452380D02*
X103511904Y-52452380D01*
X103511904Y-51452380D01*
X104321428Y-51928571D02*
X104654761Y-51928571D01*
X104797619Y-52452380D02*
X104321428Y-52452380D01*
X104321428Y-51452380D01*
X104797619Y-51452380D01*
X105226190Y-52452380D02*
X105226190Y-51452380D01*
X105464285Y-51452380D01*
X105607142Y-51500000D01*
X105702380Y-51595238D01*
X105750000Y-51690476D01*
X105797619Y-51880952D01*
X105797619Y-52023809D01*
X105750000Y-52214285D01*
X105702380Y-52309523D01*
X105607142Y-52404761D01*
X105464285Y-52452380D01*
X105226190Y-52452380D01*
X98785714Y-60452380D02*
X98785714Y-59452380D01*
X99166666Y-59452380D01*
X99261904Y-59500000D01*
X99309523Y-59547619D01*
X99357142Y-59642857D01*
X99357142Y-59785714D01*
X99309523Y-59880952D01*
X99261904Y-59928571D01*
X99166666Y-59976190D01*
X98785714Y-59976190D01*
X99928571Y-60452380D02*
X99833333Y-60404761D01*
X99785714Y-60357142D01*
X99738095Y-60261904D01*
X99738095Y-59976190D01*
X99785714Y-59880952D01*
X99833333Y-59833333D01*
X99928571Y-59785714D01*
X100071428Y-59785714D01*
X100166666Y-59833333D01*
X100214285Y-59880952D01*
X100261904Y-59976190D01*
X100261904Y-60261904D01*
X100214285Y-60357142D01*
X100166666Y-60404761D01*
X100071428Y-60452380D01*
X99928571Y-60452380D01*
X100595238Y-59785714D02*
X100785714Y-60452380D01*
X100976190Y-59976190D01*
X101166666Y-60452380D01*
X101357142Y-59785714D01*
X102119047Y-60404761D02*
X102023809Y-60452380D01*
X101833333Y-60452380D01*
X101738095Y-60404761D01*
X101690476Y-60309523D01*
X101690476Y-59928571D01*
X101738095Y-59833333D01*
X101833333Y-59785714D01*
X102023809Y-59785714D01*
X102119047Y-59833333D01*
X102166666Y-59928571D01*
X102166666Y-60023809D01*
X101690476Y-60119047D01*
X102595238Y-60452380D02*
X102595238Y-59785714D01*
X102595238Y-59976190D02*
X102642857Y-59880952D01*
X102690476Y-59833333D01*
X102785714Y-59785714D01*
X102880952Y-59785714D01*
X104452380Y-60452380D02*
X103976190Y-60452380D01*
X103976190Y-59452380D01*
X104785714Y-59928571D02*
X105119047Y-59928571D01*
X105261904Y-60452380D02*
X104785714Y-60452380D01*
X104785714Y-59452380D01*
X105261904Y-59452380D01*
X105690476Y-60452380D02*
X105690476Y-59452380D01*
X105928571Y-59452380D01*
X106071428Y-59500000D01*
X106166666Y-59595238D01*
X106214285Y-59690476D01*
X106261904Y-59880952D01*
X106261904Y-60023809D01*
X106214285Y-60214285D01*
X106166666Y-60309523D01*
X106071428Y-60404761D01*
X105928571Y-60452380D01*
X105690476Y-60452380D01*
X77642857Y-53428571D02*
X77785714Y-53476190D01*
X77833333Y-53523809D01*
X77880952Y-53619047D01*
X77880952Y-53761904D01*
X77833333Y-53857142D01*
X77785714Y-53904761D01*
X77690476Y-53952380D01*
X77309523Y-53952380D01*
X77309523Y-52952380D01*
X77642857Y-52952380D01*
X77738095Y-53000000D01*
X77785714Y-53047619D01*
X77833333Y-53142857D01*
X77833333Y-53238095D01*
X77785714Y-53333333D01*
X77738095Y-53380952D01*
X77642857Y-53428571D01*
X77309523Y-53428571D01*
X78309523Y-53428571D02*
X78642857Y-53428571D01*
X78785714Y-53952380D02*
X78309523Y-53952380D01*
X78309523Y-52952380D01*
X78785714Y-52952380D01*
X79166666Y-53047619D02*
X79214285Y-53000000D01*
X79309523Y-52952380D01*
X79547619Y-52952380D01*
X79642857Y-53000000D01*
X79690476Y-53047619D01*
X79738095Y-53142857D01*
X79738095Y-53238095D01*
X79690476Y-53380952D01*
X79119047Y-53952380D01*
X79738095Y-53952380D01*
X81642857Y-53428571D02*
X81785714Y-53476190D01*
X81833333Y-53523809D01*
X81880952Y-53619047D01*
X81880952Y-53761904D01*
X81833333Y-53857142D01*
X81785714Y-53904761D01*
X81690476Y-53952380D01*
X81309523Y-53952380D01*
X81309523Y-52952380D01*
X81642857Y-52952380D01*
X81738095Y-53000000D01*
X81785714Y-53047619D01*
X81833333Y-53142857D01*
X81833333Y-53238095D01*
X81785714Y-53333333D01*
X81738095Y-53380952D01*
X81642857Y-53428571D01*
X81309523Y-53428571D01*
X82309523Y-53428571D02*
X82642857Y-53428571D01*
X82785714Y-53952380D02*
X82309523Y-53952380D01*
X82309523Y-52952380D01*
X82785714Y-52952380D01*
X83738095Y-53952380D02*
X83166666Y-53952380D01*
X83452380Y-53952380D02*
X83452380Y-52952380D01*
X83357142Y-53095238D01*
X83261904Y-53190476D01*
X83166666Y-53238095D01*
X85392857Y-53428571D02*
X85535714Y-53476190D01*
X85583333Y-53523809D01*
X85630952Y-53619047D01*
X85630952Y-53761904D01*
X85583333Y-53857142D01*
X85535714Y-53904761D01*
X85440476Y-53952380D01*
X85059523Y-53952380D01*
X85059523Y-52952380D01*
X85392857Y-52952380D01*
X85488095Y-53000000D01*
X85535714Y-53047619D01*
X85583333Y-53142857D01*
X85583333Y-53238095D01*
X85535714Y-53333333D01*
X85488095Y-53380952D01*
X85392857Y-53428571D01*
X85059523Y-53428571D01*
X86059523Y-53428571D02*
X86392857Y-53428571D01*
X86535714Y-53952380D02*
X86059523Y-53952380D01*
X86059523Y-52952380D01*
X86535714Y-52952380D01*
X87154761Y-52952380D02*
X87250000Y-52952380D01*
X87345238Y-53000000D01*
X87392857Y-53047619D01*
X87440476Y-53142857D01*
X87488095Y-53333333D01*
X87488095Y-53571428D01*
X87440476Y-53761904D01*
X87392857Y-53857142D01*
X87345238Y-53904761D01*
X87250000Y-53952380D01*
X87154761Y-53952380D01*
X87059523Y-53904761D01*
X87011904Y-53857142D01*
X86964285Y-53761904D01*
X86916666Y-53571428D01*
X86916666Y-53333333D01*
X86964285Y-53142857D01*
X87011904Y-53047619D01*
X87059523Y-53000000D01*
X87154761Y-52952380D01*
D11*
G36*
X90902402Y-56273944D02*
G01*
X90915728Y-56123457D01*
X90937860Y-56004220D01*
X90960968Y-55939253D01*
X91036064Y-55850467D01*
X91137773Y-55802640D01*
X91252311Y-55797306D01*
X91365897Y-55836000D01*
X91433846Y-55886593D01*
X91507179Y-55956850D01*
X91618311Y-55872766D01*
X91686789Y-55823803D01*
X91736965Y-55793093D01*
X91750611Y-55787896D01*
X91764999Y-55812017D01*
X91771669Y-55871828D01*
X91771727Y-55878833D01*
X91764295Y-55938596D01*
X91733876Y-55985352D01*
X91668170Y-56035652D01*
X91643234Y-56051703D01*
X91568421Y-56102615D01*
X91531580Y-56143669D01*
X91521293Y-56192333D01*
X91523340Y-56235147D01*
X91532444Y-56299642D01*
X91556666Y-56330696D01*
X91612952Y-56342947D01*
X91651833Y-56346123D01*
X91727249Y-56354886D01*
X91761900Y-56374545D01*
X91771459Y-56417083D01*
X91771778Y-56437845D01*
X91771778Y-56520889D01*
X91066222Y-56520889D01*
X91066222Y-56351556D01*
X91376667Y-56351556D01*
X91376667Y-56222700D01*
X91370387Y-56131382D01*
X91354641Y-56056663D01*
X91347451Y-56039256D01*
X91298855Y-56000312D01*
X91223107Y-55984161D01*
X91145578Y-55992928D01*
X91100089Y-56018533D01*
X91080828Y-56064521D01*
X91068560Y-56145170D01*
X91066222Y-56201978D01*
X91066222Y-56351556D01*
X91066222Y-56520889D01*
X90889984Y-56520889D01*
X90902402Y-56273944D01*
G37*
X90902402Y-56273944D02*
X90915728Y-56123457D01*
X90937860Y-56004220D01*
X90960968Y-55939253D01*
X91036064Y-55850467D01*
X91137773Y-55802640D01*
X91252311Y-55797306D01*
X91365897Y-55836000D01*
X91433846Y-55886593D01*
X91507179Y-55956850D01*
X91618311Y-55872766D01*
X91686789Y-55823803D01*
X91736965Y-55793093D01*
X91750611Y-55787896D01*
X91764999Y-55812017D01*
X91771669Y-55871828D01*
X91771727Y-55878833D01*
X91764295Y-55938596D01*
X91733876Y-55985352D01*
X91668170Y-56035652D01*
X91643234Y-56051703D01*
X91568421Y-56102615D01*
X91531580Y-56143669D01*
X91521293Y-56192333D01*
X91523340Y-56235147D01*
X91532444Y-56299642D01*
X91556666Y-56330696D01*
X91612952Y-56342947D01*
X91651833Y-56346123D01*
X91727249Y-56354886D01*
X91761900Y-56374545D01*
X91771459Y-56417083D01*
X91771778Y-56437845D01*
X91771778Y-56520889D01*
X91066222Y-56520889D01*
X91066222Y-56351556D01*
X91376667Y-56351556D01*
X91376667Y-56222700D01*
X91370387Y-56131382D01*
X91354641Y-56056663D01*
X91347451Y-56039256D01*
X91298855Y-56000312D01*
X91223107Y-55984161D01*
X91145578Y-55992928D01*
X91100089Y-56018533D01*
X91080828Y-56064521D01*
X91068560Y-56145170D01*
X91066222Y-56201978D01*
X91066222Y-56351556D01*
X91066222Y-56520889D01*
X90889984Y-56520889D01*
X90902402Y-56273944D01*
G36*
X90912510Y-57048261D02*
G01*
X90922097Y-57019028D01*
X90947348Y-56991227D01*
X90995849Y-56959657D01*
X91075186Y-56919115D01*
X91192947Y-56864396D01*
X91306111Y-56813154D01*
X91445359Y-56751238D01*
X91567840Y-56698587D01*
X91663741Y-56659280D01*
X91723248Y-56637395D01*
X91736500Y-56634256D01*
X91762368Y-56658464D01*
X91771778Y-56713217D01*
X91759608Y-56774147D01*
X91713549Y-56818184D01*
X91673000Y-56839761D01*
X91574222Y-56886865D01*
X91574222Y-57285769D01*
X91673000Y-57327041D01*
X91740551Y-57363749D01*
X91768065Y-57409460D01*
X91771778Y-57452601D01*
X91764629Y-57511900D01*
X91747419Y-57536886D01*
X91747216Y-57536889D01*
X91714200Y-57525966D01*
X91639099Y-57495818D01*
X91531306Y-57450374D01*
X91411944Y-57398648D01*
X91411944Y-57198362D01*
X91424681Y-57173066D01*
X91432225Y-57109370D01*
X91433111Y-57073813D01*
X91433111Y-56949404D01*
X91277945Y-57010313D01*
X91195249Y-57045186D01*
X91138939Y-57073544D01*
X91122722Y-57086814D01*
X91146426Y-57103158D01*
X91205121Y-57129631D01*
X91280084Y-57159013D01*
X91352596Y-57184083D01*
X91403935Y-57197621D01*
X91411944Y-57198362D01*
X91411944Y-57398648D01*
X91400213Y-57393564D01*
X91316827Y-57356789D01*
X91164114Y-57288692D01*
X91055505Y-57238377D01*
X90983487Y-57200794D01*
X90940543Y-57170894D01*
X90919157Y-57143626D01*
X90911814Y-57113943D01*
X90911000Y-57084131D01*
X90912510Y-57048261D01*
G37*
X90912510Y-57048261D02*
X90922097Y-57019028D01*
X90947348Y-56991227D01*
X90995849Y-56959657D01*
X91075186Y-56919115D01*
X91192947Y-56864396D01*
X91306111Y-56813154D01*
X91445359Y-56751238D01*
X91567840Y-56698587D01*
X91663741Y-56659280D01*
X91723248Y-56637395D01*
X91736500Y-56634256D01*
X91762368Y-56658464D01*
X91771778Y-56713217D01*
X91759608Y-56774147D01*
X91713549Y-56818184D01*
X91673000Y-56839761D01*
X91574222Y-56886865D01*
X91574222Y-57285769D01*
X91673000Y-57327041D01*
X91740551Y-57363749D01*
X91768065Y-57409460D01*
X91771778Y-57452601D01*
X91764629Y-57511900D01*
X91747419Y-57536886D01*
X91747216Y-57536889D01*
X91714200Y-57525966D01*
X91639099Y-57495818D01*
X91531306Y-57450374D01*
X91411944Y-57398648D01*
X91411944Y-57198362D01*
X91424681Y-57173066D01*
X91432225Y-57109370D01*
X91433111Y-57073813D01*
X91433111Y-56949404D01*
X91277945Y-57010313D01*
X91195249Y-57045186D01*
X91138939Y-57073544D01*
X91122722Y-57086814D01*
X91146426Y-57103158D01*
X91205121Y-57129631D01*
X91280084Y-57159013D01*
X91352596Y-57184083D01*
X91403935Y-57197621D01*
X91411944Y-57198362D01*
X91411944Y-57398648D01*
X91400213Y-57393564D01*
X91316827Y-57356789D01*
X91164114Y-57288692D01*
X91055505Y-57238377D01*
X90983487Y-57200794D01*
X90940543Y-57170894D01*
X90919157Y-57143626D01*
X90911814Y-57113943D01*
X90911000Y-57084131D01*
X90912510Y-57048261D01*
G36*
X90907745Y-58476647D02*
G01*
X90945829Y-58433762D01*
X91019409Y-58379881D01*
X91115611Y-58320162D01*
X91252797Y-58238903D01*
X91344548Y-58180952D01*
X91392097Y-58137867D01*
X91396678Y-58101206D01*
X91359523Y-58062528D01*
X91281867Y-58013390D01*
X91169933Y-57948292D01*
X91047433Y-57874245D01*
X90966940Y-57819675D01*
X90920463Y-57777861D01*
X90900011Y-57742083D01*
X90896889Y-57718687D01*
X90896889Y-57649778D01*
X91771778Y-57649778D01*
X91771778Y-57819111D01*
X91510722Y-57819541D01*
X91249667Y-57819972D01*
X91468389Y-57949447D01*
X91565418Y-58010872D01*
X91640363Y-58065902D01*
X91682112Y-58106024D01*
X91687111Y-58117090D01*
X91664315Y-58148069D01*
X91603595Y-58197335D01*
X91516458Y-58255919D01*
X91482695Y-58276462D01*
X91278279Y-58397667D01*
X91517973Y-58411778D01*
X91634123Y-58419337D01*
X91705491Y-58428097D01*
X91743655Y-58442328D01*
X91760194Y-58466303D01*
X91766597Y-58503500D01*
X91775527Y-58581111D01*
X90896889Y-58581111D01*
X90896889Y-58515938D01*
X90907745Y-58476647D01*
G37*
X90907745Y-58476647D02*
X90945829Y-58433762D01*
X91019409Y-58379881D01*
X91115611Y-58320162D01*
X91252797Y-58238903D01*
X91344548Y-58180952D01*
X91392097Y-58137867D01*
X91396678Y-58101206D01*
X91359523Y-58062528D01*
X91281867Y-58013390D01*
X91169933Y-57948292D01*
X91047433Y-57874245D01*
X90966940Y-57819675D01*
X90920463Y-57777861D01*
X90900011Y-57742083D01*
X90896889Y-57718687D01*
X90896889Y-57649778D01*
X91771778Y-57649778D01*
X91771778Y-57819111D01*
X91510722Y-57819541D01*
X91249667Y-57819972D01*
X91468389Y-57949447D01*
X91565418Y-58010872D01*
X91640363Y-58065902D01*
X91682112Y-58106024D01*
X91687111Y-58117090D01*
X91664315Y-58148069D01*
X91603595Y-58197335D01*
X91516458Y-58255919D01*
X91482695Y-58276462D01*
X91278279Y-58397667D01*
X91517973Y-58411778D01*
X91634123Y-58419337D01*
X91705491Y-58428097D01*
X91743655Y-58442328D01*
X91760194Y-58466303D01*
X91766597Y-58503500D01*
X91775527Y-58581111D01*
X90896889Y-58581111D01*
X90896889Y-58515938D01*
X90907745Y-58476647D01*
G36*
X90915961Y-58893189D02*
G01*
X90948942Y-58820840D01*
X90996625Y-58785181D01*
X91020128Y-58784191D01*
X91053173Y-58792978D01*
X91070279Y-58815295D01*
X91073033Y-58862852D01*
X91063022Y-58947359D01*
X91051890Y-59018556D01*
X91048028Y-59118815D01*
X91076531Y-59187889D01*
X91126425Y-59225022D01*
X91176330Y-59206980D01*
X91224858Y-59135015D01*
X91269666Y-59013639D01*
X91321481Y-58877126D01*
X91384710Y-58790412D01*
X91465516Y-58747092D01*
X91533920Y-58739156D01*
X91632529Y-58754648D01*
X91700800Y-58805054D01*
X91742865Y-58896270D01*
X91762857Y-59034191D01*
X91764582Y-59068193D01*
X91763719Y-59209200D01*
X91747153Y-59307097D01*
X91728939Y-59350167D01*
X91692751Y-59408096D01*
X91661950Y-59424184D01*
X91615633Y-59406539D01*
X91602105Y-59399374D01*
X91569262Y-59375741D01*
X91564867Y-59342640D01*
X91586986Y-59280159D01*
X91589849Y-59273280D01*
X91623310Y-59161631D01*
X91630767Y-59059847D01*
X91614220Y-58979295D01*
X91575667Y-58931341D01*
X91528507Y-58924416D01*
X91486649Y-58955745D01*
X91443140Y-59036438D01*
X91414300Y-59112868D01*
X91363034Y-59245989D01*
X91313253Y-59331812D01*
X91256811Y-59378658D01*
X91185562Y-59394845D01*
X91139159Y-59393849D01*
X91054108Y-59377826D01*
X90995304Y-59334717D01*
X90961310Y-59289549D01*
X90920356Y-59200408D01*
X90900155Y-59095970D01*
X90899194Y-58989232D01*
X90915961Y-58893189D01*
G37*
X90915961Y-58893189D02*
X90948942Y-58820840D01*
X90996625Y-58785181D01*
X91020128Y-58784191D01*
X91053173Y-58792978D01*
X91070279Y-58815295D01*
X91073033Y-58862852D01*
X91063022Y-58947359D01*
X91051890Y-59018556D01*
X91048028Y-59118815D01*
X91076531Y-59187889D01*
X91126425Y-59225022D01*
X91176330Y-59206980D01*
X91224858Y-59135015D01*
X91269666Y-59013639D01*
X91321481Y-58877126D01*
X91384710Y-58790412D01*
X91465516Y-58747092D01*
X91533920Y-58739156D01*
X91632529Y-58754648D01*
X91700800Y-58805054D01*
X91742865Y-58896270D01*
X91762857Y-59034191D01*
X91764582Y-59068193D01*
X91763719Y-59209200D01*
X91747153Y-59307097D01*
X91728939Y-59350167D01*
X91692751Y-59408096D01*
X91661950Y-59424184D01*
X91615633Y-59406539D01*
X91602105Y-59399374D01*
X91569262Y-59375741D01*
X91564867Y-59342640D01*
X91586986Y-59280159D01*
X91589849Y-59273280D01*
X91623310Y-59161631D01*
X91630767Y-59059847D01*
X91614220Y-58979295D01*
X91575667Y-58931341D01*
X91528507Y-58924416D01*
X91486649Y-58955745D01*
X91443140Y-59036438D01*
X91414300Y-59112868D01*
X91363034Y-59245989D01*
X91313253Y-59331812D01*
X91256811Y-59378658D01*
X91185562Y-59394845D01*
X91139159Y-59393849D01*
X91054108Y-59377826D01*
X90995304Y-59334717D01*
X90961310Y-59289549D01*
X90920356Y-59200408D01*
X90900155Y-59095970D01*
X90899194Y-58989232D01*
X90915961Y-58893189D01*
G36*
X91859764Y-51515428D02*
G01*
X91893506Y-51423983D01*
X91935384Y-51356251D01*
X91979467Y-51328086D01*
X91981857Y-51328000D01*
X92019500Y-51346729D01*
X92015234Y-51402183D01*
X91983444Y-51469111D01*
X91940506Y-51592436D01*
X91945355Y-51713470D01*
X91990406Y-51822793D01*
X92068076Y-51910985D01*
X92170781Y-51968625D01*
X92290938Y-51986295D01*
X92385477Y-51968488D01*
X92499359Y-51902603D01*
X92576032Y-51795979D01*
X92609570Y-51675347D01*
X92613088Y-51560286D01*
X92582906Y-51487369D01*
X92513597Y-51449891D01*
X92419896Y-51440889D01*
X92335621Y-51437874D01*
X92293732Y-51425095D01*
X92280325Y-51396951D01*
X92279778Y-51384444D01*
X92285982Y-51352866D01*
X92313217Y-51335832D01*
X92374415Y-51329014D01*
X92448386Y-51328000D01*
X92543824Y-51330121D01*
X92599915Y-51340959D01*
X92633720Y-51367225D01*
X92660053Y-51411265D01*
X92693035Y-51517931D01*
X92702332Y-51647453D01*
X92688444Y-51775127D01*
X92651870Y-51876250D01*
X92650602Y-51878333D01*
X92571437Y-51984773D01*
X92484439Y-52047538D01*
X92370466Y-52078254D01*
X92311467Y-52084285D01*
X92145245Y-52075066D01*
X92013513Y-52021190D01*
X91916825Y-51923099D01*
X91855731Y-51781235D01*
X91840415Y-51706044D01*
X91840090Y-51614732D01*
X91859764Y-51515428D01*
G37*
X91859764Y-51515428D02*
X91893506Y-51423983D01*
X91935384Y-51356251D01*
X91979467Y-51328086D01*
X91981857Y-51328000D01*
X92019500Y-51346729D01*
X92015234Y-51402183D01*
X91983444Y-51469111D01*
X91940506Y-51592436D01*
X91945355Y-51713470D01*
X91990406Y-51822793D01*
X92068076Y-51910985D01*
X92170781Y-51968625D01*
X92290938Y-51986295D01*
X92385477Y-51968488D01*
X92499359Y-51902603D01*
X92576032Y-51795979D01*
X92609570Y-51675347D01*
X92613088Y-51560286D01*
X92582906Y-51487369D01*
X92513597Y-51449891D01*
X92419896Y-51440889D01*
X92335621Y-51437874D01*
X92293732Y-51425095D01*
X92280325Y-51396951D01*
X92279778Y-51384444D01*
X92285982Y-51352866D01*
X92313217Y-51335832D01*
X92374415Y-51329014D01*
X92448386Y-51328000D01*
X92543824Y-51330121D01*
X92599915Y-51340959D01*
X92633720Y-51367225D01*
X92660053Y-51411265D01*
X92693035Y-51517931D01*
X92702332Y-51647453D01*
X92688444Y-51775127D01*
X92651870Y-51876250D01*
X92650602Y-51878333D01*
X92571437Y-51984773D01*
X92484439Y-52047538D01*
X92370466Y-52078254D01*
X92311467Y-52084285D01*
X92145245Y-52075066D01*
X92013513Y-52021190D01*
X91916825Y-51923099D01*
X91855731Y-51781235D01*
X91840415Y-51706044D01*
X91840090Y-51614732D01*
X91859764Y-51515428D01*
G36*
X90497199Y-55217211D02*
G01*
X90517508Y-55191695D01*
X90539138Y-55139865D01*
X90563630Y-55055798D01*
X90592521Y-54933568D01*
X90627350Y-54767251D01*
X90668024Y-54559444D01*
X90707760Y-54353286D01*
X90748945Y-54141779D01*
X90788702Y-53939546D01*
X90824153Y-53761210D01*
X90852423Y-53621394D01*
X90856047Y-53603769D01*
X90883496Y-53461622D01*
X90905775Y-53328941D01*
X90920442Y-53221459D01*
X90925111Y-53159269D01*
X90932515Y-53081975D01*
X90956884Y-53051048D01*
X90967444Y-53049556D01*
X91000596Y-53074008D01*
X91009778Y-53136834D01*
X91009778Y-53224111D01*
X91327278Y-53217362D01*
X91459260Y-53216320D01*
X91573097Y-53218678D01*
X91655297Y-53223957D01*
X91689956Y-53230266D01*
X91742685Y-53244347D01*
X91760511Y-53243885D01*
X91805093Y-53245617D01*
X91856444Y-53255623D01*
X91911101Y-53263048D01*
X92008668Y-53270331D01*
X92135617Y-53276661D01*
X92278417Y-53281227D01*
X92286840Y-53281419D01*
X92646680Y-53289444D01*
X92646673Y-53155389D01*
X92646667Y-53021333D01*
X92476792Y-53021196D01*
X92476792Y-52918031D01*
X92571149Y-52915726D01*
X92628196Y-52898382D01*
X92657482Y-52857556D01*
X92668561Y-52784806D01*
X92670983Y-52671691D01*
X92671615Y-52616725D01*
X92674889Y-52395561D01*
X92554944Y-52484381D01*
X92474067Y-52543709D01*
X92367451Y-52621170D01*
X92255294Y-52702101D01*
X92230850Y-52719655D01*
X92140026Y-52786814D01*
X92069867Y-52842501D01*
X92030848Y-52878225D01*
X92026239Y-52885517D01*
X92052364Y-52894070D01*
X92123547Y-52902405D01*
X92228410Y-52909484D01*
X92335571Y-52913739D01*
X92476792Y-52918031D01*
X92476792Y-53021196D01*
X92399722Y-53021133D01*
X92256543Y-53018811D01*
X92106668Y-53012869D01*
X91979669Y-53004522D01*
X91965899Y-53003279D01*
X91864716Y-52991336D01*
X91809589Y-52977121D01*
X91790146Y-52956872D01*
X91791371Y-52939979D01*
X91817692Y-52907725D01*
X91881603Y-52850196D01*
X91974509Y-52774566D01*
X92087815Y-52688010D01*
X92133472Y-52654444D01*
X92463222Y-52414556D01*
X92161095Y-52395834D01*
X92010186Y-52385307D01*
X91907818Y-52374337D01*
X91846113Y-52360783D01*
X91817195Y-52342509D01*
X91813185Y-52317375D01*
X91817658Y-52302599D01*
X91841000Y-52280966D01*
X91896459Y-52271646D01*
X91994738Y-52273171D01*
X92021037Y-52274682D01*
X92144111Y-52282061D01*
X92293347Y-52290639D01*
X92438538Y-52298685D01*
X92452629Y-52299445D01*
X92696036Y-52312531D01*
X92714927Y-51827321D01*
X92723133Y-51621613D01*
X92730684Y-51465473D01*
X92739163Y-51352066D01*
X92750156Y-51274562D01*
X92765246Y-51226127D01*
X92786017Y-51199927D01*
X92814054Y-51189132D01*
X92850940Y-51186907D01*
X92863417Y-51186889D01*
X92962795Y-51186889D01*
X92945089Y-51532611D01*
X92939755Y-51638697D01*
X92932148Y-51792683D01*
X92922682Y-51986086D01*
X92911769Y-52210425D01*
X92899822Y-52457218D01*
X92887253Y-52717985D01*
X92874473Y-52984244D01*
X92872022Y-53035444D01*
X92859459Y-53293864D01*
X92847033Y-53541656D01*
X92835137Y-53771567D01*
X92824161Y-53976339D01*
X92814498Y-54148718D01*
X92806538Y-54281446D01*
X92800672Y-54367268D01*
X92799355Y-54383056D01*
X92782049Y-54573556D01*
X92686136Y-54573556D01*
X92621036Y-54568466D01*
X92594841Y-54543011D01*
X92590222Y-54488889D01*
X92587240Y-54439580D01*
X92568818Y-54414057D01*
X92520745Y-54403881D01*
X92505555Y-54403307D01*
X92505555Y-54299616D01*
X92505555Y-54110629D01*
X92498772Y-53988553D01*
X92480642Y-53886846D01*
X92464465Y-53842182D01*
X92399982Y-53767212D01*
X92302497Y-53706474D01*
X92195445Y-53673173D01*
X92159742Y-53670444D01*
X92065881Y-53694192D01*
X91971075Y-53755337D01*
X91895000Y-53838739D01*
X91865093Y-53897200D01*
X91843599Y-53988451D01*
X91830999Y-54097054D01*
X91829815Y-54129056D01*
X91828222Y-54263111D01*
X91950964Y-54263111D01*
X92041974Y-54265595D01*
X92163114Y-54272111D01*
X92288328Y-54281254D01*
X92289631Y-54281363D01*
X92505555Y-54299616D01*
X92505555Y-54403307D01*
X92442055Y-54400907D01*
X92346832Y-54397572D01*
X92217168Y-54391445D01*
X92074933Y-54383604D01*
X92011667Y-54379741D01*
X91729444Y-54361889D01*
X91739774Y-54122000D01*
X91751657Y-53966515D01*
X91774935Y-53852725D01*
X91814456Y-53766265D01*
X91875062Y-53692767D01*
X91889041Y-53679380D01*
X92013532Y-53597589D01*
X92149452Y-53566401D01*
X92287616Y-53583872D01*
X92418840Y-53648059D01*
X92533939Y-53757019D01*
X92581507Y-53825894D01*
X92597799Y-53844508D01*
X92608166Y-53829716D01*
X92613954Y-53774409D01*
X92616507Y-53671476D01*
X92616785Y-53639312D01*
X92618444Y-53396513D01*
X92205563Y-53381058D01*
X92028137Y-53372799D01*
X91901388Y-53362878D01*
X91819557Y-53350590D01*
X91776886Y-53335232D01*
X91769294Y-53327760D01*
X91741609Y-53304616D01*
X91710864Y-53324958D01*
X91666668Y-53342460D01*
X91573470Y-53353834D01*
X91428382Y-53359352D01*
X91338350Y-53360000D01*
X91000879Y-53360000D01*
X91019611Y-54044389D01*
X91025699Y-54246938D01*
X91032536Y-54441073D01*
X91039675Y-54616257D01*
X91046668Y-54761949D01*
X91053066Y-54867611D01*
X91056203Y-54905167D01*
X91074062Y-55081556D01*
X91394697Y-55081556D01*
X91537914Y-55079176D01*
X91643148Y-55072443D01*
X91703477Y-55061967D01*
X91715333Y-55053333D01*
X91742989Y-55042952D01*
X91823767Y-55034789D01*
X91954381Y-55029007D01*
X92131547Y-55025772D01*
X92278958Y-55025111D01*
X92842584Y-55025111D01*
X92850458Y-54651167D01*
X92858333Y-54277222D01*
X93013555Y-54259362D01*
X93013555Y-55617778D01*
X92944665Y-55617778D01*
X92884908Y-55607372D01*
X92858333Y-55589556D01*
X92825407Y-55579830D01*
X92825407Y-55297926D01*
X92842185Y-55294052D01*
X92844222Y-55279111D01*
X92833896Y-55255881D01*
X92825407Y-55260296D01*
X92822030Y-55293790D01*
X92825407Y-55297926D01*
X92825407Y-55579830D01*
X92824246Y-55579487D01*
X92739105Y-55571374D01*
X92714870Y-55570284D01*
X92714870Y-55389772D01*
X92751475Y-55384583D01*
X92751912Y-55374949D01*
X92723107Y-55369812D01*
X92723107Y-55211185D01*
X92733283Y-55207350D01*
X92758308Y-55180106D01*
X92729806Y-55166774D01*
X92715556Y-55166222D01*
X92686489Y-55180108D01*
X92689284Y-55194905D01*
X92723107Y-55211185D01*
X92723107Y-55369812D01*
X92714140Y-55368212D01*
X92697819Y-55372721D01*
X92687129Y-55385253D01*
X92714870Y-55389772D01*
X92714870Y-55570284D01*
X92608279Y-55565486D01*
X92599629Y-55565315D01*
X92599629Y-55297926D01*
X92616408Y-55294052D01*
X92618444Y-55279111D01*
X92608118Y-55255881D01*
X92599629Y-55260296D01*
X92596252Y-55293790D01*
X92599629Y-55297926D01*
X92599629Y-55565315D01*
X92449111Y-55562326D01*
X92449111Y-55321444D01*
X92473272Y-55315047D01*
X92477333Y-55294888D01*
X92462598Y-55256274D01*
X92449111Y-55250889D01*
X92421697Y-55271145D01*
X92420889Y-55277446D01*
X92441403Y-55315668D01*
X92449111Y-55321444D01*
X92449111Y-55562326D01*
X92437134Y-55562088D01*
X92336222Y-55561566D01*
X92336222Y-55392000D01*
X92359452Y-55381674D01*
X92355037Y-55373185D01*
X92347981Y-55372474D01*
X92347981Y-55192216D01*
X92384586Y-55187028D01*
X92385023Y-55177394D01*
X92347251Y-55170656D01*
X92330930Y-55175166D01*
X92320240Y-55187697D01*
X92347981Y-55192216D01*
X92347981Y-55372474D01*
X92321544Y-55369808D01*
X92317407Y-55373185D01*
X92321281Y-55389963D01*
X92336222Y-55392000D01*
X92336222Y-55561566D01*
X92291337Y-55561333D01*
X92232741Y-55561153D01*
X92232741Y-55297926D01*
X92249519Y-55294052D01*
X92251555Y-55279111D01*
X92241229Y-55255881D01*
X92232741Y-55260296D01*
X92229363Y-55293790D01*
X92232741Y-55297926D01*
X92232741Y-55561153D01*
X92097990Y-55560737D01*
X92063407Y-55560222D01*
X92063407Y-55297926D01*
X92080185Y-55294052D01*
X92082222Y-55279111D01*
X92071896Y-55255881D01*
X92063407Y-55260296D01*
X92060030Y-55293790D01*
X92063407Y-55297926D01*
X92063407Y-55560222D01*
X91953942Y-55558590D01*
X91952870Y-55558546D01*
X91952870Y-55389772D01*
X91989475Y-55384583D01*
X91989912Y-55374949D01*
X91952870Y-55368343D01*
X91952870Y-55192216D01*
X91989475Y-55187028D01*
X91989912Y-55177394D01*
X91952140Y-55170656D01*
X91935819Y-55175166D01*
X91925129Y-55187697D01*
X91952870Y-55192216D01*
X91952870Y-55368343D01*
X91952140Y-55368212D01*
X91935819Y-55372721D01*
X91925129Y-55385253D01*
X91952870Y-55389772D01*
X91952870Y-55558546D01*
X91852055Y-55554360D01*
X91837629Y-55552883D01*
X91837629Y-55297926D01*
X91854408Y-55294052D01*
X91856444Y-55279111D01*
X91846118Y-55255881D01*
X91837629Y-55260296D01*
X91834252Y-55293790D01*
X91837629Y-55297926D01*
X91837629Y-55552883D01*
X91785193Y-55547512D01*
X91746220Y-55537513D01*
X91727997Y-55523828D01*
X91725539Y-55519000D01*
X91707888Y-55500049D01*
X91668296Y-55488143D01*
X91668296Y-55297926D01*
X91685074Y-55294052D01*
X91687111Y-55279111D01*
X91676785Y-55255881D01*
X91668296Y-55260296D01*
X91664918Y-55293790D01*
X91668296Y-55297926D01*
X91668296Y-55488143D01*
X91666165Y-55487502D01*
X91591273Y-55480219D01*
X91574222Y-55479760D01*
X91574222Y-55392000D01*
X91597452Y-55381674D01*
X91593037Y-55373185D01*
X91559544Y-55369808D01*
X91557759Y-55371265D01*
X91557759Y-55192216D01*
X91594364Y-55187028D01*
X91594801Y-55177394D01*
X91557028Y-55170656D01*
X91540708Y-55175166D01*
X91530018Y-55187697D01*
X91557759Y-55192216D01*
X91557759Y-55371265D01*
X91555407Y-55373185D01*
X91559281Y-55389963D01*
X91574222Y-55392000D01*
X91574222Y-55479760D01*
X91474117Y-55477059D01*
X91461333Y-55477001D01*
X91461333Y-55307333D01*
X91488735Y-55285857D01*
X91489555Y-55279111D01*
X91468079Y-55251709D01*
X91461333Y-55250889D01*
X91433931Y-55272365D01*
X91433111Y-55279111D01*
X91454587Y-55306513D01*
X91461333Y-55307333D01*
X91461333Y-55477001D01*
X91387758Y-55476667D01*
X91301407Y-55476667D01*
X91301407Y-55297926D01*
X91318185Y-55294052D01*
X91320222Y-55279111D01*
X91309896Y-55255881D01*
X91301407Y-55260296D01*
X91298030Y-55293790D01*
X91301407Y-55297926D01*
X91301407Y-55476667D01*
X91190870Y-55476667D01*
X91190870Y-55389772D01*
X91227475Y-55384583D01*
X91227912Y-55374949D01*
X91199107Y-55369812D01*
X91199107Y-55211185D01*
X91209283Y-55207350D01*
X91234308Y-55180106D01*
X91205806Y-55166774D01*
X91191556Y-55166222D01*
X91162489Y-55180108D01*
X91165284Y-55194905D01*
X91199107Y-55211185D01*
X91199107Y-55369812D01*
X91190140Y-55368212D01*
X91173819Y-55372721D01*
X91163129Y-55385253D01*
X91190870Y-55389772D01*
X91190870Y-55476667D01*
X91075629Y-55476667D01*
X91075629Y-55297926D01*
X91092408Y-55294052D01*
X91094444Y-55279111D01*
X91084118Y-55255881D01*
X91075629Y-55260296D01*
X91072252Y-55293790D01*
X91075629Y-55297926D01*
X91075629Y-55476667D01*
X91066222Y-55476667D01*
X91066222Y-55617778D01*
X91064372Y-55701312D01*
X91052999Y-55742968D01*
X91023366Y-55757304D01*
X90981555Y-55758889D01*
X90919007Y-55748180D01*
X90896889Y-55722728D01*
X90896889Y-55600116D01*
X90896889Y-55527340D01*
X90881319Y-55466880D01*
X90855464Y-55452925D01*
X90855464Y-55342922D01*
X90887771Y-55338429D01*
X90896520Y-55305626D01*
X90896889Y-55276658D01*
X90893300Y-55224524D01*
X90871557Y-55210101D01*
X90815196Y-55224655D01*
X90805167Y-55227987D01*
X90723393Y-55259440D01*
X90695909Y-55283909D01*
X90721744Y-55305910D01*
X90784147Y-55325843D01*
X90855464Y-55342922D01*
X90855464Y-55452925D01*
X90825172Y-55436573D01*
X90823003Y-55436019D01*
X90759748Y-55424879D01*
X90742703Y-55437531D01*
X90771369Y-55477940D01*
X90812516Y-55519282D01*
X90896889Y-55600116D01*
X90896889Y-55722728D01*
X90876788Y-55683639D01*
X90824425Y-55620828D01*
X90751709Y-55545710D01*
X90670551Y-55469704D01*
X90627664Y-55433560D01*
X90627664Y-55194444D01*
X90654851Y-55186199D01*
X90718406Y-55165180D01*
X90763518Y-55149916D01*
X90894203Y-55105387D01*
X90904321Y-54945305D01*
X90907481Y-54868430D01*
X90910453Y-54746387D01*
X90913058Y-54590450D01*
X90915113Y-54411896D01*
X90916438Y-54221998D01*
X90916618Y-54178444D01*
X90916704Y-53977178D01*
X90915227Y-53829724D01*
X90912058Y-53733467D01*
X90907064Y-53685794D01*
X90900116Y-53684089D01*
X90893294Y-53712778D01*
X90880389Y-53783270D01*
X90859112Y-53898451D01*
X90831467Y-54047527D01*
X90799455Y-54219705D01*
X90765078Y-54404191D01*
X90757174Y-54446556D01*
X90714790Y-54674203D01*
X90681957Y-54852074D01*
X90657691Y-54985847D01*
X90641010Y-55081198D01*
X90630930Y-55143805D01*
X90626468Y-55179345D01*
X90626642Y-55193494D01*
X90627664Y-55194444D01*
X90627664Y-55433560D01*
X90592860Y-55404227D01*
X90530545Y-55360696D01*
X90508833Y-55350715D01*
X90455311Y-55316034D01*
X90452803Y-55266571D01*
X90497199Y-55217211D01*
G37*
X90497199Y-55217211D02*
X90517508Y-55191695D01*
X90539138Y-55139865D01*
X90563630Y-55055798D01*
X90592521Y-54933568D01*
X90627350Y-54767251D01*
X90668024Y-54559444D01*
X90707760Y-54353286D01*
X90748945Y-54141779D01*
X90788702Y-53939546D01*
X90824153Y-53761210D01*
X90852423Y-53621394D01*
X90856047Y-53603769D01*
X90883496Y-53461622D01*
X90905775Y-53328941D01*
X90920442Y-53221459D01*
X90925111Y-53159269D01*
X90932515Y-53081975D01*
X90956884Y-53051048D01*
X90967444Y-53049556D01*
X91000596Y-53074008D01*
X91009778Y-53136834D01*
X91009778Y-53224111D01*
X91327278Y-53217362D01*
X91459260Y-53216320D01*
X91573097Y-53218678D01*
X91655297Y-53223957D01*
X91689956Y-53230266D01*
X91742685Y-53244347D01*
X91760511Y-53243885D01*
X91805093Y-53245617D01*
X91856444Y-53255623D01*
X91911101Y-53263048D01*
X92008668Y-53270331D01*
X92135617Y-53276661D01*
X92278417Y-53281227D01*
X92286840Y-53281419D01*
X92646680Y-53289444D01*
X92646673Y-53155389D01*
X92646667Y-53021333D01*
X92476792Y-53021196D01*
X92476792Y-52918031D01*
X92571149Y-52915726D01*
X92628196Y-52898382D01*
X92657482Y-52857556D01*
X92668561Y-52784806D01*
X92670983Y-52671691D01*
X92671615Y-52616725D01*
X92674889Y-52395561D01*
X92554944Y-52484381D01*
X92474067Y-52543709D01*
X92367451Y-52621170D01*
X92255294Y-52702101D01*
X92230850Y-52719655D01*
X92140026Y-52786814D01*
X92069867Y-52842501D01*
X92030848Y-52878225D01*
X92026239Y-52885517D01*
X92052364Y-52894070D01*
X92123547Y-52902405D01*
X92228410Y-52909484D01*
X92335571Y-52913739D01*
X92476792Y-52918031D01*
X92476792Y-53021196D01*
X92399722Y-53021133D01*
X92256543Y-53018811D01*
X92106668Y-53012869D01*
X91979669Y-53004522D01*
X91965899Y-53003279D01*
X91864716Y-52991336D01*
X91809589Y-52977121D01*
X91790146Y-52956872D01*
X91791371Y-52939979D01*
X91817692Y-52907725D01*
X91881603Y-52850196D01*
X91974509Y-52774566D01*
X92087815Y-52688010D01*
X92133472Y-52654444D01*
X92463222Y-52414556D01*
X92161095Y-52395834D01*
X92010186Y-52385307D01*
X91907818Y-52374337D01*
X91846113Y-52360783D01*
X91817195Y-52342509D01*
X91813185Y-52317375D01*
X91817658Y-52302599D01*
X91841000Y-52280966D01*
X91896459Y-52271646D01*
X91994738Y-52273171D01*
X92021037Y-52274682D01*
X92144111Y-52282061D01*
X92293347Y-52290639D01*
X92438538Y-52298685D01*
X92452629Y-52299445D01*
X92696036Y-52312531D01*
X92714927Y-51827321D01*
X92723133Y-51621613D01*
X92730684Y-51465473D01*
X92739163Y-51352066D01*
X92750156Y-51274562D01*
X92765246Y-51226127D01*
X92786017Y-51199927D01*
X92814054Y-51189132D01*
X92850940Y-51186907D01*
X92863417Y-51186889D01*
X92962795Y-51186889D01*
X92945089Y-51532611D01*
X92939755Y-51638697D01*
X92932148Y-51792683D01*
X92922682Y-51986086D01*
X92911769Y-52210425D01*
X92899822Y-52457218D01*
X92887253Y-52717985D01*
X92874473Y-52984244D01*
X92872022Y-53035444D01*
X92859459Y-53293864D01*
X92847033Y-53541656D01*
X92835137Y-53771567D01*
X92824161Y-53976339D01*
X92814498Y-54148718D01*
X92806538Y-54281446D01*
X92800672Y-54367268D01*
X92799355Y-54383056D01*
X92782049Y-54573556D01*
X92686136Y-54573556D01*
X92621036Y-54568466D01*
X92594841Y-54543011D01*
X92590222Y-54488889D01*
X92587240Y-54439580D01*
X92568818Y-54414057D01*
X92520745Y-54403881D01*
X92505555Y-54403307D01*
X92505555Y-54299616D01*
X92505555Y-54110629D01*
X92498772Y-53988553D01*
X92480642Y-53886846D01*
X92464465Y-53842182D01*
X92399982Y-53767212D01*
X92302497Y-53706474D01*
X92195445Y-53673173D01*
X92159742Y-53670444D01*
X92065881Y-53694192D01*
X91971075Y-53755337D01*
X91895000Y-53838739D01*
X91865093Y-53897200D01*
X91843599Y-53988451D01*
X91830999Y-54097054D01*
X91829815Y-54129056D01*
X91828222Y-54263111D01*
X91950964Y-54263111D01*
X92041974Y-54265595D01*
X92163114Y-54272111D01*
X92288328Y-54281254D01*
X92289631Y-54281363D01*
X92505555Y-54299616D01*
X92505555Y-54403307D01*
X92442055Y-54400907D01*
X92346832Y-54397572D01*
X92217168Y-54391445D01*
X92074933Y-54383604D01*
X92011667Y-54379741D01*
X91729444Y-54361889D01*
X91739774Y-54122000D01*
X91751657Y-53966515D01*
X91774935Y-53852725D01*
X91814456Y-53766265D01*
X91875062Y-53692767D01*
X91889041Y-53679380D01*
X92013532Y-53597589D01*
X92149452Y-53566401D01*
X92287616Y-53583872D01*
X92418840Y-53648059D01*
X92533939Y-53757019D01*
X92581507Y-53825894D01*
X92597799Y-53844508D01*
X92608166Y-53829716D01*
X92613954Y-53774409D01*
X92616507Y-53671476D01*
X92616785Y-53639312D01*
X92618444Y-53396513D01*
X92205563Y-53381058D01*
X92028137Y-53372799D01*
X91901388Y-53362878D01*
X91819557Y-53350590D01*
X91776886Y-53335232D01*
X91769294Y-53327760D01*
X91741609Y-53304616D01*
X91710864Y-53324958D01*
X91666668Y-53342460D01*
X91573470Y-53353834D01*
X91428382Y-53359352D01*
X91338350Y-53360000D01*
X91000879Y-53360000D01*
X91019611Y-54044389D01*
X91025699Y-54246938D01*
X91032536Y-54441073D01*
X91039675Y-54616257D01*
X91046668Y-54761949D01*
X91053066Y-54867611D01*
X91056203Y-54905167D01*
X91074062Y-55081556D01*
X91394697Y-55081556D01*
X91537914Y-55079176D01*
X91643148Y-55072443D01*
X91703477Y-55061967D01*
X91715333Y-55053333D01*
X91742989Y-55042952D01*
X91823767Y-55034789D01*
X91954381Y-55029007D01*
X92131547Y-55025772D01*
X92278958Y-55025111D01*
X92842584Y-55025111D01*
X92850458Y-54651167D01*
X92858333Y-54277222D01*
X93013555Y-54259362D01*
X93013555Y-55617778D01*
X92944665Y-55617778D01*
X92884908Y-55607372D01*
X92858333Y-55589556D01*
X92825407Y-55579830D01*
X92825407Y-55297926D01*
X92842185Y-55294052D01*
X92844222Y-55279111D01*
X92833896Y-55255881D01*
X92825407Y-55260296D01*
X92822030Y-55293790D01*
X92825407Y-55297926D01*
X92825407Y-55579830D01*
X92824246Y-55579487D01*
X92739105Y-55571374D01*
X92714870Y-55570284D01*
X92714870Y-55389772D01*
X92751475Y-55384583D01*
X92751912Y-55374949D01*
X92723107Y-55369812D01*
X92723107Y-55211185D01*
X92733283Y-55207350D01*
X92758308Y-55180106D01*
X92729806Y-55166774D01*
X92715556Y-55166222D01*
X92686489Y-55180108D01*
X92689284Y-55194905D01*
X92723107Y-55211185D01*
X92723107Y-55369812D01*
X92714140Y-55368212D01*
X92697819Y-55372721D01*
X92687129Y-55385253D01*
X92714870Y-55389772D01*
X92714870Y-55570284D01*
X92608279Y-55565486D01*
X92599629Y-55565315D01*
X92599629Y-55297926D01*
X92616408Y-55294052D01*
X92618444Y-55279111D01*
X92608118Y-55255881D01*
X92599629Y-55260296D01*
X92596252Y-55293790D01*
X92599629Y-55297926D01*
X92599629Y-55565315D01*
X92449111Y-55562326D01*
X92449111Y-55321444D01*
X92473272Y-55315047D01*
X92477333Y-55294888D01*
X92462598Y-55256274D01*
X92449111Y-55250889D01*
X92421697Y-55271145D01*
X92420889Y-55277446D01*
X92441403Y-55315668D01*
X92449111Y-55321444D01*
X92449111Y-55562326D01*
X92437134Y-55562088D01*
X92336222Y-55561566D01*
X92336222Y-55392000D01*
X92359452Y-55381674D01*
X92355037Y-55373185D01*
X92347981Y-55372474D01*
X92347981Y-55192216D01*
X92384586Y-55187028D01*
X92385023Y-55177394D01*
X92347251Y-55170656D01*
X92330930Y-55175166D01*
X92320240Y-55187697D01*
X92347981Y-55192216D01*
X92347981Y-55372474D01*
X92321544Y-55369808D01*
X92317407Y-55373185D01*
X92321281Y-55389963D01*
X92336222Y-55392000D01*
X92336222Y-55561566D01*
X92291337Y-55561333D01*
X92232741Y-55561153D01*
X92232741Y-55297926D01*
X92249519Y-55294052D01*
X92251555Y-55279111D01*
X92241229Y-55255881D01*
X92232741Y-55260296D01*
X92229363Y-55293790D01*
X92232741Y-55297926D01*
X92232741Y-55561153D01*
X92097990Y-55560737D01*
X92063407Y-55560222D01*
X92063407Y-55297926D01*
X92080185Y-55294052D01*
X92082222Y-55279111D01*
X92071896Y-55255881D01*
X92063407Y-55260296D01*
X92060030Y-55293790D01*
X92063407Y-55297926D01*
X92063407Y-55560222D01*
X91953942Y-55558590D01*
X91952870Y-55558546D01*
X91952870Y-55389772D01*
X91989475Y-55384583D01*
X91989912Y-55374949D01*
X91952870Y-55368343D01*
X91952870Y-55192216D01*
X91989475Y-55187028D01*
X91989912Y-55177394D01*
X91952140Y-55170656D01*
X91935819Y-55175166D01*
X91925129Y-55187697D01*
X91952870Y-55192216D01*
X91952870Y-55368343D01*
X91952140Y-55368212D01*
X91935819Y-55372721D01*
X91925129Y-55385253D01*
X91952870Y-55389772D01*
X91952870Y-55558546D01*
X91852055Y-55554360D01*
X91837629Y-55552883D01*
X91837629Y-55297926D01*
X91854408Y-55294052D01*
X91856444Y-55279111D01*
X91846118Y-55255881D01*
X91837629Y-55260296D01*
X91834252Y-55293790D01*
X91837629Y-55297926D01*
X91837629Y-55552883D01*
X91785193Y-55547512D01*
X91746220Y-55537513D01*
X91727997Y-55523828D01*
X91725539Y-55519000D01*
X91707888Y-55500049D01*
X91668296Y-55488143D01*
X91668296Y-55297926D01*
X91685074Y-55294052D01*
X91687111Y-55279111D01*
X91676785Y-55255881D01*
X91668296Y-55260296D01*
X91664918Y-55293790D01*
X91668296Y-55297926D01*
X91668296Y-55488143D01*
X91666165Y-55487502D01*
X91591273Y-55480219D01*
X91574222Y-55479760D01*
X91574222Y-55392000D01*
X91597452Y-55381674D01*
X91593037Y-55373185D01*
X91559544Y-55369808D01*
X91557759Y-55371265D01*
X91557759Y-55192216D01*
X91594364Y-55187028D01*
X91594801Y-55177394D01*
X91557028Y-55170656D01*
X91540708Y-55175166D01*
X91530018Y-55187697D01*
X91557759Y-55192216D01*
X91557759Y-55371265D01*
X91555407Y-55373185D01*
X91559281Y-55389963D01*
X91574222Y-55392000D01*
X91574222Y-55479760D01*
X91474117Y-55477059D01*
X91461333Y-55477001D01*
X91461333Y-55307333D01*
X91488735Y-55285857D01*
X91489555Y-55279111D01*
X91468079Y-55251709D01*
X91461333Y-55250889D01*
X91433931Y-55272365D01*
X91433111Y-55279111D01*
X91454587Y-55306513D01*
X91461333Y-55307333D01*
X91461333Y-55477001D01*
X91387758Y-55476667D01*
X91301407Y-55476667D01*
X91301407Y-55297926D01*
X91318185Y-55294052D01*
X91320222Y-55279111D01*
X91309896Y-55255881D01*
X91301407Y-55260296D01*
X91298030Y-55293790D01*
X91301407Y-55297926D01*
X91301407Y-55476667D01*
X91190870Y-55476667D01*
X91190870Y-55389772D01*
X91227475Y-55384583D01*
X91227912Y-55374949D01*
X91199107Y-55369812D01*
X91199107Y-55211185D01*
X91209283Y-55207350D01*
X91234308Y-55180106D01*
X91205806Y-55166774D01*
X91191556Y-55166222D01*
X91162489Y-55180108D01*
X91165284Y-55194905D01*
X91199107Y-55211185D01*
X91199107Y-55369812D01*
X91190140Y-55368212D01*
X91173819Y-55372721D01*
X91163129Y-55385253D01*
X91190870Y-55389772D01*
X91190870Y-55476667D01*
X91075629Y-55476667D01*
X91075629Y-55297926D01*
X91092408Y-55294052D01*
X91094444Y-55279111D01*
X91084118Y-55255881D01*
X91075629Y-55260296D01*
X91072252Y-55293790D01*
X91075629Y-55297926D01*
X91075629Y-55476667D01*
X91066222Y-55476667D01*
X91066222Y-55617778D01*
X91064372Y-55701312D01*
X91052999Y-55742968D01*
X91023366Y-55757304D01*
X90981555Y-55758889D01*
X90919007Y-55748180D01*
X90896889Y-55722728D01*
X90896889Y-55600116D01*
X90896889Y-55527340D01*
X90881319Y-55466880D01*
X90855464Y-55452925D01*
X90855464Y-55342922D01*
X90887771Y-55338429D01*
X90896520Y-55305626D01*
X90896889Y-55276658D01*
X90893300Y-55224524D01*
X90871557Y-55210101D01*
X90815196Y-55224655D01*
X90805167Y-55227987D01*
X90723393Y-55259440D01*
X90695909Y-55283909D01*
X90721744Y-55305910D01*
X90784147Y-55325843D01*
X90855464Y-55342922D01*
X90855464Y-55452925D01*
X90825172Y-55436573D01*
X90823003Y-55436019D01*
X90759748Y-55424879D01*
X90742703Y-55437531D01*
X90771369Y-55477940D01*
X90812516Y-55519282D01*
X90896889Y-55600116D01*
X90896889Y-55722728D01*
X90876788Y-55683639D01*
X90824425Y-55620828D01*
X90751709Y-55545710D01*
X90670551Y-55469704D01*
X90627664Y-55433560D01*
X90627664Y-55194444D01*
X90654851Y-55186199D01*
X90718406Y-55165180D01*
X90763518Y-55149916D01*
X90894203Y-55105387D01*
X90904321Y-54945305D01*
X90907481Y-54868430D01*
X90910453Y-54746387D01*
X90913058Y-54590450D01*
X90915113Y-54411896D01*
X90916438Y-54221998D01*
X90916618Y-54178444D01*
X90916704Y-53977178D01*
X90915227Y-53829724D01*
X90912058Y-53733467D01*
X90907064Y-53685794D01*
X90900116Y-53684089D01*
X90893294Y-53712778D01*
X90880389Y-53783270D01*
X90859112Y-53898451D01*
X90831467Y-54047527D01*
X90799455Y-54219705D01*
X90765078Y-54404191D01*
X90757174Y-54446556D01*
X90714790Y-54674203D01*
X90681957Y-54852074D01*
X90657691Y-54985847D01*
X90641010Y-55081198D01*
X90630930Y-55143805D01*
X90626468Y-55179345D01*
X90626642Y-55193494D01*
X90627664Y-55194444D01*
X90627664Y-55433560D01*
X90592860Y-55404227D01*
X90530545Y-55360696D01*
X90508833Y-55350715D01*
X90455311Y-55316034D01*
X90452803Y-55266571D01*
X90497199Y-55217211D01*
G36*
X92154472Y-55931364D02*
G01*
X92186685Y-55865814D01*
X92199694Y-55846151D01*
X92298271Y-55729079D01*
X92404298Y-55661289D01*
X92529616Y-55635787D01*
X92557044Y-55635145D01*
X92714615Y-55658693D01*
X92841267Y-55729447D01*
X92937283Y-55847577D01*
X92950055Y-55871348D01*
X93003797Y-56026964D01*
X93005198Y-56174541D01*
X92969173Y-56281000D01*
X92873094Y-56415995D01*
X92752712Y-56502652D01*
X92614894Y-56537878D01*
X92614894Y-56430113D01*
X92732019Y-56393534D01*
X92822502Y-56317354D01*
X92879901Y-56208745D01*
X92900375Y-56083556D01*
X92880085Y-55957636D01*
X92852256Y-55897312D01*
X92784249Y-55825320D01*
X92683504Y-55769402D01*
X92682929Y-55769181D01*
X92599522Y-55742041D01*
X92536730Y-55739277D01*
X92464650Y-55760088D01*
X92456621Y-55763115D01*
X92341366Y-55833386D01*
X92264448Y-55934707D01*
X92230344Y-56054622D01*
X92243529Y-56180674D01*
X92278635Y-56258463D01*
X92370777Y-56362105D01*
X92486793Y-56420492D01*
X92614894Y-56430113D01*
X92614894Y-56537878D01*
X92612798Y-56538414D01*
X92502321Y-56531150D01*
X92350312Y-56481228D01*
X92241303Y-56395761D01*
X92173211Y-56272312D01*
X92144181Y-56112351D01*
X92141928Y-56005756D01*
X92154472Y-55931364D01*
G37*
X92154472Y-55931364D02*
X92186685Y-55865814D01*
X92199694Y-55846151D01*
X92298271Y-55729079D01*
X92404298Y-55661289D01*
X92529616Y-55635787D01*
X92557044Y-55635145D01*
X92714615Y-55658693D01*
X92841267Y-55729447D01*
X92937283Y-55847577D01*
X92950055Y-55871348D01*
X93003797Y-56026964D01*
X93005198Y-56174541D01*
X92969173Y-56281000D01*
X92873094Y-56415995D01*
X92752712Y-56502652D01*
X92614894Y-56537878D01*
X92614894Y-56430113D01*
X92732019Y-56393534D01*
X92822502Y-56317354D01*
X92879901Y-56208745D01*
X92900375Y-56083556D01*
X92880085Y-55957636D01*
X92852256Y-55897312D01*
X92784249Y-55825320D01*
X92683504Y-55769402D01*
X92682929Y-55769181D01*
X92599522Y-55742041D01*
X92536730Y-55739277D01*
X92464650Y-55760088D01*
X92456621Y-55763115D01*
X92341366Y-55833386D01*
X92264448Y-55934707D01*
X92230344Y-56054622D01*
X92243529Y-56180674D01*
X92278635Y-56258463D01*
X92370777Y-56362105D01*
X92486793Y-56420492D01*
X92614894Y-56430113D01*
X92614894Y-56537878D01*
X92612798Y-56538414D01*
X92502321Y-56531150D01*
X92350312Y-56481228D01*
X92241303Y-56395761D01*
X92173211Y-56272312D01*
X92144181Y-56112351D01*
X92141928Y-56005756D01*
X92154472Y-55931364D01*
G36*
X92139964Y-56794789D02*
G01*
X92144726Y-56706758D01*
X92154252Y-56656907D01*
X92169845Y-56636123D01*
X92181000Y-56633778D01*
X92202111Y-56643983D01*
X92215056Y-56681142D01*
X92221556Y-56755070D01*
X92223333Y-56875075D01*
X92223333Y-57116372D01*
X92547889Y-57099444D01*
X92556181Y-56894833D01*
X92563522Y-56783258D01*
X92575828Y-56718823D01*
X92595330Y-56692291D01*
X92605570Y-56690222D01*
X92627452Y-56702388D01*
X92640257Y-56745446D01*
X92645909Y-56829237D01*
X92646667Y-56900542D01*
X92646667Y-57110862D01*
X92820815Y-57119264D01*
X92935069Y-57131781D01*
X92998383Y-57155250D01*
X93008780Y-57188676D01*
X92995329Y-57207042D01*
X92961654Y-57213862D01*
X92881963Y-57219634D01*
X92766681Y-57223894D01*
X92626233Y-57226182D01*
X92557296Y-57226444D01*
X92138667Y-57226444D01*
X92138667Y-56930111D01*
X92139964Y-56794789D01*
G37*
X92139964Y-56794789D02*
X92144726Y-56706758D01*
X92154252Y-56656907D01*
X92169845Y-56636123D01*
X92181000Y-56633778D01*
X92202111Y-56643983D01*
X92215056Y-56681142D01*
X92221556Y-56755070D01*
X92223333Y-56875075D01*
X92223333Y-57116372D01*
X92547889Y-57099444D01*
X92556181Y-56894833D01*
X92563522Y-56783258D01*
X92575828Y-56718823D01*
X92595330Y-56692291D01*
X92605570Y-56690222D01*
X92627452Y-56702388D01*
X92640257Y-56745446D01*
X92645909Y-56829237D01*
X92646667Y-56900542D01*
X92646667Y-57110862D01*
X92820815Y-57119264D01*
X92935069Y-57131781D01*
X92998383Y-57155250D01*
X93008780Y-57188676D01*
X92995329Y-57207042D01*
X92961654Y-57213862D01*
X92881963Y-57219634D01*
X92766681Y-57223894D01*
X92626233Y-57226182D01*
X92557296Y-57226444D01*
X92138667Y-57226444D01*
X92138667Y-56930111D01*
X92139964Y-56794789D01*
G36*
X92139964Y-57556789D02*
G01*
X92144726Y-57468758D01*
X92154252Y-57418907D01*
X92169845Y-57398123D01*
X92181000Y-57395778D01*
X92202164Y-57406019D01*
X92215118Y-57443300D01*
X92221595Y-57517454D01*
X92223333Y-57635667D01*
X92223333Y-57875556D01*
X92562000Y-57875556D01*
X92562000Y-57663889D01*
X92564217Y-57552241D01*
X92572231Y-57486704D01*
X92588082Y-57457072D01*
X92604333Y-57452222D01*
X92626724Y-57463357D01*
X92639837Y-57503578D01*
X92645732Y-57583110D01*
X92646667Y-57662542D01*
X92646667Y-57872862D01*
X92822772Y-57881264D01*
X92923661Y-57889224D01*
X92980354Y-57903512D01*
X93005044Y-57927925D01*
X93008286Y-57939056D01*
X93007727Y-57957784D01*
X92992472Y-57971096D01*
X92954575Y-57979903D01*
X92886092Y-57985119D01*
X92779079Y-57987654D01*
X92625590Y-57988422D01*
X92578180Y-57988444D01*
X92138667Y-57988444D01*
X92138667Y-57692111D01*
X92139964Y-57556789D01*
G37*
X92139964Y-57556789D02*
X92144726Y-57468758D01*
X92154252Y-57418907D01*
X92169845Y-57398123D01*
X92181000Y-57395778D01*
X92202164Y-57406019D01*
X92215118Y-57443300D01*
X92221595Y-57517454D01*
X92223333Y-57635667D01*
X92223333Y-57875556D01*
X92562000Y-57875556D01*
X92562000Y-57663889D01*
X92564217Y-57552241D01*
X92572231Y-57486704D01*
X92588082Y-57457072D01*
X92604333Y-57452222D01*
X92626724Y-57463357D01*
X92639837Y-57503578D01*
X92645732Y-57583110D01*
X92646667Y-57662542D01*
X92646667Y-57872862D01*
X92822772Y-57881264D01*
X92923661Y-57889224D01*
X92980354Y-57903512D01*
X93005044Y-57927925D01*
X93008286Y-57939056D01*
X93007727Y-57957784D01*
X92992472Y-57971096D01*
X92954575Y-57979903D01*
X92886092Y-57985119D01*
X92779079Y-57987654D01*
X92625590Y-57988422D01*
X92578180Y-57988444D01*
X92138667Y-57988444D01*
X92138667Y-57692111D01*
X92139964Y-57556789D01*
G36*
X92176486Y-58490130D02*
G01*
X92214986Y-58469358D01*
X92326335Y-58417555D01*
X92454291Y-58359392D01*
X92588450Y-58299428D01*
X92718409Y-58242224D01*
X92833766Y-58192338D01*
X92924116Y-58154331D01*
X92979056Y-58132763D01*
X92990281Y-58129556D01*
X93018101Y-58144231D01*
X93007940Y-58180308D01*
X92967371Y-58225859D01*
X92903970Y-58268958D01*
X92900667Y-58270667D01*
X92787778Y-58328258D01*
X92787778Y-58798327D01*
X92900667Y-58842671D01*
X92980658Y-58887092D01*
X93014617Y-58936075D01*
X92998286Y-58982084D01*
X92968810Y-58976120D01*
X92897127Y-58949827D01*
X92792151Y-58906810D01*
X92662792Y-58850676D01*
X92647292Y-58843701D01*
X92647292Y-58722222D01*
X92661759Y-58696569D01*
X92671750Y-58629812D01*
X92674889Y-58550537D01*
X92671642Y-58462392D01*
X92663186Y-58403899D01*
X92652916Y-58388259D01*
X92617003Y-58403569D01*
X92545737Y-58433909D01*
X92469472Y-58466360D01*
X92385300Y-58504700D01*
X92326886Y-58536145D01*
X92308000Y-58552203D01*
X92331158Y-58572352D01*
X92389691Y-58606729D01*
X92467188Y-58647111D01*
X92547236Y-58685275D01*
X92613425Y-58712996D01*
X92647292Y-58722222D01*
X92647292Y-58843701D01*
X92567898Y-58807968D01*
X92390645Y-58724678D01*
X92262791Y-58657921D01*
X92180892Y-58604393D01*
X92141505Y-58560788D01*
X92141184Y-58523802D01*
X92176486Y-58490130D01*
G37*
X92176486Y-58490130D02*
X92214986Y-58469358D01*
X92326335Y-58417555D01*
X92454291Y-58359392D01*
X92588450Y-58299428D01*
X92718409Y-58242224D01*
X92833766Y-58192338D01*
X92924116Y-58154331D01*
X92979056Y-58132763D01*
X92990281Y-58129556D01*
X93018101Y-58144231D01*
X93007940Y-58180308D01*
X92967371Y-58225859D01*
X92903970Y-58268958D01*
X92900667Y-58270667D01*
X92787778Y-58328258D01*
X92787778Y-58798327D01*
X92900667Y-58842671D01*
X92980658Y-58887092D01*
X93014617Y-58936075D01*
X92998286Y-58982084D01*
X92968810Y-58976120D01*
X92897127Y-58949827D01*
X92792151Y-58906810D01*
X92662792Y-58850676D01*
X92647292Y-58843701D01*
X92647292Y-58722222D01*
X92661759Y-58696569D01*
X92671750Y-58629812D01*
X92674889Y-58550537D01*
X92671642Y-58462392D01*
X92663186Y-58403899D01*
X92652916Y-58388259D01*
X92617003Y-58403569D01*
X92545737Y-58433909D01*
X92469472Y-58466360D01*
X92385300Y-58504700D01*
X92326886Y-58536145D01*
X92308000Y-58552203D01*
X92331158Y-58572352D01*
X92389691Y-58606729D01*
X92467188Y-58647111D01*
X92547236Y-58685275D01*
X92613425Y-58712996D01*
X92647292Y-58722222D01*
X92647292Y-58843701D01*
X92567898Y-58807968D01*
X92390645Y-58724678D01*
X92262791Y-58657921D01*
X92180892Y-58604393D01*
X92141505Y-58560788D01*
X92141184Y-58523802D01*
X92176486Y-58490130D01*
G36*
X92147384Y-59250015D02*
G01*
X92167368Y-59148651D01*
X92201439Y-59072320D01*
X92247793Y-59034518D01*
X92261688Y-59032667D01*
X92304891Y-59042469D01*
X92312512Y-59077897D01*
X92285527Y-59147982D01*
X92276174Y-59166734D01*
X92230678Y-59292519D01*
X92234651Y-59404331D01*
X92287680Y-59514915D01*
X92383470Y-59616437D01*
X92493668Y-59670440D01*
X92607975Y-59680157D01*
X92716092Y-59648820D01*
X92807721Y-59579659D01*
X92872562Y-59475907D01*
X92900317Y-59340795D01*
X92900667Y-59322570D01*
X92888661Y-59232583D01*
X92859328Y-59156012D01*
X92855067Y-59149457D01*
X92831808Y-59091661D01*
X92841379Y-59048873D01*
X92876670Y-59036915D01*
X92901087Y-59047038D01*
X92955512Y-59109967D01*
X92991560Y-59209452D01*
X93006559Y-59327833D01*
X92997837Y-59447450D01*
X92973858Y-59527955D01*
X92894784Y-59643878D01*
X92778085Y-59732313D01*
X92640556Y-59780751D01*
X92632754Y-59782001D01*
X92495213Y-59777942D01*
X92361895Y-59731275D01*
X92250393Y-59650451D01*
X92189987Y-59569329D01*
X92156890Y-59473851D01*
X92143290Y-59362914D01*
X92147384Y-59250015D01*
G37*
X92147384Y-59250015D02*
X92167368Y-59148651D01*
X92201439Y-59072320D01*
X92247793Y-59034518D01*
X92261688Y-59032667D01*
X92304891Y-59042469D01*
X92312512Y-59077897D01*
X92285527Y-59147982D01*
X92276174Y-59166734D01*
X92230678Y-59292519D01*
X92234651Y-59404331D01*
X92287680Y-59514915D01*
X92383470Y-59616437D01*
X92493668Y-59670440D01*
X92607975Y-59680157D01*
X92716092Y-59648820D01*
X92807721Y-59579659D01*
X92872562Y-59475907D01*
X92900317Y-59340795D01*
X92900667Y-59322570D01*
X92888661Y-59232583D01*
X92859328Y-59156012D01*
X92855067Y-59149457D01*
X92831808Y-59091661D01*
X92841379Y-59048873D01*
X92876670Y-59036915D01*
X92901087Y-59047038D01*
X92955512Y-59109967D01*
X92991560Y-59209452D01*
X93006559Y-59327833D01*
X92997837Y-59447450D01*
X92973858Y-59527955D01*
X92894784Y-59643878D01*
X92778085Y-59732313D01*
X92640556Y-59780751D01*
X92632754Y-59782001D01*
X92495213Y-59777942D01*
X92361895Y-59731275D01*
X92250393Y-59650451D01*
X92189987Y-59569329D01*
X92156890Y-59473851D01*
X92143290Y-59362914D01*
X92147384Y-59250015D01*
G36*
X92148054Y-60088979D02*
G01*
X92174503Y-59993325D01*
X92215448Y-59942296D01*
X92240037Y-59935778D01*
X92272034Y-59949394D01*
X92267823Y-59998141D01*
X92267487Y-59999278D01*
X92232958Y-60157788D01*
X92235783Y-60277514D01*
X92262681Y-60344404D01*
X92322831Y-60407595D01*
X92382826Y-60415372D01*
X92441327Y-60368753D01*
X92496995Y-60268756D01*
X92544705Y-60129970D01*
X92590247Y-60005167D01*
X92646406Y-59930860D01*
X92721741Y-59901138D01*
X92824809Y-59910090D01*
X92853137Y-59916945D01*
X92929665Y-59963984D01*
X92981941Y-60050815D01*
X93007177Y-60165021D01*
X93002583Y-60294190D01*
X92966749Y-60422611D01*
X92919553Y-60502566D01*
X92869426Y-60528444D01*
X92829678Y-60525879D01*
X92820103Y-60508701D01*
X92839140Y-60462684D01*
X92858159Y-60425837D01*
X92892197Y-60323874D01*
X92900978Y-60211465D01*
X92885305Y-60108860D01*
X92845983Y-60036306D01*
X92842570Y-60033061D01*
X92786681Y-60000199D01*
X92736937Y-60012642D01*
X92689812Y-60073659D01*
X92641782Y-60186523D01*
X92625554Y-60234403D01*
X92562384Y-60386019D01*
X92489510Y-60484059D01*
X92408200Y-60527859D01*
X92319723Y-60516756D01*
X92225348Y-60450086D01*
X92221162Y-60445949D01*
X92168806Y-60383174D01*
X92144523Y-60316609D01*
X92138667Y-60222008D01*
X92148054Y-60088979D01*
G37*
X92148054Y-60088979D02*
X92174503Y-59993325D01*
X92215448Y-59942296D01*
X92240037Y-59935778D01*
X92272034Y-59949394D01*
X92267823Y-59998141D01*
X92267487Y-59999278D01*
X92232958Y-60157788D01*
X92235783Y-60277514D01*
X92262681Y-60344404D01*
X92322831Y-60407595D01*
X92382826Y-60415372D01*
X92441327Y-60368753D01*
X92496995Y-60268756D01*
X92544705Y-60129970D01*
X92590247Y-60005167D01*
X92646406Y-59930860D01*
X92721741Y-59901138D01*
X92824809Y-59910090D01*
X92853137Y-59916945D01*
X92929665Y-59963984D01*
X92981941Y-60050815D01*
X93007177Y-60165021D01*
X93002583Y-60294190D01*
X92966749Y-60422611D01*
X92919553Y-60502566D01*
X92869426Y-60528444D01*
X92829678Y-60525879D01*
X92820103Y-60508701D01*
X92839140Y-60462684D01*
X92858159Y-60425837D01*
X92892197Y-60323874D01*
X92900978Y-60211465D01*
X92885305Y-60108860D01*
X92845983Y-60036306D01*
X92842570Y-60033061D01*
X92786681Y-60000199D01*
X92736937Y-60012642D01*
X92689812Y-60073659D01*
X92641782Y-60186523D01*
X92625554Y-60234403D01*
X92562384Y-60386019D01*
X92489510Y-60484059D01*
X92408200Y-60527859D01*
X92319723Y-60516756D01*
X92225348Y-60450086D01*
X92221162Y-60445949D01*
X92168806Y-60383174D01*
X92144523Y-60316609D01*
X92138667Y-60222008D01*
X92148054Y-60088979D01*
D12*
X96950279Y-55510000D02*
X96624721Y-55510000D01*
X96950279Y-54490000D02*
X96624721Y-54490000D01*
X98865000Y-59210000D02*
X101725000Y-59210000D01*
X98865000Y-57290000D02*
X98865000Y-59210000D01*
X101725000Y-57290000D02*
X98865000Y-57290000D01*
X101725000Y-54040000D02*
X98865000Y-54040000D01*
X98865000Y-54040000D02*
X98865000Y-55960000D01*
X98865000Y-55960000D02*
X101725000Y-55960000D01*
X105160000Y-66160000D02*
X105160000Y-61900000D01*
X105160000Y-61900000D02*
X92840000Y-61900000D01*
X92840000Y-61900000D02*
X92840000Y-66160000D01*
X105160000Y-70260000D02*
X105160000Y-78620000D01*
X105160000Y-78620000D02*
X92840000Y-78620000D01*
X92840000Y-78620000D02*
X92840000Y-70260000D01*
X100250000Y-61680000D02*
X100750000Y-61180000D01*
X100750000Y-61180000D02*
X99750000Y-61180000D01*
X99750000Y-61180000D02*
X100250000Y-61680000D01*
X117230000Y-74170000D02*
X117230000Y-76830000D01*
X117230000Y-74170000D02*
X109550000Y-74170000D01*
X109550000Y-74170000D02*
X109550000Y-76830000D01*
X117230000Y-76830000D02*
X109550000Y-76830000D01*
X119830000Y-76830000D02*
X118500000Y-76830000D01*
X119830000Y-75500000D02*
X119830000Y-76830000D01*
X129020000Y-74170000D02*
X129020000Y-76830000D01*
X129020000Y-74170000D02*
X121340000Y-74170000D01*
X121340000Y-74170000D02*
X121340000Y-76830000D01*
X129020000Y-76830000D02*
X121340000Y-76830000D01*
X131620000Y-76830000D02*
X130290000Y-76830000D01*
X131620000Y-75500000D02*
X131620000Y-76830000D01*
X87580000Y-57480000D02*
X84920000Y-57480000D01*
X87580000Y-57480000D02*
X87580000Y-54880000D01*
X87580000Y-54880000D02*
X84920000Y-54880000D01*
X84920000Y-57480000D02*
X84920000Y-54880000D01*
X84920000Y-60080000D02*
X84920000Y-58750000D01*
X86250000Y-60080000D02*
X84920000Y-60080000D01*
X82500000Y-60080000D02*
X81170000Y-60080000D01*
X81170000Y-60080000D02*
X81170000Y-58750000D01*
X81170000Y-57480000D02*
X81170000Y-54880000D01*
X83830000Y-54880000D02*
X81170000Y-54880000D01*
X83830000Y-57480000D02*
X83830000Y-54880000D01*
X83830000Y-57480000D02*
X81170000Y-57480000D01*
X80080000Y-57480000D02*
X77420000Y-57480000D01*
X80080000Y-57480000D02*
X80080000Y-54880000D01*
X80080000Y-54880000D02*
X77420000Y-54880000D01*
X77420000Y-57480000D02*
X77420000Y-54880000D01*
X77420000Y-60080000D02*
X77420000Y-58750000D01*
X78750000Y-60080000D02*
X77420000Y-60080000D01*
D13*
X83680000Y-63960000D02*
G75*
G03X83680000Y-63960000I-200000J0D01*
G01*
D14*
X78750000Y-78250000D02*
X88750000Y-78250000D01*
X88750000Y-78250000D02*
X88750000Y-75410000D01*
X78750000Y-78250000D02*
X78750000Y-75410000D01*
X78750000Y-65250000D02*
X82400000Y-65250000D01*
X85100000Y-65250000D02*
X88750000Y-65250000D01*
D12*
X109420000Y-58750000D02*
X109420000Y-57420000D01*
X109420000Y-57420000D02*
X110750000Y-57420000D01*
X112020000Y-57420000D02*
X117160000Y-57420000D01*
X117160000Y-60080000D02*
X117160000Y-57420000D01*
X112020000Y-60080000D02*
X117160000Y-60080000D01*
X112020000Y-60080000D02*
X112020000Y-57420000D01*
X112020000Y-56330000D02*
X112020000Y-53670000D01*
X112020000Y-56330000D02*
X117160000Y-56330000D01*
X117160000Y-56330000D02*
X117160000Y-53670000D01*
X112020000Y-53670000D02*
X117160000Y-53670000D01*
X109420000Y-53670000D02*
X110750000Y-53670000D01*
X109420000Y-55000000D02*
X109420000Y-53670000D01*
X150000000Y-72160000D02*
X148670000Y-72160000D01*
X148670000Y-72160000D02*
X148670000Y-70830000D01*
X148670000Y-69560000D02*
X148670000Y-61880000D01*
X151330000Y-61880000D02*
X148670000Y-61880000D01*
X151330000Y-69560000D02*
X151330000Y-61880000D01*
X151330000Y-69560000D02*
X148670000Y-69560000D01*
X104928922Y-58960000D02*
X105446078Y-58960000D01*
X104928922Y-57540000D02*
X105446078Y-57540000D01*
X104803922Y-54290000D02*
X105321078Y-54290000D01*
X104803922Y-55710000D02*
X105321078Y-55710000D01*
X148500000Y-58500000D02*
X148500000Y-54000000D01*
X144500000Y-59750000D02*
X146000000Y-59750000D01*
X142000000Y-54000000D02*
X142000000Y-58500000D01*
X146000000Y-52750000D02*
X144500000Y-52750000D01*
X138635000Y-54390000D02*
X139360000Y-54390000D01*
X139360000Y-54390000D02*
X139360000Y-55115000D01*
X134865000Y-59610000D02*
X134140000Y-59610000D01*
X134140000Y-59610000D02*
X134140000Y-58885000D01*
X138635000Y-59610000D02*
X139360000Y-59610000D01*
X139360000Y-59610000D02*
X139360000Y-58885000D01*
X134865000Y-54390000D02*
X134140000Y-54390000D01*
D15*
X145610000Y-61777500D02*
G75*
G03X145610000Y-61777500I-100000J0D01*
G01*
D14*
X146425000Y-63253500D02*
X146425000Y-70746500D01*
X111575000Y-63253500D02*
X111575000Y-70746500D01*
D12*
X129010000Y-59525000D02*
X122610000Y-59525000D01*
X129010000Y-54475000D02*
X122610000Y-54475000D01*
X129010000Y-54475000D02*
G75*
G02X129010000Y-59525000I0J-2525000D01*
G01*
X122610000Y-54475000D02*
G75*
G03X122610000Y-59525000I0J-2525000D01*
G01*
X146810000Y-74170000D02*
X146810000Y-76830000D01*
X146810000Y-74170000D02*
X134050000Y-74170000D01*
X134050000Y-74170000D02*
X134050000Y-76830000D01*
X146810000Y-76830000D02*
X134050000Y-76830000D01*
X149410000Y-76830000D02*
X148080000Y-76830000D01*
X149410000Y-75500000D02*
X149410000Y-76830000D01*
D10*
X96533333Y-54057142D02*
X96485714Y-54104761D01*
X96342857Y-54152380D01*
X96247619Y-54152380D01*
X96104761Y-54104761D01*
X96009523Y-54009523D01*
X95961904Y-53914285D01*
X95914285Y-53723809D01*
X95914285Y-53580952D01*
X95961904Y-53390476D01*
X96009523Y-53295238D01*
X96104761Y-53200000D01*
X96247619Y-53152380D01*
X96342857Y-53152380D01*
X96485714Y-53200000D01*
X96533333Y-53247619D01*
X97485714Y-54152380D02*
X96914285Y-54152380D01*
X97200000Y-54152380D02*
X97200000Y-53152380D01*
X97104761Y-53295238D01*
X97009523Y-53390476D01*
X96914285Y-53438095D01*
X96620833Y-56787142D02*
X96573214Y-56834761D01*
X96430357Y-56882380D01*
X96335119Y-56882380D01*
X96192261Y-56834761D01*
X96097023Y-56739523D01*
X96049404Y-56644285D01*
X96001785Y-56453809D01*
X96001785Y-56310952D01*
X96049404Y-56120476D01*
X96097023Y-56025238D01*
X96192261Y-55930000D01*
X96335119Y-55882380D01*
X96430357Y-55882380D01*
X96573214Y-55930000D01*
X96620833Y-55977619D01*
X97001785Y-55977619D02*
X97049404Y-55930000D01*
X97144642Y-55882380D01*
X97382738Y-55882380D01*
X97477976Y-55930000D01*
X97525595Y-55977619D01*
X97573214Y-56072857D01*
X97573214Y-56168095D01*
X97525595Y-56310952D01*
X96954166Y-56882380D01*
X97573214Y-56882380D01*
X126583333Y-51857142D02*
X126535714Y-51904761D01*
X126392857Y-51952380D01*
X126297619Y-51952380D01*
X126154761Y-51904761D01*
X126059523Y-51809523D01*
X126011904Y-51714285D01*
X125964285Y-51523809D01*
X125964285Y-51380952D01*
X126011904Y-51190476D01*
X126059523Y-51095238D01*
X126154761Y-51000000D01*
X126297619Y-50952380D01*
X126392857Y-50952380D01*
X126535714Y-51000000D01*
X126583333Y-51047619D01*
X126916666Y-50952380D02*
X127535714Y-50952380D01*
X127202380Y-51333333D01*
X127345238Y-51333333D01*
X127440476Y-51380952D01*
X127488095Y-51428571D01*
X127535714Y-51523809D01*
X127535714Y-51761904D01*
X127488095Y-51857142D01*
X127440476Y-51904761D01*
X127345238Y-51952380D01*
X127059523Y-51952380D01*
X126964285Y-51904761D01*
X126916666Y-51857142D01*
X124318333Y-51857142D02*
X124270714Y-51904761D01*
X124127857Y-51952380D01*
X124032619Y-51952380D01*
X123889761Y-51904761D01*
X123794523Y-51809523D01*
X123746904Y-51714285D01*
X123699285Y-51523809D01*
X123699285Y-51380952D01*
X123746904Y-51190476D01*
X123794523Y-51095238D01*
X123889761Y-51000000D01*
X124032619Y-50952380D01*
X124127857Y-50952380D01*
X124270714Y-51000000D01*
X124318333Y-51047619D01*
X125175476Y-51285714D02*
X125175476Y-51952380D01*
X124937380Y-50904761D02*
X124699285Y-51619047D01*
X125318333Y-51619047D01*
X99986904Y-57052380D02*
X99986904Y-56052380D01*
X100225000Y-56052380D01*
X100367857Y-56100000D01*
X100463095Y-56195238D01*
X100510714Y-56290476D01*
X100558333Y-56480952D01*
X100558333Y-56623809D01*
X100510714Y-56814285D01*
X100463095Y-56909523D01*
X100367857Y-57004761D01*
X100225000Y-57052380D01*
X99986904Y-57052380D01*
X101510714Y-57052380D02*
X100939285Y-57052380D01*
X101225000Y-57052380D02*
X101225000Y-56052380D01*
X101129761Y-56195238D01*
X101034523Y-56290476D01*
X100939285Y-56338095D01*
X99986904Y-53802380D02*
X99986904Y-52802380D01*
X100225000Y-52802380D01*
X100367857Y-52850000D01*
X100463095Y-52945238D01*
X100510714Y-53040476D01*
X100558333Y-53230952D01*
X100558333Y-53373809D01*
X100510714Y-53564285D01*
X100463095Y-53659523D01*
X100367857Y-53754761D01*
X100225000Y-53802380D01*
X99986904Y-53802380D01*
X100939285Y-52897619D02*
X100986904Y-52850000D01*
X101082142Y-52802380D01*
X101320238Y-52802380D01*
X101415476Y-52850000D01*
X101463095Y-52897619D01*
X101510714Y-52992857D01*
X101510714Y-53088095D01*
X101463095Y-53230952D01*
X100891666Y-53802380D01*
X101510714Y-53802380D01*
X107472380Y-70593333D02*
X108186666Y-70593333D01*
X108329523Y-70640952D01*
X108424761Y-70736190D01*
X108472380Y-70879047D01*
X108472380Y-70974285D01*
X108472380Y-69593333D02*
X108472380Y-70164761D01*
X108472380Y-69879047D02*
X107472380Y-69879047D01*
X107615238Y-69974285D01*
X107710476Y-70069523D01*
X107758095Y-70164761D01*
X109666666Y-72702380D02*
X109666666Y-73416666D01*
X109619047Y-73559523D01*
X109523809Y-73654761D01*
X109380952Y-73702380D01*
X109285714Y-73702380D01*
X110047619Y-72702380D02*
X110666666Y-72702380D01*
X110333333Y-73083333D01*
X110476190Y-73083333D01*
X110571428Y-73130952D01*
X110619047Y-73178571D01*
X110666666Y-73273809D01*
X110666666Y-73511904D01*
X110619047Y-73607142D01*
X110571428Y-73654761D01*
X110476190Y-73702380D01*
X110190476Y-73702380D01*
X110095238Y-73654761D01*
X110047619Y-73607142D01*
X130916666Y-72702380D02*
X130916666Y-73416666D01*
X130869047Y-73559523D01*
X130773809Y-73654761D01*
X130630952Y-73702380D01*
X130535714Y-73702380D01*
X131821428Y-72702380D02*
X131630952Y-72702380D01*
X131535714Y-72750000D01*
X131488095Y-72797619D01*
X131392857Y-72940476D01*
X131345238Y-73130952D01*
X131345238Y-73511904D01*
X131392857Y-73607142D01*
X131440476Y-73654761D01*
X131535714Y-73702380D01*
X131726190Y-73702380D01*
X131821428Y-73654761D01*
X131869047Y-73607142D01*
X131916666Y-73511904D01*
X131916666Y-73273809D01*
X131869047Y-73178571D01*
X131821428Y-73130952D01*
X131726190Y-73083333D01*
X131535714Y-73083333D01*
X131440476Y-73130952D01*
X131392857Y-73178571D01*
X131345238Y-73273809D01*
X85440476Y-60972380D02*
X85440476Y-61686666D01*
X85392857Y-61829523D01*
X85297619Y-61924761D01*
X85154761Y-61972380D01*
X85059523Y-61972380D01*
X86440476Y-61972380D02*
X85869047Y-61972380D01*
X86154761Y-61972380D02*
X86154761Y-60972380D01*
X86059523Y-61115238D01*
X85964285Y-61210476D01*
X85869047Y-61258095D01*
X87059523Y-60972380D02*
X87154761Y-60972380D01*
X87250000Y-61020000D01*
X87297619Y-61067619D01*
X87345238Y-61162857D01*
X87392857Y-61353333D01*
X87392857Y-61591428D01*
X87345238Y-61781904D01*
X87297619Y-61877142D01*
X87250000Y-61924761D01*
X87154761Y-61972380D01*
X87059523Y-61972380D01*
X86964285Y-61924761D01*
X86916666Y-61877142D01*
X86869047Y-61781904D01*
X86821428Y-61591428D01*
X86821428Y-61353333D01*
X86869047Y-61162857D01*
X86916666Y-61067619D01*
X86964285Y-61020000D01*
X87059523Y-60972380D01*
X81690476Y-60972380D02*
X81690476Y-61686666D01*
X81642857Y-61829523D01*
X81547619Y-61924761D01*
X81404761Y-61972380D01*
X81309523Y-61972380D01*
X82690476Y-61972380D02*
X82119047Y-61972380D01*
X82404761Y-61972380D02*
X82404761Y-60972380D01*
X82309523Y-61115238D01*
X82214285Y-61210476D01*
X82119047Y-61258095D01*
X83642857Y-61972380D02*
X83071428Y-61972380D01*
X83357142Y-61972380D02*
X83357142Y-60972380D01*
X83261904Y-61115238D01*
X83166666Y-61210476D01*
X83071428Y-61258095D01*
X77940476Y-60972380D02*
X77940476Y-61686666D01*
X77892857Y-61829523D01*
X77797619Y-61924761D01*
X77654761Y-61972380D01*
X77559523Y-61972380D01*
X78940476Y-61972380D02*
X78369047Y-61972380D01*
X78654761Y-61972380D02*
X78654761Y-60972380D01*
X78559523Y-61115238D01*
X78464285Y-61210476D01*
X78369047Y-61258095D01*
X79321428Y-61067619D02*
X79369047Y-61020000D01*
X79464285Y-60972380D01*
X79702380Y-60972380D01*
X79797619Y-61020000D01*
X79845238Y-61067619D01*
X79892857Y-61162857D01*
X79892857Y-61258095D01*
X79845238Y-61400952D01*
X79273809Y-61972380D01*
X79892857Y-61972380D01*
X107432380Y-59559523D02*
X108146666Y-59559523D01*
X108289523Y-59607142D01*
X108384761Y-59702380D01*
X108432380Y-59845238D01*
X108432380Y-59940476D01*
X108432380Y-58559523D02*
X108432380Y-59130952D01*
X108432380Y-58845238D02*
X107432380Y-58845238D01*
X107575238Y-58940476D01*
X107670476Y-59035714D01*
X107718095Y-59130952D01*
X107765714Y-57702380D02*
X108432380Y-57702380D01*
X107384761Y-57940476D02*
X108099047Y-58178571D01*
X108099047Y-57559523D01*
X107432380Y-55809523D02*
X108146666Y-55809523D01*
X108289523Y-55857142D01*
X108384761Y-55952380D01*
X108432380Y-56095238D01*
X108432380Y-56190476D01*
X108432380Y-54809523D02*
X108432380Y-55380952D01*
X108432380Y-55095238D02*
X107432380Y-55095238D01*
X107575238Y-55190476D01*
X107670476Y-55285714D01*
X107718095Y-55380952D01*
X107432380Y-53904761D02*
X107432380Y-54380952D01*
X107908571Y-54428571D01*
X107860952Y-54380952D01*
X107813333Y-54285714D01*
X107813333Y-54047619D01*
X107860952Y-53952380D01*
X107908571Y-53904761D01*
X108003809Y-53857142D01*
X108241904Y-53857142D01*
X108337142Y-53904761D01*
X108384761Y-53952380D01*
X108432380Y-54047619D01*
X108432380Y-54285714D01*
X108384761Y-54380952D01*
X108337142Y-54428571D01*
X149190476Y-73052380D02*
X149190476Y-73766666D01*
X149142857Y-73909523D01*
X149047619Y-74004761D01*
X148904761Y-74052380D01*
X148809523Y-74052380D01*
X150190476Y-74052380D02*
X149619047Y-74052380D01*
X149904761Y-74052380D02*
X149904761Y-73052380D01*
X149809523Y-73195238D01*
X149714285Y-73290476D01*
X149619047Y-73338095D01*
X151047619Y-73052380D02*
X150857142Y-73052380D01*
X150761904Y-73100000D01*
X150714285Y-73147619D01*
X150619047Y-73290476D01*
X150571428Y-73480952D01*
X150571428Y-73861904D01*
X150619047Y-73957142D01*
X150666666Y-74004761D01*
X150761904Y-74052380D01*
X150952380Y-74052380D01*
X151047619Y-74004761D01*
X151095238Y-73957142D01*
X151142857Y-73861904D01*
X151142857Y-73623809D01*
X151095238Y-73528571D01*
X151047619Y-73480952D01*
X150952380Y-73433333D01*
X150761904Y-73433333D01*
X150666666Y-73480952D01*
X150619047Y-73528571D01*
X150571428Y-73623809D01*
X105020833Y-57052380D02*
X104687500Y-56576190D01*
X104449404Y-57052380D02*
X104449404Y-56052380D01*
X104830357Y-56052380D01*
X104925595Y-56100000D01*
X104973214Y-56147619D01*
X105020833Y-56242857D01*
X105020833Y-56385714D01*
X104973214Y-56480952D01*
X104925595Y-56528571D01*
X104830357Y-56576190D01*
X104449404Y-56576190D01*
X105973214Y-57052380D02*
X105401785Y-57052380D01*
X105687500Y-57052380D02*
X105687500Y-56052380D01*
X105592261Y-56195238D01*
X105497023Y-56290476D01*
X105401785Y-56338095D01*
X139818333Y-52282380D02*
X139485000Y-51806190D01*
X139246904Y-52282380D02*
X139246904Y-51282380D01*
X139627857Y-51282380D01*
X139723095Y-51330000D01*
X139770714Y-51377619D01*
X139818333Y-51472857D01*
X139818333Y-51615714D01*
X139770714Y-51710952D01*
X139723095Y-51758571D01*
X139627857Y-51806190D01*
X139246904Y-51806190D01*
X140199285Y-51377619D02*
X140246904Y-51330000D01*
X140342142Y-51282380D01*
X140580238Y-51282380D01*
X140675476Y-51330000D01*
X140723095Y-51377619D01*
X140770714Y-51472857D01*
X140770714Y-51568095D01*
X140723095Y-51710952D01*
X140151666Y-52282380D01*
X140770714Y-52282380D01*
X104895833Y-53937379D02*
X104562500Y-53461189D01*
X104324404Y-53937379D02*
X104324404Y-52937379D01*
X104705357Y-52937379D01*
X104800595Y-52984999D01*
X104848214Y-53032618D01*
X104895833Y-53127856D01*
X104895833Y-53270713D01*
X104848214Y-53365951D01*
X104800595Y-53413570D01*
X104705357Y-53461189D01*
X104324404Y-53461189D01*
X105229166Y-52937379D02*
X105848214Y-52937379D01*
X105514880Y-53318332D01*
X105657738Y-53318332D01*
X105752976Y-53365951D01*
X105800595Y-53413570D01*
X105848214Y-53508808D01*
X105848214Y-53746903D01*
X105800595Y-53842141D01*
X105752976Y-53889760D01*
X105657738Y-53937379D01*
X105372023Y-53937379D01*
X105276785Y-53889760D01*
X105229166Y-53842141D01*
X141404761Y-57583333D02*
X141452380Y-57440476D01*
X141452380Y-57202380D01*
X141404761Y-57107142D01*
X141357142Y-57059523D01*
X141261904Y-57011904D01*
X141166666Y-57011904D01*
X141071428Y-57059523D01*
X141023809Y-57107142D01*
X140976190Y-57202380D01*
X140928571Y-57392857D01*
X140880952Y-57488095D01*
X140833333Y-57535714D01*
X140738095Y-57583333D01*
X140642857Y-57583333D01*
X140547619Y-57535714D01*
X140500000Y-57488095D01*
X140452380Y-57392857D01*
X140452380Y-57154761D01*
X140500000Y-57011904D01*
X140452380Y-56678571D02*
X141452380Y-56440476D01*
X140738095Y-56250000D01*
X141452380Y-56059523D01*
X140452380Y-55821428D01*
X141452380Y-54916666D02*
X141452380Y-55488095D01*
X141452380Y-55202380D02*
X140452380Y-55202380D01*
X140595238Y-55297619D01*
X140690476Y-55392857D01*
X140738095Y-55488095D01*
X135988095Y-52652380D02*
X135988095Y-53461904D01*
X136035714Y-53557142D01*
X136083333Y-53604761D01*
X136178571Y-53652380D01*
X136369047Y-53652380D01*
X136464285Y-53604761D01*
X136511904Y-53557142D01*
X136559523Y-53461904D01*
X136559523Y-52652380D01*
X137559523Y-53652380D02*
X136988095Y-53652380D01*
X137273809Y-53652380D02*
X137273809Y-52652380D01*
X137178571Y-52795238D01*
X137083333Y-52890476D01*
X136988095Y-52938095D01*
X125000476Y-59977380D02*
X125667142Y-60977380D01*
X125667142Y-59977380D02*
X125000476Y-60977380D01*
X126571904Y-60977380D02*
X126000476Y-60977380D01*
X126286190Y-60977380D02*
X126286190Y-59977380D01*
X126190952Y-60120238D01*
X126095714Y-60215476D01*
X126000476Y-60263095D01*
X134416666Y-72702380D02*
X134416666Y-73416666D01*
X134369047Y-73559523D01*
X134273809Y-73654761D01*
X134130952Y-73702380D01*
X134035714Y-73702380D01*
X134845238Y-72797619D02*
X134892857Y-72750000D01*
X134988095Y-72702380D01*
X135226190Y-72702380D01*
X135321428Y-72750000D01*
X135369047Y-72797619D01*
X135416666Y-72892857D01*
X135416666Y-72988095D01*
X135369047Y-73130952D01*
X134797619Y-73702380D01*
X135416666Y-73702380D01*
M02*
